<svg width="140" height="70" viewBox="0 0 140 70" fill="none" xmlns="http://www.w3.org/2000/svg">
<path d="M37.7475 23.4833L37.73 23.9405L37.7126 24.4071L37.6865 24.8647L37.6602 25.3311L37.6253 25.7887L37.5903 26.2374L37.5467 26.6862L37.5031 27.1174L37.4506 27.5487L37.3981 27.9623L37.3455 28.3582L37.2845 28.7453L37.2233 29.1061L37.1623 29.458L37.0924 29.7836L37.0222 30.0826L37.0483 29.5721L37.057 29.0354V28.4724L37.0394 27.9005L37.0221 27.3113L36.9961 26.7129L36.9523 26.1059L36.9088 25.49L36.8476 24.8741L36.7866 24.2579L36.7079 23.6419L36.6292 23.026L36.5417 22.4278L36.4456 21.8383L36.3405 21.2576L36.2268 20.6946L36.1041 20.1229L35.9466 19.5069L35.7716 18.8647L35.5787 18.196L35.3687 17.5009L35.1409 16.7969L34.9046 16.0842L34.6509 15.3803L34.397 14.6762L34.1258 13.9897L33.8546 13.3299L33.5833 12.6878L33.3121 12.0896L33.0409 11.5265L32.9009 11.2712L32.7696 11.0159L32.6387 10.7869L32.5074 10.5581L32.2622 10.9892L32.0171 11.4643L31.7633 11.9836L31.5096 12.5377L31.2558 13.1272L31.002 13.7431L30.7482 14.3853L30.503 15.045L30.2578 15.7224L30.0215 16.4176L29.7938 17.13L29.5752 17.8342L29.3649 18.5557L29.1725 19.2684L28.9973 19.9723L28.8312 20.6675L28.761 21.0191L28.6909 21.371L28.621 21.723L28.5601 22.0837L28.4463 22.8052L28.35 23.5179L28.2715 24.2393L28.2013 24.9436L28.1403 25.6299L28.0965 26.2986L28.0615 26.941L28.0355 27.548L28.0093 28.1113L28.0006 28.6392L27.9919 29.1056L27.9831 29.5193V29.8801V30.1615L27.9394 29.9151L27.8869 29.6072L27.8344 29.2464L27.7732 28.8151L27.7123 28.3486L27.6511 27.8207L27.5899 27.2577L27.5375 26.659L27.485 26.0256L27.4412 25.3569L27.3978 24.6618L27.3716 23.9493L27.354 23.219L27.3453 22.4711L27.354 21.7234L27.3716 20.9663L27.4065 20.3329L27.4502 19.7082L27.5027 19.0922L27.5726 18.4762L27.6514 17.8692L27.7389 17.2709L27.8264 16.6903L27.9226 16.1362L28.0276 15.5906L28.1237 15.0714L28.2289 14.5786L28.3338 14.1212L28.4301 13.69L28.526 13.2941L28.6222 12.9331L28.701 12.6167L29.0073 11.6576L29.3135 10.7335L29.6283 9.86265L29.9346 9.04425L30.232 8.27L30.5296 7.54839L30.8094 6.87106L31.0806 6.26391L31.3344 5.70091L31.5796 5.19932L31.7984 4.75022L31.9908 4.36324L32.1658 4.04671L32.3061 3.78269L32.4195 3.58035L32.5071 3.44848L32.5948 3.58927L32.7173 3.80929L32.8836 4.10826L33.0849 4.4777L33.3124 4.90897L33.5576 5.39302L33.8288 5.93862L34.1176 6.53671L34.4063 7.17909L34.7034 7.85642L35.0097 8.56912L35.2983 9.30842L35.4472 9.69554L35.5872 10.0825L35.7274 10.4695L35.8675 10.8742L35.9986 11.2702L36.1298 11.6749L36.2436 12.0796L36.3661 12.4841L36.4713 12.8977L36.5763 13.3025L36.6724 13.7072L36.7684 14.1118L36.9347 14.9125L37.0923 15.6956L37.2235 16.4701L37.3374 17.2356L37.4333 17.9749L37.5208 18.6964L37.5909 19.3915L37.6435 20.069L37.687 20.7201L37.7218 21.3362L37.7394 21.9255L37.7481 22.4796V22.9987V23.4829H37.7475V23.4833ZM32.5325 42.295L32.3925 42.0222L32.2438 41.7231L32.0951 41.3975L31.9375 41.0368L31.78 40.6497L31.6313 40.2361L31.4737 39.7873L31.3337 39.3031L31.1936 38.7928L31.0625 38.2561L31.0013 37.9746L30.9401 37.6843L30.8876 37.3855L30.8352 37.0774L30.7917 36.7608L30.7479 36.4444L30.7042 36.11L30.6781 35.776L30.6431 35.4241L30.6169 35.0722L30.5995 34.7115L30.5908 34.3332V33.9725L30.5995 33.6206L30.6169 33.2596L30.6431 32.9164L30.6781 32.5648L30.7219 32.2304L30.7654 31.8962L30.8178 31.5706L30.879 31.2451L30.94 30.9285L31.0102 30.6207L31.0802 30.3217L31.1586 30.0315L31.2288 29.741L31.3074 29.4685L31.3949 29.1957L31.5612 28.6938L31.7275 28.2274L31.8938 27.8051L32.0513 27.4267L32.2089 27.1012L32.3401 26.8284L32.4627 26.6083L32.5589 26.4499L32.6464 26.6083L32.7426 26.8105L32.8652 27.0656L32.9964 27.3648L33.1365 27.7079L33.2852 28.095L33.4428 28.5263L33.5915 28.9928L33.7401 29.5033L33.8802 30.0486L33.9501 30.33L34.0201 30.629L34.0813 30.928L34.1423 31.236L34.1947 31.5527L34.2473 31.8867L34.291 32.2123L34.3347 32.5556L34.3697 32.9073L34.4048 33.2592L34.4222 33.62L34.4397 33.9895L34.4484 34.3503V34.7022L34.4397 35.0541L34.4222 35.3972L34.396 35.7405L34.37 36.0745L34.335 36.4001L34.2912 36.7257L34.2478 37.0423L34.1951 37.3502L34.1425 37.6581L34.0816 37.9486L34.0204 38.2389L33.9504 38.5293L33.8804 38.8021L33.8105 39.0749L33.653 39.5942L33.4951 40.0782L33.3288 40.5357L33.1626 40.9579L32.9966 41.3449L32.8304 41.6966L32.6728 42.0134L32.5325 42.295ZM38.1675 12.5376L38.0274 11.9393L37.87 11.35L37.7037 10.7607L37.5284 10.1891L37.3448 9.61728L37.1437 9.06291L36.9509 8.5176L36.7409 7.98091L36.5307 7.46163L36.3121 6.95113L36.0933 6.44954L35.8746 5.96563L35.6558 5.49899L35.4284 5.0414L35.2096 4.60164L34.9908 4.17942L34.5618 3.37871L34.1506 2.64847L33.7657 1.98854L33.4158 1.41691L33.1095 0.924227L32.8557 0.519556L32.6629 0.211526L32.5322 0L32.3569 0.264025L32.1381 0.607146L31.8756 1.02101L31.5868 1.49614L31.2631 2.04146L30.9218 2.64847L30.5628 3.29962L30.1779 4.01218L29.8016 4.76011L29.4078 5.55219L29.2154 5.96577L29.0227 6.38813L28.8301 6.81926L28.6463 7.25916L28.4626 7.69906L28.2789 8.14788L28.1039 8.60533L27.9376 9.07169L27.7713 9.53805L27.6139 10.0132L27.4563 10.4883L27.3162 10.9634L27.1675 11.5001L27.0274 12.028L26.8963 12.556L26.7735 13.0839L26.6509 13.603L26.546 14.1223L26.441 14.6326L26.3448 15.143L26.2573 15.6534L26.1785 16.1552L26.1086 16.6655L26.0386 17.1583L25.9861 17.66L25.9336 18.1527L25.8899 18.6454L25.8464 19.1382L25.8112 19.6222L25.7852 20.1148L25.7677 20.5991L25.7503 21.0832L25.7416 21.5583V22.0425V22.5176L25.7503 22.9927L25.7677 23.4679L25.7852 23.943L25.8112 24.4181L25.8464 24.8846L25.8813 25.3598L25.9163 25.8263L25.9688 26.3014L26.0123 26.7679L26.0735 27.243L26.1346 27.7095L26.2132 28.1761L26.2919 28.6426L26.3704 29.1L26.4665 29.5664L26.5627 30.0153L26.6677 30.4641L26.7726 30.9039L26.878 31.3352L26.9914 31.7574L27.0965 32.1711L27.3241 32.9718L27.5517 33.711L27.7705 34.3974L27.9807 35.0134L28.1644 35.5589L28.3395 36.0252L28.4706 36.3948L28.5842 36.6762L28.6454 36.8432L28.6714 36.9048L28.89 37.4151L29.1178 37.9167L29.3541 38.4271L29.5992 38.9373L29.8444 39.4392L30.1069 39.932L30.3607 40.4159L30.6232 40.8825L30.8857 41.34L31.1395 41.7798L31.3933 42.1935L31.647 42.5895L31.8834 42.9588L32.1197 43.3022L32.3475 43.6186L32.5575 43.9002L32.7151 43.6978L32.8814 43.4603L33.0565 43.205L33.2404 42.9322L33.4415 42.6332L33.6427 42.3077L33.8529 41.9645L34.0716 41.5951L34.2903 41.2081L34.518 40.8034L34.7455 40.3811L34.9818 39.9324L35.2182 39.4658L35.4544 38.9729L35.6907 38.4714L35.9271 37.9521L36.1633 37.4154L36.3996 36.8523L36.6272 36.2806L36.8548 35.6913L37.0736 35.0842L37.2924 34.4596L37.5024 33.826L37.7037 33.1748L37.9049 32.5061L38.0886 31.8196L38.2636 31.1246L38.4299 30.4205L38.5786 29.6989L38.7187 28.969L38.85 28.221L38.9636 27.464L39.0772 26.6196L39.1734 25.7926L39.2169 25.3791L39.252 24.9654L39.2869 24.5517L39.3131 24.1381L39.3393 23.7158L39.3566 23.3022L39.3741 22.8798V22.4577L39.3829 22.0354L39.3741 21.6042L39.3654 21.1643L39.3567 20.7244L39.3307 20.2845L39.3045 19.827L39.2696 19.3698L39.2344 18.9031L39.1824 18.4362L39.1299 17.952L39.0689 17.4592L38.9987 16.9576L38.9202 16.4473L38.8415 15.928L38.7453 15.3913L38.6493 14.8457L38.5444 14.2915L38.4216 13.7198L38.2991 13.1391L38.1675 12.5376Z" fill="#0070BA"/>
<path d="M35.0174 45.4011H23.8874V52.9151L23.9137 52.88L24.1675 52.6423L24.4213 52.4134L24.6925 52.2112L24.9638 52.0175L25.2526 51.8416L25.5413 51.6745L25.8301 51.5337L26.1361 51.4017L26.4424 51.2874L26.7487 51.1817L27.0638 51.0937L27.3788 51.0322L27.7025 50.9707L28.0175 50.9355L28.3412 50.9089H28.6651H28.9888L29.3037 50.9355L29.6274 50.9707L29.9426 51.0322L30.2575 51.0937L30.5725 51.1817L30.8875 51.2874L31.185 51.4017L31.4913 51.5337L31.7887 51.6745L32.0775 51.8416L32.3575 52.0175L32.6287 52.2112L32.9001 52.4134L33.1626 52.6423L33.4075 52.88L33.6527 53.1351L33.8713 53.3902L34.0812 53.663L34.2737 53.9446L34.4488 54.2262L34.6062 54.5165L34.7548 54.8155L34.8863 55.1148L35 55.4226L35.0962 55.7307L35.1837 56.0475L35.2538 56.3641L35.3063 56.6897L35.35 57.0064L35.3675 57.332L35.3763 57.6574L35.3675 57.9832L35.35 58.2999L35.3063 58.6255L35.2538 58.9509L35.1837 59.2679L35.0962 59.5758L35 59.8923L34.8863 60.2004L34.7548 60.4996L34.6062 60.7988L34.4488 61.0892L34.2737 61.3705L34.0812 61.6523L33.8713 61.916L33.6527 62.1802L33.4075 62.4264L33.3813 62.4615L33.3725 62.4706L33.3374 62.497L33.0925 62.7434L32.8387 62.9719L32.5851 63.2008L32.3224 63.4207L32.0512 63.6318L31.7887 63.8344L31.5175 64.0278L31.2375 64.2126L30.9576 64.3976L30.6775 64.5647L30.3887 64.7316L30.1 64.8902L29.8024 65.0398L29.5138 65.1806L29.2162 65.3123L28.91 65.4357L28.6124 65.5588L28.3062 65.6642L27.9999 65.77L27.6849 65.8668L27.3788 65.9547L27.0638 66.0339L26.7487 66.1044L26.4337 66.1747L26.1187 66.2275L25.8038 66.2805L25.4888 66.3243L25.1649 66.3595L24.85 66.386L24.5264 66.4036L24.2025 66.4123L23.8874 66.4212L23.5637 66.4123L23.24 66.4036L22.925 66.386L22.6012 66.3595L22.2775 66.3243L21.9625 66.2805L21.6388 66.2275L21.3238 66.1747L21.0087 66.1044L20.6937 66.0339L20.3787 65.9547L20.0637 65.8668L19.7575 65.77L19.4512 65.6642L19.145 65.55L18.8386 65.4357L18.5326 65.3037L18.2351 65.1715L17.9375 65.0221L17.6487 64.8727L17.36 64.7142L17.0712 64.5557L16.7825 64.3799L16.5024 64.1951L16.2312 64.0103L15.9513 63.8077L15.6887 63.6056L15.4175 63.3944L15.155 63.1743L14.9012 62.9457L14.6474 62.7081L14.4025 62.4706L13.9824 62.0305L13.58 61.5729L13.2125 61.0978L12.8625 60.614L12.5388 60.1213L12.2325 59.6198L11.9526 59.1092L11.6988 58.5813L11.4714 58.0534L11.27 57.5078L11.0863 56.9625L10.929 56.4081L10.7887 55.8539L10.6838 55.2909L10.5963 54.7275L10.5262 54.1643L10.4912 53.5926L10.4738 53.0207L10.4825 52.4487L10.5175 51.8855L10.57 51.3137L10.6488 50.7507L10.7537 50.1875L10.885 49.6244L11.0337 49.0789L11.2088 48.5243L11.41 47.9879L11.6287 47.4509L11.8738 46.923L12.145 46.4042L12.4426 45.9027L12.7575 45.4011L12.9413 45.1371L13.125 44.8732L13.3176 44.6178L13.5275 44.3627L13.7288 44.1164L13.9474 43.87L14.175 43.6324L14.4025 43.3949L14.6474 43.1485L14.9012 42.911L15.155 42.682L15.4175 42.4624L15.6887 42.2509L15.9513 42.0486L16.2312 41.8551L16.5024 41.6617L16.7825 41.4856L17.0712 41.3097L17.36 41.1423L17.6487 40.9841L17.9375 40.8346L18.2351 40.6936L18.5326 40.5618L18.8386 40.4297L19.145 40.3154L19.4512 40.201L19.7575 40.0954L20.0637 39.9986L20.3787 39.9106L20.6937 39.8314L21.0087 39.7524L21.3238 39.6906L21.6388 39.629L21.9625 39.5849L22.2775 39.5409L22.6012 39.5059L22.925 39.4796L23.24 39.4617L23.5637 39.4441H23.8874V21.3892L22.6538 21.4245L21.4462 21.5125L20.2475 21.6707L19.0749 21.882L17.9201 22.1459L16.7825 22.4714L15.6713 22.8497L14.5862 23.2811L13.5275 23.7562L12.5039 24.2927L11.4975 24.8648L10.5349 25.4893L9.59872 26.167L8.6888 26.8798L7.8225 27.6276L7.00008 28.4283L6.20384 29.2552L5.4512 30.1265L4.74246 31.0414L4.07746 31.983L3.45622 32.9507L2.87873 33.9625L2.35371 34.992L1.88117 36.0568L1.45252 37.1477L1.0762 38.2652L0.752635 39.4004L0.481265 40.5618L0.271231 41.7493L0.122532 42.9462L0.0350288 44.1693L0 45.4011L0.0350288 46.6416L0.122532 47.8557L0.271231 49.0613L0.481265 50.2402L0.752635 51.4017L1.0762 52.5454L1.45252 53.663L1.88117 54.7541L2.35371 55.8188L2.87873 56.8482L3.45622 57.8599L4.07746 58.8278L4.74246 59.7692L5.4512 60.6844L6.20384 61.5554L7.00008 62.3825L7.8225 63.1833L8.6888 63.9398L9.59 64.6527L10.5349 65.3212L11.4975 65.9461L12.5039 66.5267L13.5275 67.0547L14.5862 67.5298L15.6713 67.9609L16.7825 68.3391L17.9201 68.665L19.0749 68.9378L20.2475 69.1488L21.4462 69.2982L22.6538 69.3863L23.8874 69.4216L24.5264 69.4125L25.1649 69.3863L25.8038 69.3423L26.4337 69.2895L27.055 69.2103L27.6764 69.1223L28.2887 69.0167L28.9013 68.8936L29.505 68.7529L30.1 68.6033L30.6862 68.436L31.2725 68.2513L31.85 68.0488L32.4275 67.8378L32.9874 67.6178L33.5475 67.3715L34.0988 67.125L34.6413 66.8522L35.175 66.5707L35.7 66.2805L36.2163 65.9722L36.7325 65.6557L37.2312 65.3212L37.7212 64.9781L38.2024 64.6261L38.6837 64.2566L39.1475 63.8784L39.6025 63.4911L40.0487 63.0863L40.4775 62.6729L40.9063 62.2505L41.3175 61.8193V45.4011H35.0174Z" fill="#0070BA"/>
<path d="M44.1438 21.3892H53.2525V24.3721H48.9213V45.3922H44.1438V21.3892Z" fill="#0070BA"/>
<path d="M53.1212 45.3922H57.7938L58.2313 39.0128H60.4889L60.9263 45.3922H65.6078L63.1141 21.3894H55.6063L53.1212 45.3922ZM58.4063 36.3823L59.22 24.3629H59.4999L60.3138 36.3823H58.4063Z" fill="#0070BA"/>
<path d="M71.8812 36.9893V41.512V41.6264L71.8987 41.723L71.9249 41.8199L71.9599 41.8992L71.9949 41.9693L72.0474 42.031L72.0911 42.0927L72.1525 42.1366L72.205 42.1807L72.2662 42.2158L72.3362 42.2421L72.3974 42.2686L72.5199 42.2951L72.6249 42.3038L72.7037 42.2951L72.7824 42.2863L72.8612 42.2686L72.9311 42.2421L73.0012 42.207L73.0624 42.1632L73.1149 42.1189L73.1675 42.0663L73.22 42.0047L73.255 41.943L73.29 41.8813L73.3249 41.8111L73.3425 41.7407L73.3599 41.6704L73.3775 41.591V41.512V35.9334V35.7927L73.3687 35.6432L73.3512 35.5025L73.3249 35.3617L73.29 35.2297L73.2374 35.0976L73.2111 35.036L73.1761 34.9745L73.1325 34.9128L73.0887 34.86L73.0362 34.8072L72.9838 34.7545L72.9224 34.7018L72.8526 34.6575L72.7737 34.6048L72.6949 34.5697L72.6074 34.5258L72.5112 34.4904L72.4148 34.4641L72.3012 34.4379L72.1875 34.4115L72.0562 34.3939L71.9249 34.3762L71.7762 34.3672L71.6275 34.3587L71.4699 34.3496H69.5274V31.71H71.54H71.785L72.0038 31.7015L72.2137 31.6749L72.3974 31.6398L72.4849 31.6221L72.5637 31.5959L72.6425 31.5693L72.7211 31.5341L72.7912 31.499L72.8526 31.4639L72.9137 31.4196L72.9662 31.3759L73.0188 31.3231L73.0713 31.2702L73.1149 31.2088L73.1586 31.1383L73.1937 31.0679L73.2287 30.9974L73.255 30.9184L73.2812 30.8304L73.3249 30.6456L73.3512 30.4256L73.3687 30.1967L73.3775 29.9328V25.155V25.0759L73.3599 25.0056L73.3425 24.9353L73.3249 24.8559L73.29 24.7943L73.255 24.7239L73.22 24.6625L73.1675 24.6097L73.1149 24.5569L73.0624 24.5129L73.0012 24.4686L72.9311 24.4335L72.8612 24.4073L72.7824 24.3807L72.7124 24.3721H72.6249L72.5199 24.3807L72.3974 24.4073L72.3362 24.4249L72.2662 24.4511L72.2137 24.4863L72.1525 24.5304L72.0911 24.5831L72.0474 24.636L71.9949 24.6977L71.9599 24.7769L71.9249 24.8559L71.8987 24.9439L71.8812 25.0497V25.155V29.0707H67.1038V25.6741V25.3487L67.1212 25.0142L67.1472 24.6625L67.1911 24.3015L67.2174 24.117L67.2525 23.9407L67.2962 23.7562L67.34 23.58L67.4012 23.4043L67.4624 23.2369L67.5411 23.0698L67.6201 22.9027L67.7161 22.7442L67.8212 22.5945L67.9349 22.445L68.0574 22.3042L68.1973 22.1725L68.3462 22.0489L68.5124 21.9348L68.6874 21.8204L68.8713 21.7324L69.0812 21.6443L69.2999 21.5653L69.5361 21.5035L69.7899 21.4598L70.0611 21.4245L70.3412 21.3981L70.6475 21.3892H74.6113L74.9087 21.3981L75.1975 21.4245L75.4687 21.4598L75.7224 21.5035L75.9587 21.5653L76.1775 21.6443L76.3786 21.7324L76.5712 21.8204L76.7464 21.9348L76.9125 22.0489L77.0612 22.1725L77.2012 22.3042L77.3236 22.445L77.4374 22.5945L77.5425 22.7442L77.6387 22.9027L77.7173 23.0698L77.7874 23.2369L77.8575 23.4043L77.9099 23.58L77.9624 23.7562L78.0062 23.9407L78.0412 24.117L78.0676 24.3015L78.1113 24.6625L78.1374 25.0142L78.1549 25.3487V25.6741V29.5194L78.1461 29.7569L78.1374 29.9856L78.1113 30.2055L78.0762 30.4081L78.0325 30.6014L77.98 30.7952L77.9187 30.9711L77.8485 31.1383L77.77 31.2965L77.6912 31.4463L77.6037 31.5781L77.5075 31.71L77.4025 31.8332L77.2974 31.9475L77.1837 32.0532L77.0697 32.15L76.9474 32.2379L76.8249 32.3172L76.7023 32.3965L76.5712 32.4669L76.44 32.5197L76.3 32.5724L76.1599 32.6251L76.0286 32.6604L75.8887 32.6956L75.7485 32.722L75.6087 32.7482L75.4687 32.7659L75.3286 32.775H75.1888L75.0487 32.7837L74.9175 32.775V33.0124L75.2064 33.021L75.4774 33.0301L75.7312 33.0653L75.9762 33.1004L76.1949 33.153L76.4049 33.2149L76.5974 33.2938L76.7724 33.3731L76.9387 33.47L77.0874 33.5665L77.2274 33.681L77.3499 33.7956L77.4637 33.91L77.5601 34.0331L77.6562 34.1651L77.7349 34.297L77.8049 34.4379L77.8749 34.5697L77.9274 34.7107L77.9711 34.8514L78.015 34.9833L78.0499 35.124L78.0762 35.2648L78.1024 35.3968L78.1287 35.6521L78.1461 35.8807L78.1549 36.0919V36.2768V41.1074V41.4328L78.1374 41.7759L78.1113 42.1279L78.0676 42.4886L78.0412 42.6645L78.0062 42.8493L77.9624 43.0252L77.9099 43.2013L77.8575 43.3772L77.7874 43.5533L77.7173 43.7203L77.6387 43.8786L77.5425 44.0373L77.4374 44.1956L77.3236 44.3451L77.2012 44.4859L77.0612 44.6178L76.9125 44.741L76.7464 44.8555L76.5712 44.9609L76.3786 45.0578L76.1775 45.1459L75.9587 45.2162L75.7224 45.2779L75.4687 45.3306L75.1975 45.3659L74.9087 45.3922H74.6113H70.6475H70.3412L70.0611 45.3659L69.7899 45.3306L69.5361 45.2779L69.2999 45.2162L69.0812 45.1459L68.8713 45.0578L68.6874 44.9609L68.5124 44.8555L68.3462 44.741L68.1973 44.6178L68.0574 44.4859L67.9349 44.3451L67.8212 44.1956L67.7161 44.0373L67.6201 43.8786L67.5411 43.7203L67.4624 43.5533L67.4012 43.3772L67.34 43.2013L67.2962 43.0252L67.2525 42.8493L67.2174 42.6645L67.1911 42.4886L67.1472 42.1279L67.1212 41.7759L67.1038 41.4328V41.1074V36.9893H71.8812Z" fill="#0070BA"/>
<path d="M80.6663 21.3892H91.7175V45.3922H86.9401V24.3721H85.4349V45.3922H80.6663V21.3892Z" fill="#0070BA"/>
<path d="M94.5088 45.3922H99.2774V37.2359H102.008L102.314 37.2272L102.594 37.201L102.865 37.1657L103.119 37.1219L103.355 37.0606L103.574 36.9814L103.775 36.9023L103.968 36.8055L104.143 36.6916L104.309 36.5771L104.458 36.4539L104.597 36.322L104.72 36.1812L104.834 36.0317L104.939 35.8821L105.035 35.7236L105.114 35.5565L105.192 35.3897L105.253 35.2225L105.314 35.0464L105.358 34.8701L105.402 34.6855L105.437 34.5095L105.472 34.3248L105.507 33.9731L105.533 33.6123L105.55 33.2779V32.9525V25.6759V25.3503L105.533 25.0163L105.507 24.6644L105.472 24.3034L105.437 24.1188L105.402 23.9428L105.358 23.7666L105.314 23.5818L105.253 23.4147L105.192 23.2386L105.114 23.0716L105.035 22.9044L104.939 22.746L104.834 22.5965L104.72 22.447L104.597 22.3061L104.458 22.1742L104.309 22.0509L104.143 21.9365L103.968 21.831L103.775 21.7342L103.574 21.6462L103.355 21.5759L103.119 21.5054L102.865 21.4614L102.594 21.4263L102.314 21.4001L102.008 21.3914H94.5088V45.3922ZM99.2774 34.5962V24.3722H99.8899H99.9862L100.082 24.3898L100.161 24.4159L100.248 24.4512L100.327 24.4952L100.397 24.548L100.467 24.6092L100.528 24.6883L100.581 24.7674L100.633 24.8554L100.677 24.9522L100.712 25.0578L100.738 25.1721L100.764 25.2952L100.773 25.4272L100.781 25.568V33.39L100.773 33.5308L100.764 33.6627L100.738 33.7859L100.712 33.9002L100.677 34.0058L100.633 34.1026L100.581 34.1906L100.528 34.2787L100.467 34.3493L100.397 34.4106L100.327 34.4634L100.248 34.5162L100.161 34.5514L100.082 34.5777L99.9862 34.5865L99.8899 34.5953H99.2774V34.5962Z" fill="#0070BA"/>
<path d="M107.87 41.1073L107.879 41.4329L107.887 41.776L107.913 42.1279L107.957 42.4887L107.983 42.6649L108.018 42.8494L108.062 43.0255L108.114 43.2017L108.167 43.3777L108.237 43.5537L108.307 43.721L108.394 43.8793L108.482 44.038L108.587 44.1965L108.701 44.3459L108.832 44.4869L108.963 44.6183L109.112 44.7416L109.278 44.8557L109.453 44.9614L109.646 45.0581L109.847 45.1462L110.075 45.2167L110.311 45.2781L110.556 45.3309L110.827 45.3662L111.116 45.3924H111.422H115.377H115.684L115.963 45.3662L116.235 45.3309L116.488 45.2781L116.725 45.2167L116.943 45.1462L117.144 45.0581L117.337 44.9614L117.512 44.8557L117.679 44.7416L117.827 44.6183L117.967 44.4864L118.09 44.3455L118.204 44.1961L118.309 44.0376L118.405 43.8789L118.483 43.7205L118.562 43.5533L118.623 43.3773L118.676 43.2013L118.728 43.0251L118.772 42.849L118.807 42.6644L118.833 42.4883L118.876 42.1275L118.903 41.7756L118.92 41.4325V41.1069V25.683V25.3574L118.903 25.0143L118.876 24.6624L118.833 24.3015L118.807 24.1168L118.772 23.9408L118.728 23.7645L118.676 23.5798L118.623 23.4127L118.562 23.2366L118.483 23.0696L118.405 22.9024L118.309 22.744L118.204 22.5945L118.09 22.4449L117.967 22.3041L117.827 22.1721L117.679 22.0489L117.512 21.9346L117.337 21.829L117.144 21.7322L116.943 21.6442L116.725 21.5739L116.488 21.5123L116.235 21.4596L115.963 21.4245L115.684 21.3983L115.377 21.3895H111.422L111.116 21.3983L110.827 21.4245L110.556 21.4596L110.311 21.5123L110.074 21.5739L109.847 21.6442L109.646 21.7322L109.453 21.829L109.278 21.9346L109.112 22.0489L108.963 22.1721L108.832 22.3041L108.701 22.4449L108.587 22.5945L108.482 22.744L108.394 22.9024L108.307 23.0696L108.237 23.2366L108.167 23.4127L108.114 23.5798L108.062 23.7645L108.018 23.9408L107.983 24.1168L107.957 24.3015L107.913 24.6624L107.887 25.0143L107.879 25.3574L107.87 25.683V41.1073ZM114.144 41.512V41.5908L114.135 41.6699L114.117 41.7404L114.091 41.811L114.065 41.8814L114.03 41.9427L113.987 42.0042L113.943 42.0655L113.891 42.1183L113.829 42.1622L113.768 42.2059L113.707 42.2411L113.637 42.2673L113.559 42.285L113.48 42.2937L113.401 42.3025L113.288 42.2937L113.165 42.2676L113.104 42.2414L113.043 42.2152L112.982 42.1801L112.921 42.1363L112.868 42.0924L112.816 42.031L112.772 41.9696L112.729 41.8991L112.693 41.82L112.667 41.7234L112.659 41.6267L112.65 41.5124V25.1554L112.659 25.0498L112.667 24.9441L112.693 24.856L112.729 24.777L112.772 24.6979L112.816 24.6366L112.868 24.5839L112.921 24.5311L112.982 24.4872L113.043 24.461L113.104 24.426L113.165 24.4083L113.288 24.3821L113.401 24.3733H113.48L113.559 24.391L113.637 24.4084L113.707 24.4347L113.768 24.4698L113.829 24.5138L113.891 24.5575L113.943 24.6103L113.987 24.6631L114.03 24.7245L114.065 24.795L114.091 24.8652L114.117 24.9356L114.135 25.0058L114.144 25.0764V25.1554V41.512Z" fill="#0070BA"/>
<path d="M133.796 21.3892H140V45.3922H135.222V30.3462H135.056L132.597 45.3922H128.782L126.324 30.3462H126.157V45.3922H121.38V21.3892H127.584L130.69 38.2652L133.796 21.3892Z" fill="#0070BA"/>
<path d="M120.951 57.9655L120.33 62.3297H121.599L120.969 57.9655H120.951Z" fill="#0070BA"/>
<path d="M50.3213 61.7928H49.7262V64.327H50.2599L50.4174 64.3179L50.5662 64.3093L50.6975 64.2918L50.82 64.2565L50.9251 64.2213L51.0212 64.1685L51.0999 64.107L51.1787 64.0453L51.2399 63.9573L51.2837 63.8695L51.3276 63.7725L51.3624 63.6583L51.3887 63.5263L51.4062 63.3943L51.4151 63.2446V63.0776V62.9279L51.4062 62.7871L51.3887 62.6552L51.3624 62.532L51.3276 62.4177L51.2925 62.312L51.2399 62.2153L51.1787 62.1273L51.1088 62.048L51.03 61.9867L50.9424 61.9249L50.8463 61.8809L50.7325 61.8456L50.6012 61.8192L50.47 61.8018L50.3213 61.7928Z" fill="#0070BA"/>
<path d="M133.901 66.3507L133.621 66.3419L133.342 66.3157L133.201 66.298L133.061 66.2719L132.93 66.2457L132.79 66.2103L132.659 66.1664L132.519 66.1226L132.387 66.0698L132.265 66.0085L132.142 65.9473L132.02 65.8682L131.897 65.7889L131.784 65.7009L131.679 65.6128L131.573 65.5071L131.468 65.4015L131.372 65.2783L131.285 65.1549L131.206 65.014L131.127 64.8732L131.057 64.7236L130.996 64.5565L130.935 64.3804L130.891 64.2044L130.848 64.0108L130.822 63.8083L130.796 63.5969L130.778 63.3681V63.1389H132.966V63.3329L132.974 63.5176L132.992 63.676L133.018 63.8254L133.053 63.9572L133.088 64.0716L133.132 64.1772L133.184 64.2652L133.245 64.3359L133.306 64.4063L133.376 64.45L133.446 64.4939L133.534 64.5291L133.612 64.5468L133.709 64.5556L133.805 64.5643L133.91 64.5556L134.015 64.5468L134.111 64.5291L134.199 64.4939L134.277 64.45L134.347 64.4063L134.408 64.3359L134.47 64.2652L134.513 64.1772L134.557 64.0716L134.592 63.9572L134.618 63.8254L134.644 63.676L134.653 63.5176L134.661 63.3329L134.67 63.1389L134.661 62.972L134.653 62.8134L134.635 62.6726L134.609 62.5407L134.574 62.4264L134.539 62.3207L134.487 62.224L134.425 62.1359L134.364 62.0656L134.286 62.0043L134.198 61.9514L134.102 61.9075L133.997 61.8723L133.883 61.8547L133.761 61.8372H133.621H133.279V60.0512H133.839H133.909L133.97 60.0336L134.04 60.0074L134.102 59.9812L134.162 59.9373L134.224 59.8935L134.276 59.8322L134.329 59.7707L134.381 59.7002L134.425 59.6122L134.46 59.5242L134.495 59.4274L134.521 59.3218L134.538 59.2075L134.556 59.0843V58.9609V58.82L134.547 58.6967L134.529 58.5735L134.512 58.4503L134.486 58.3444L134.451 58.2479L134.416 58.1513L134.372 58.0722L134.32 57.9929L134.259 57.9317L134.198 57.8701L134.119 57.8265L134.04 57.7913L133.953 57.765L133.865 57.7474L133.76 57.7387L133.655 57.7474L133.55 57.765L133.462 57.7913L133.384 57.8265L133.305 57.8793L133.244 57.9406L133.183 58.0109L133.131 58.0901L133.087 58.1868L133.052 58.2925L133.026 58.4157L133 58.5476L132.982 58.6971L132.974 58.8556L132.965 59.0227V59.2074H130.777V59.0135L130.786 58.8289L130.804 58.6529L130.83 58.4768L130.865 58.3096L130.9 58.1425L130.952 57.984L131.005 57.8345L131.057 57.685L131.127 57.5441L131.197 57.4033L131.267 57.2715L131.355 57.1482L131.442 57.0339L131.53 56.9197L131.626 56.8139L131.731 56.7083L131.837 56.6115L131.95 56.5235L132.064 56.4444L132.187 56.3655L132.309 56.2949L132.44 56.2336L132.571 56.1722L132.711 56.1283L132.852 56.0846L133 56.0409L133.14 56.0144L133.289 55.9882L133.447 55.9707L133.604 55.9619H133.762H133.937L134.103 55.9707L134.269 55.9882L134.427 56.0144L134.584 56.0409L134.733 56.0846L134.873 56.1283L135.013 56.1722L135.153 56.225L135.276 56.2864L135.407 56.3477L135.521 56.4183L135.634 56.4972L135.74 56.5763L135.845 56.6553L135.941 56.7521L136.028 56.8402L136.116 56.9368L136.195 57.0335L136.273 57.1392L136.343 57.2449L136.404 57.3591L136.457 57.4735L136.509 57.5877L136.553 57.7019L136.597 57.8253L136.631 57.9487L136.658 58.0719L136.675 58.1951L136.693 58.327L136.701 58.4589V58.5821V58.8111L136.684 59.0224L136.658 59.216L136.632 59.4008L136.579 59.577L136.527 59.7354L136.457 59.8848L136.378 60.0344L136.29 60.1661L136.185 60.2895L136.072 60.4038L135.949 60.5095L135.809 60.6151L135.651 60.7032L135.485 60.8L135.301 60.879H135.328L135.511 60.9496L135.695 61.0285L135.861 61.1076L136.019 61.1956L136.176 61.2838L136.316 61.3895L136.377 61.4509L136.447 61.5123L136.509 61.5736L136.57 61.644L136.622 61.7146L136.675 61.785L136.727 61.873L136.771 61.9521L136.814 62.0487L136.849 62.1455L136.884 62.2423L136.919 62.3565L136.945 62.4706L136.971 62.585L136.997 62.7168L137.015 62.8487L137.032 62.9896L137.041 63.1391V63.2886L137.05 63.4556L137.041 63.6402L137.032 63.8073L137.015 63.9835L136.989 64.142L136.954 64.3004L136.919 64.45L136.875 64.5996L136.823 64.7403L136.762 64.8724L136.701 64.9955L136.622 65.1188L136.552 65.233L136.464 65.3472L136.377 65.4444L136.281 65.5502L136.176 65.6381L136.071 65.7263L135.966 65.8054L135.843 65.8845L135.72 65.9549L135.598 66.0162L135.467 66.0691L135.327 66.1219L135.186 66.1747L135.038 66.2099L134.889 66.2538L134.732 66.2799L134.574 66.3061L134.408 66.3237L134.241 66.3324L134.075 66.3412L133.901 66.3507ZM122.273 66.113L121.914 64.1247H120.103L119.796 66.113H117.425L119.578 56.1792H122.421L124.609 66.113H122.273ZM110.863 58.0623H107.713V66.113H105.333V56.1792H110.863V58.0623ZM97.0988 66.113H94.8238V63.7991L94.8326 63.5968L94.8413 63.3768L94.8589 63.1478L94.8763 62.9189L94.9375 62.4261L95.0076 61.9244L95.0775 61.4315L95.1475 60.939L95.2176 60.4817L95.2701 60.0678H95.2526L93.205 66.1124H90.8863V56.1786H93.1617V58.6423L93.153 58.8535L93.1442 59.0734L93.1355 59.3026L93.1095 59.5401L93.0658 60.0241L93.0048 60.526L92.9436 61.0276L92.8824 61.5202L92.83 61.987L92.8039 62.4181H92.8214L94.8252 56.1797H97.1003V66.1132L97.0988 66.113ZM82.6525 66.113H80.3776V63.7991V63.5968L80.395 63.3768L80.4126 63.1478L80.43 62.9189L80.4911 62.4261L80.5613 61.9244L80.6312 61.4315L80.7013 60.939L80.7713 60.4817L80.8148 60.0678H80.8061L78.7585 66.1124H76.4485V56.1786H78.7147V58.6423L78.706 58.8535L78.6973 59.0734L78.6886 59.3026L78.6625 59.5401L78.6189 60.0241L78.5579 60.526L78.4968 61.0276L78.4356 61.5202L78.3831 61.987L78.3571 62.4181H78.3746L80.3784 56.1797H82.6533V66.1132L82.6525 66.113ZM68.1974 66.113H65.8261V61.8898H64.2688V66.113H61.8889V56.1792H64.2688V60.0066H65.8264V56.1792H68.1977V66.113H68.1974ZM50.7413 66.113H47.425V56.1792H51.2225L51.4413 56.1879L51.6601 56.2143L51.7734 56.2317L51.8788 56.258L51.9838 56.2843L52.0888 56.3194L52.1939 56.3548L52.299 56.3983L52.404 56.4422L52.5 56.495L52.5961 56.5478L52.6924 56.6092L52.7883 56.6795L52.8761 56.75L52.9636 56.8291L53.0421 56.9172L53.1207 57.0052L53.1908 57.0935L53.2607 57.1899L53.3308 57.2958L53.3834 57.4099L53.4444 57.5242L53.4882 57.6476L53.5317 57.771L53.5666 57.9118L53.6017 58.0525L53.6278 58.1936L53.6452 58.3429L53.6539 58.5015L53.6626 58.6685L53.6539 58.792L53.6452 58.9152L53.6365 59.0294L53.6189 59.1436L53.6016 59.2494L53.5756 59.3551L53.5494 59.4518L53.5234 59.5483L53.4534 59.7331L53.3747 59.9002L53.2786 60.0494L53.1825 60.1815L53.0775 60.3048L52.9639 60.4105L52.8589 60.5072L52.7451 60.5861L52.6313 60.6477L52.5178 60.7005L52.4127 60.744L52.3077 60.7705L52.4827 60.8407L52.6406 60.9288L52.789 61.0168L52.9293 61.1136L53.0518 61.2192L53.1743 61.3336L53.2794 61.4654L53.3755 61.5972L53.463 61.7467L53.5418 61.9051L53.6027 62.0814L53.6553 62.275L53.6989 62.4775L53.7338 62.6887L53.7513 62.9261V63.1815V63.3485L53.7425 63.5157L53.7251 63.6741L53.7076 63.8327L53.6815 63.9912L53.6464 64.1406L53.6114 64.2814L53.5677 64.4224L53.5152 64.5542L53.4627 64.6775L53.4015 64.8008L53.3316 64.9242L53.2615 65.0297L53.1829 65.1439L53.0954 65.2407L53.0078 65.3373L52.9118 65.434L52.8066 65.5129L52.7016 65.6012L52.5878 65.6715L52.4653 65.7421L52.3342 65.8034L52.2031 65.865L52.0718 65.9087L51.923 65.9615L51.7743 65.9965L51.6167 66.0319L51.4506 66.0581L51.2846 66.0843L51.1093 66.102L50.9343 66.1107H50.7417L50.7413 66.113ZM139.991 52.8447H44.1437V69.3952H139.991V52.8447Z" fill="#0070BA"/>
<path d="M51.3624 58.8891V58.7839L51.345 58.6782L51.3363 58.5901L51.31 58.5023L51.2837 58.4143L51.2399 58.3438L51.1962 58.2733L51.1437 58.2118L51.0825 58.1501L51.0212 58.1062L50.9424 58.0622L50.855 58.027L50.7675 58.0008L50.6626 57.9744L50.5488 57.9655H50.4262H49.7262V60.0068H50.4262H50.5488L50.6626 59.9891L50.7675 59.9715L50.855 59.9452L50.9424 59.9099L51.0212 59.866L51.0825 59.8043L51.1437 59.7427L51.1962 59.6724L51.2399 59.5933L51.2837 59.4963L51.31 59.3996L51.3363 59.2853L51.345 59.1621L51.3624 59.0302V58.8891Z" fill="#0070BA"/>
</svg>
