<svg width="171" height="39" viewBox="0 0 171 39" fill="none" xmlns="http://www.w3.org/2000/svg">
<path d="M83.0711 20.1368L85.4205 12.9087H86.6336L88.289 17.803H88.3061L89.9394 12.9087H91.1525L93.4911 20.1368H91.7642L90.5136 15.9227H90.4915L88.9994 20.1368H87.5625L86.0713 15.9227H86.0551L84.7979 20.1368H83.0711Z" fill="#3C3C3C"/>
<path d="M93.9326 17.5134C93.9505 16.9895 94.1207 16.4826 94.4218 16.0559C94.7221 15.6292 95.1406 15.3015 95.6239 15.1136C96.1079 14.9258 96.6353 14.8861 97.1407 14.9996C97.6468 15.113 98.1079 15.3746 98.4678 15.7516C98.8276 16.1286 99.0701 16.6045 99.1645 17.1199C99.2589 17.6354 99.2019 18.1676 98.9995 18.6501C98.797 19.1328 98.4593 19.5446 98.0271 19.8341C97.5958 20.1237 97.0896 20.2782 96.5715 20.2786C96.2134 20.292 95.8561 20.2288 95.5243 20.0933C95.1917 19.9577 94.8914 19.7529 94.6421 19.492C94.3937 19.2312 94.2015 18.9202 94.079 18.5793C93.9565 18.2383 93.9063 17.8751 93.9326 17.5134ZM97.6536 17.5134C97.6536 16.706 97.2436 16.1363 96.5605 16.1363C95.8774 16.1363 95.4682 16.6894 95.4682 17.5134C95.4682 18.3375 95.8884 18.9181 96.5605 18.9181C97.2325 18.9181 97.6536 18.2987 97.6536 17.5134Z" fill="#3C3C3C"/>
<path d="M99.9693 17.5149C99.9693 15.9222 100.975 14.794 102.515 14.794C102.874 14.7759 103.232 14.8307 103.569 14.9551C103.906 15.0795 104.214 15.2711 104.477 15.5184L103.543 16.4696C103.421 16.3511 103.278 16.2594 103.119 16.2003C102.961 16.1413 102.793 16.1162 102.624 16.1268C101.953 16.1268 101.532 16.6798 101.532 17.5149C101.532 18.3499 101.942 18.9196 102.624 18.9196C102.792 18.9292 102.96 18.9049 103.117 18.8479C103.275 18.7909 103.42 18.7024 103.543 18.5877L104.493 19.539C104.23 19.7855 103.922 19.9763 103.585 20.0997C103.248 20.2233 102.89 20.277 102.532 20.258C100.991 20.258 99.9854 19.1519 99.9854 17.4928" fill="#3C3C3C"/>
<path d="M107.178 14.2912H104.96V12.9087H111.298L110.806 14.2912H108.758V20.1368H107.178V14.2912Z" fill="#3C3C3C"/>
<path d="M113.462 22.0428H111.969V14.9198H113.462V15.4341C113.638 15.2216 113.86 15.0532 114.111 14.9419C114.362 14.8306 114.635 14.7796 114.909 14.7926C116.254 14.7926 117.264 15.8986 117.264 17.5135C117.264 19.1283 116.254 20.2786 114.909 20.2786C114.635 20.2924 114.363 20.2422 114.111 20.1319C113.86 20.0216 113.638 19.8541 113.462 19.6427V22.0428ZM114.554 18.8961C114.831 18.9389 115.115 18.8949 115.367 18.7701C115.619 18.6452 115.827 18.4455 115.964 18.1975C116.1 17.9496 116.159 17.6653 116.132 17.3827C116.105 17.1001 115.993 16.8327 115.811 16.6163C115.63 16.3998 115.387 16.2447 115.116 16.1716C114.845 16.0986 114.558 16.1111 114.294 16.2075C114.031 16.3039 113.802 16.4795 113.639 16.7109C113.477 16.9424 113.388 17.2185 113.385 17.5024C113.365 17.6728 113.38 17.8454 113.429 18.0095C113.479 18.1737 113.56 18.3258 113.67 18.4566C113.78 18.5873 113.915 18.6938 114.066 18.7694C114.219 18.8451 114.385 18.8881 114.554 18.8961Z" fill="#3C3C3C"/>
<path d="M118.001 18.5031C118.001 17.6735 118.684 16.7998 120.279 16.7998C120.567 16.7985 120.856 16.8151 121.143 16.8495V16.7776C121.143 16.291 120.755 16.114 120.317 16.114C119.888 16.1206 119.47 16.2553 119.115 16.5012L118.236 15.5997C118.829 15.0766 119.591 14.7896 120.378 14.7923C121.727 14.7923 122.635 15.572 122.635 16.8219V20.1401H121.165V19.5871C121.014 19.8133 120.805 19.9933 120.56 20.1075C120.316 20.2216 120.044 20.2654 119.776 20.2341C119.546 20.2417 119.316 20.2017 119.102 20.1165C118.887 20.0313 118.692 19.9029 118.527 19.7388C118.363 19.5749 118.234 19.3788 118.147 19.1625C118.06 18.9462 118.018 18.7143 118.022 18.481L118.001 18.5031ZM121.165 18.1215V17.9446C120.95 17.8987 120.732 17.8746 120.514 17.8727C119.832 17.8727 119.542 18.1215 119.536 18.4699C119.53 18.8183 119.787 19.0672 120.247 19.0562C120.369 19.0617 120.491 19.0413 120.606 18.9962C120.72 18.9511 120.824 18.8824 120.909 18.7944C120.996 18.7063 121.063 18.601 121.108 18.4852C121.151 18.3693 121.171 18.2455 121.165 18.1215Z" fill="#3C3C3C"/>
<path d="M123.988 14.9189H125.48V16.8379H127.163V14.9189H128.655V20.134H127.163V18.1597H125.48V20.134H123.988V14.9189Z" fill="#3C3C3C"/>
<path d="M129.772 17.5147C129.772 15.922 130.783 14.7939 132.323 14.7939C132.682 14.7761 133.04 14.831 133.377 14.9555C133.713 15.0799 134.022 15.2712 134.285 15.5184L133.335 16.4695C133.213 16.3516 133.069 16.2602 132.911 16.2012C132.753 16.1422 132.585 16.1168 132.416 16.1267C131.744 16.1267 131.324 16.6797 131.324 17.5147C131.324 18.3498 131.733 18.9195 132.416 18.9195C132.584 18.9288 132.751 18.9043 132.909 18.8473C133.066 18.7903 133.211 18.702 133.335 18.5877L134.285 19.5388C134.022 19.7852 133.713 19.9758 133.377 20.0992C133.04 20.2227 132.682 20.2766 132.323 20.2578C130.783 20.2578 129.772 19.1518 129.772 17.4927" fill="#3C3C3C"/>
<path d="M135.344 12.9087H141.53V20.1368H139.956V14.3133H136.896V20.1368H135.344V12.9087Z" fill="#3C3C3C"/>
<path d="M144.632 22.0426H143.14V14.9195H144.632V15.4339C144.81 15.2219 145.034 15.0539 145.286 14.9428C145.537 14.8315 145.811 14.7802 146.085 14.7924C147.429 14.7924 148.441 15.8984 148.441 17.5133C148.441 19.1281 147.429 20.2784 146.085 20.2784C145.811 20.2914 145.538 20.2407 145.286 20.1305C145.034 20.0203 144.81 19.8534 144.632 19.6424V22.0426ZM145.725 18.8958C146.002 18.9387 146.286 18.8947 146.538 18.7699C146.79 18.645 146.998 18.4452 147.135 18.1973C147.271 17.9493 147.33 17.665 147.303 17.3825C147.275 17.0999 147.163 16.8325 146.982 16.616C146.801 16.3996 146.557 16.2444 146.287 16.1714C146.016 16.0984 145.729 16.1108 145.465 16.2072C145.201 16.3036 144.973 16.4793 144.81 16.7107C144.648 16.9421 144.559 17.2182 144.556 17.5022C144.536 17.6725 144.551 17.8451 144.6 18.0094C144.649 18.1735 144.731 18.3257 144.841 18.4563C144.95 18.5871 145.086 18.6935 145.238 18.7692C145.389 18.8448 145.555 18.8879 145.725 18.8958Z" fill="#3C3C3C"/>
<path d="M149.209 17.5134C149.227 16.9898 149.397 16.4831 149.698 16.0565C149.999 15.6298 150.416 15.3022 150.899 15.1141C151.383 14.9261 151.91 14.8861 152.415 14.9991C152.922 15.1122 153.383 15.3731 153.743 15.7496C154.103 16.1261 154.346 16.6015 154.441 17.1165C154.536 17.6316 154.479 18.1637 154.278 18.6463C154.077 19.1291 153.739 19.5412 153.309 19.8314C152.877 20.1217 152.371 20.2771 151.854 20.2786C151.495 20.2927 151.138 20.2301 150.804 20.095C150.472 19.9599 150.17 19.7551 149.921 19.4941C149.671 19.2332 149.479 18.922 149.356 18.5806C149.234 18.2393 149.184 17.8756 149.209 17.5134ZM152.935 17.5134C152.935 16.706 152.526 16.1363 151.843 16.1363C151.16 16.1363 150.75 16.6894 150.75 17.5134C150.75 18.3375 151.171 18.9181 151.843 18.9181C152.515 18.9181 152.935 18.2987 152.935 17.5134Z" fill="#3C3C3C"/>
<path d="M155.234 17.5188C155.209 17.1681 155.258 16.816 155.374 16.4848C155.491 16.1536 155.674 15.8504 155.913 15.5944C156.15 15.3384 156.438 15.1349 156.757 14.9969C157.077 14.8588 157.422 14.7892 157.769 14.7924C159.179 14.7924 160.261 15.6606 160.261 17.6571V18.0166H156.845C156.897 18.285 157.045 18.5246 157.261 18.6891C157.477 18.8534 157.746 18.9311 158.015 18.9069C158.222 18.9152 158.429 18.8745 158.619 18.7882C158.809 18.7018 158.976 18.5721 159.108 18.4092L160.069 19.3825C159.782 19.6696 159.44 19.8949 159.065 20.0451C158.689 20.1952 158.287 20.267 157.884 20.2563C157.531 20.2636 157.179 20.1972 156.853 20.0611C156.526 19.9249 156.231 19.722 155.986 19.4652C155.74 19.2082 155.549 18.9027 155.425 18.5678C155.302 18.2329 155.247 17.8758 155.266 17.5188H155.234ZM158.73 16.9326C158.734 16.8076 158.713 16.6832 158.667 16.5669C158.621 16.4508 158.552 16.3453 158.466 16.2572C158.377 16.1691 158.273 16.1 158.158 16.0545C158.043 16.009 157.92 15.9878 157.796 15.9925C157.552 16.0031 157.321 16.1052 157.147 16.2789C156.974 16.4527 156.87 16.6857 156.856 16.9326H158.73Z" fill="#3C3C3C"/>
<path d="M161.339 14.9189H162.831V16.8877H163.054L164.268 14.9189H165.972L164.317 17.5016L166.175 20.134H164.36L162.995 18.1486H162.831V20.134H161.339V14.9189Z" fill="#3C3C3C"/>
<path d="M167.875 16.2296H166.367V14.9189H171L170.519 16.2296H169.367V20.134H167.875V16.2296Z" fill="#3C3C3C"/>
<path d="M51.925 15.1312C53.3403 15.0482 54.7664 14.2242 54.7664 12.0951V8.51141H57.0448V12.0951C57.0739 12.7909 56.9625 13.4854 56.7176 14.1362C56.4727 14.7871 56.0991 15.3806 55.62 15.8805C55.1411 16.3804 54.5662 16.7763 53.9309 17.0439C53.2957 17.3116 52.6132 17.4455 51.925 17.4373V15.1312ZM66.2903 13.8869C65.6023 13.8787 64.9196 14.0126 64.2844 14.2803C63.6491 14.5479 63.0745 14.9438 62.5953 15.4437C62.1162 15.9436 61.7429 16.5371 61.4977 17.188C61.2528 17.8388 61.1414 18.5333 61.1704 19.2292V22.8239H63.4489V19.2292C63.4489 17.1 64.8752 16.276 66.2903 16.1931V13.8869ZM60.2797 8.51141H57.952V22.8239H60.2797V8.51141Z" fill="#3C3C3C"/>
<path d="M57.2771 36.9143L59.1021 38.7614L70.3309 27.4022C72.5401 25.1565 74.0427 22.2987 74.6485 19.1895C75.2545 16.0804 74.9368 12.8591 73.7352 9.93262C72.534 7.00609 70.5029 4.50537 67.8985 2.74613C65.2942 0.986895 62.233 0.0480214 59.1021 0.0480214C55.9709 0.0480214 52.91 0.986895 50.3056 2.74613C47.701 4.50537 45.6702 7.00609 44.4687 9.93262C43.2674 12.8591 42.9497 16.0804 43.5557 19.1895C44.1615 22.2987 45.6638 25.1565 47.8733 27.4022C48.0531 27.5873 48.2832 27.7142 48.5345 27.7668C48.7856 27.8194 49.0466 27.7953 49.2842 27.6975C49.5219 27.5998 49.7254 27.4328 49.8692 27.2178C50.0131 27.0027 50.0904 26.7493 50.0917 26.4896C50.0873 26.1335 49.9438 25.7936 49.6928 25.544C47.8401 23.6601 46.5808 21.2627 46.074 18.6546C45.5669 16.0466 45.8352 13.345 46.8449 10.8913C47.8546 8.43758 49.5601 6.34182 51.7462 4.8688C53.9323 3.39582 56.5005 2.61169 59.1267 2.61555C61.7528 2.61941 64.3192 3.41108 66.5007 4.89051C68.6826 6.36994 70.3822 8.47074 71.3847 10.9275C72.3874 13.3841 72.6479 16.0865 72.1336 18.693C71.619 21.2995 70.353 23.6932 68.4947 25.5716L57.2771 36.9143Z" fill="#3C3C3C"/>
<path d="M11.7533 16.241C11.7533 14.0447 13.5372 12.2319 15.776 12.2319C17.9797 12.2319 19.7987 14.0099 19.7987 16.241C19.7987 18.4373 18.0147 20.2502 15.776 20.2502C13.5722 20.2502 11.7533 18.4373 11.7533 16.241ZM22.3522 16.241C22.3522 12.6155 19.4139 9.68709 15.776 9.68709C12.1381 9.68709 9.19973 12.6155 9.19973 16.241C9.19973 19.8666 12.1381 22.795 15.776 22.795C19.4139 22.795 22.3522 19.8666 22.3522 16.241Z" fill="#3C3C3C"/>
<path d="M26.9347 16.2409C26.9347 10.1052 21.9325 5.12007 15.776 5.12007C9.61955 5.12007 4.61741 10.1052 4.61741 16.2409C4.61741 19.3087 5.8767 22.0977 7.87056 24.0847C8.11542 24.3288 8.43024 24.4682 8.78007 24.4682C9.47961 24.4682 10.0743 23.9104 10.0743 23.1784C10.0743 22.8298 9.9344 22.4811 9.68948 22.237C8.1504 20.7031 7.20594 18.5418 7.20594 16.206C7.20594 11.4649 11.0538 7.6301 15.811 7.6301C20.5683 7.6301 24.4161 11.4649 24.4161 16.206C24.4161 18.5766 23.4367 20.7031 21.8976 22.272L10.704 33.4277L12.5229 35.2404L23.6815 24.1196C25.7104 22.0628 26.9347 19.3087 26.9347 16.2409Z" fill="#3C3C3C"/>
<path d="M13.9571 36.6697L15.776 38.4825L26.9346 27.3616C29.768 24.503 31.552 20.5985 31.552 16.2409C31.552 7.56033 24.486 0.5183 15.776 0.5183C7.06597 0.5183 0 7.56033 0 16.2409C0 20.5637 1.78398 24.503 4.61736 27.3268C4.86222 27.5708 5.17704 27.7103 5.52685 27.7103C6.22644 27.7103 6.82111 27.1525 6.82111 26.4204C6.82111 26.0718 6.68118 25.7232 6.43632 25.4791C4.05768 23.1086 2.58852 19.8316 2.58852 16.2059C2.58852 8.95482 8.50015 3.02833 15.811 3.02833C23.0868 3.02833 29.0334 8.91989 29.0334 16.2059C29.0334 19.8316 27.5642 23.1434 25.1506 25.514L13.9571 36.6697Z" fill="#3C3C3C"/>
</svg>
