<svg width="116" height="22" viewBox="0 0 116 22" fill="none" xmlns="http://www.w3.org/2000/svg">
<path d="M0 3.05338V6.10673H19.389C40.4445 6.10673 39.889 6.08018 43.1955 7.64668C45.1529 8.54941 48.089 11.2045 49.3587 13.1958C50.5226 14.9747 51.5806 18.2139 51.5806 19.8866V21.2407H57.7968H64.0129V20.2318C64.0129 18.7715 64.7006 16.3554 65.6794 14.3375C66.8168 12.001 69.8852 8.92112 72.2129 7.77943C75.7045 6.08018 75.149 6.10673 96.3368 6.10673H115.594V3.05338V2.67029e-05H96.1781C74.911 2.67029e-05 74.5142 0.026577 70.9168 1.56653C64.7006 4.22161 60.0716 9.71764 58.3787 16.4616L57.7703 18.9042L57.2942 16.7005C56.6858 13.8065 56.051 12.2931 54.3052 9.66454C51.951 6.02707 48.3006 2.97372 44.4387 1.40722C41.0265 0.026577 40.3652 2.67029e-05 19.4155 2.67029e-05H0V3.05338Z" fill="#FFE695"/>
</svg>
