<svg width="90" height="90" viewBox="0 0 90 90"  xmlns="http://www.w3.org/2000/svg">
<path d="M40.2013 0.491547C37.8639 0.861641 36.2861 1.32912 34.5526 2.12774C29.7998 4.36777 27.2481 8.26346 26.469 14.4966C26.1573 16.8924 26.3132 23.4761 26.7612 26.6316C27.774 34.0724 30.8322 40.7146 35.2927 45.2336C36.1108 46.0711 36.7926 46.8503 36.7926 46.9477C36.7926 47.0645 36.0329 47.1425 34.9226 47.1425H33.0332L30.9685 49.1682L28.9038 51.194L24.9107 52.0121C19.2425 53.1613 14.1002 54.4858 12.6977 55.1676C10.224 56.3753 7.8281 59.1996 6.62044 62.3357C5.47121 65.3159 5.27642 66.582 4.55572 76.0485C3.91293 84.4827 3.89345 85.067 4.16615 86.0604C4.55572 87.3655 5.7439 88.7095 7.08792 89.3328L8.06184 89.8003H45.2462C73.4121 89.8003 82.6059 89.7419 83.1903 89.5666C84.0668 89.3133 85.742 87.8914 86.1705 87.0733C86.8522 85.7293 86.8522 85.1255 86.1705 75.9706C85.4693 66.6209 85.216 65.0042 84.0668 62.1604C82.8591 59.1607 80.3659 56.2389 78.0869 55.1676C76.7039 54.5248 69.9839 52.8107 64.939 51.8173L61.8224 51.194L59.7577 49.1682L57.693 47.1425H55.8036C54.7128 47.1425 53.9336 47.0645 53.9336 46.9477C53.9336 46.8503 54.6738 46.0127 55.5698 45.0972C61.2575 39.3706 64.4325 30.1378 64.452 19.2493C64.452 14.068 63.9456 11.1852 62.4652 8.18554C61.8224 6.88049 61.2965 6.17926 59.9719 4.85473C58.5695 3.4328 58.0046 3.02375 56.4658 2.28357C54.4985 1.32912 52.4533 0.744774 49.9795 0.413635C47.9343 0.12146 42.1492 0.179893 40.2013 0.491547ZM49.064 3.31593C56.5048 4.17298 60.2057 7.46484 61.238 14.1654L61.3744 14.9835L60.3226 14.6913C57.3618 13.8343 54.1284 11.7696 51.9663 9.33477C50.408 7.58171 50.0964 7.56223 48.1875 9.13998C43.9607 12.6461 38.4872 15.3147 33.2865 16.4444C31.397 16.8535 29.3908 17.1067 29.2934 16.9703C29.1765 16.7561 29.605 13.3863 29.8972 12.1786C31.2023 7.03632 34.9421 4.13403 41.2726 3.3354C43.0841 3.10166 47.1356 3.10166 49.064 3.31593ZM51.1092 12.7825C53.6414 15.1394 57.3424 17.1456 60.342 17.7495L61.5887 18.0222L61.4523 20.6518C61.1991 25.8525 60.7706 28.5211 59.6408 32.0467C58.1604 36.702 55.9204 40.5393 53.0766 43.3636C48.0317 48.3696 42.6751 48.3307 37.5717 43.2468C32.78 38.4745 30.0725 31.735 29.3908 22.8139C29.2934 21.3725 29.2155 20.1843 29.2544 20.1648C29.2739 20.1453 30.4816 19.9505 31.9424 19.7168C37.9028 18.7429 43.61 16.3665 48.1875 12.8993C49.0445 12.2565 49.7847 11.7111 49.8431 11.7111C49.9016 11.6917 50.4665 12.1786 51.1092 12.7825ZM42.5777 49.7721C44.8372 50.3564 48.1485 50.0642 50.0574 49.0903L50.8365 48.6813L50.7781 49.6941L50.7197 50.7265L48.0511 52.3237L45.3826 53.9404L42.6556 52.3432L39.9286 50.746V49.7136L39.9091 48.7007L40.6883 49.0903C41.1168 49.3046 41.9544 49.6162 42.5777 49.7721ZM38.5067 53.3561L43.0452 56.0441L39.9091 59.6282C38.1755 61.5955 36.6952 63.2317 36.6367 63.2512C36.5588 63.2901 35.3706 60.9916 33.9877 58.1478L31.475 52.9665L32.6047 51.8173C33.2475 51.1745 33.8124 50.6486 33.8708 50.6486C33.9292 50.6486 36.0134 51.8563 38.5067 53.3561ZM58.1215 51.8173L59.2707 52.9665L56.7385 58.1283C55.3556 60.9722 54.1674 63.2901 54.0895 63.2512C54.031 63.2317 52.5507 61.5955 50.8365 59.6282L47.681 56.0441L52.1221 53.3756C54.5569 51.8952 56.6606 50.6681 56.758 50.6681C56.8749 50.6486 57.4787 51.1745 58.1215 51.8173ZM31.9035 60.719C33.6371 64.2446 35.1953 67.2248 35.3706 67.3416C36.0134 67.8286 36.8315 67.6338 37.6691 66.8157L38.4872 66.0171L39.7923 67.478L41.0973 68.9389L39.9481 77.86L38.8183 86.7811L29.4492 86.8396L20.0606 86.8785L20.0021 82.2816C19.9437 77.7236 19.9437 77.6847 19.4762 77.3146C18.8919 76.8471 18.0738 76.8471 17.4894 77.3146C17.0219 77.6847 17.0219 77.7236 16.9635 82.2816L16.9051 86.8785H12.8146C9.56168 86.8785 8.60724 86.8201 8.15923 86.5863C7.24375 86.1189 6.99053 85.5735 6.99053 84.0541C6.99053 82.2232 8.1008 68.3545 8.35402 67.03C9.17211 62.6863 11.2368 59.2581 13.8275 57.9335C15.1325 57.2907 26.7222 54.4274 28.3389 54.369C28.709 54.3495 29.2155 55.265 31.9035 60.719ZM65.835 55.0507C70.7435 56.0636 75.8274 57.4076 76.8792 57.9335C78.6128 58.8101 80.3464 60.9137 81.3009 63.2706C82.2748 65.647 82.528 67.4001 83.1513 75.5615C83.8331 84.6385 83.8331 84.9502 83.4435 85.7098C82.8981 86.7811 82.4111 86.8785 77.9116 86.8785H73.8211L73.7627 82.2816C73.7043 77.7236 73.7043 77.6847 73.2368 77.3146C72.6524 76.8471 71.8343 76.8471 71.25 77.3146C70.7825 77.6847 70.7825 77.7236 70.7241 82.2816L70.6656 86.8785L61.277 86.8396L51.8884 86.7811L50.7586 77.86L49.6289 68.9389L50.9339 67.478L52.239 66.0171L53.0571 66.8157C53.9531 67.6922 54.8102 67.8481 55.414 67.2637C55.6088 67.0689 57.1476 64.0887 58.8617 60.641C60.6342 57.057 62.0756 54.3495 62.2314 54.3495C62.3678 54.3495 64.004 54.6611 65.835 55.0507ZM47.8563 60.7774C49.1809 62.2772 50.2327 63.5823 50.1938 63.6797C50.0964 63.9524 45.5189 69.1531 45.3826 69.1531C45.2267 69.1531 40.6298 63.9524 40.5324 63.6797C40.4545 63.5044 45.1488 58.0504 45.3631 58.0504C45.4215 58.0504 46.5513 59.2775 47.8563 60.7774ZM44.4476 72.5813C45.1488 73.1657 46.0254 73.1073 46.5902 72.445C46.785 72.2112 46.9603 72.0554 46.9798 72.0944C47.0188 72.1333 47.4278 75.1525 47.8758 78.795C48.3238 82.4374 48.7524 85.7488 48.8108 86.1578L48.9277 86.8785H45.3631H41.7985L41.8959 86.2357C41.9544 85.9046 42.3829 82.5738 42.8504 78.8339C43.3179 75.1135 43.7269 72.0749 43.7659 72.0749C43.8048 72.0749 44.1165 72.3086 44.4476 72.5813Z" />
<path d="M55.8815 77.334C55.2972 77.9184 55.3556 78.9507 55.9984 79.4572C56.4853 79.8467 56.758 79.8662 61.1407 79.8662C65.5233 79.8662 65.796 79.8467 66.283 79.4572C66.9453 78.9312 66.9842 77.9573 66.3414 77.373C65.8934 76.9639 65.7571 76.9444 61.0823 76.9444C56.5243 76.9444 56.2516 76.9639 55.8815 77.334Z" />
</svg>
