<svg width="90" height="90" viewBox="0 0 90 90" fill="none" xmlns="http://www.w3.org/2000/svg">
<path d="M40.6933 0.105583C34.6816 0.703239 30.2168 1.95129 25.0488 4.46496C16.5058 8.64855 9.4746 15.6798 5.36131 24.17C3.4453 28.1427 2.28514 31.7286 1.56444 35.9474C1.08983 38.6193 0.914049 44.631 1.21288 47.4962C2.21483 57.129 6.67967 66.463 13.6055 73.4064C19.9687 79.7521 28.0195 83.9005 37.0898 85.465C40.0781 85.9923 47.3906 86.045 50.3613 85.5528C52.8398 85.1485 55.5117 84.4982 57.7969 83.7247L59.6074 83.1095L59.9766 83.6193C60.8203 84.7443 62.9824 86.6778 64.3535 87.5216C68.5723 90.1232 73.4062 90.6681 78.1348 89.1036C87.416 86.0099 91.9336 75.2521 87.6094 66.5685C86.7129 64.7931 85.6758 63.3341 84.3398 62.0157L83.1445 60.838L83.9355 58.8868C89.1211 45.9845 87.5918 30.9376 79.9277 19.4591C78.0293 16.629 76.6406 14.9239 74.3555 12.6564C67.7461 6.02941 59.3437 1.79308 50.0976 0.439568C48.3398 0.175896 42.1875 -0.0350418 40.6933 0.105583ZM48.7793 3.7091C64.5117 5.51965 77.9414 17.1564 82.1953 32.6603C83.7598 38.4083 83.9707 44.9298 82.7754 50.9591C82.3711 52.9278 81.2637 56.6193 80.5957 58.131L80.1738 59.045L79.2246 58.6232C78.1348 58.1134 75.7793 57.4806 74.9883 57.4806C74.0742 57.4806 73.9863 57.3048 74.373 56.4259C76.2363 52.3302 77.1504 47.8829 77.168 43.0138C77.168 33.7501 73.6699 25.5763 66.9023 19.0372C60.6269 12.9728 52.7695 9.80871 43.9453 9.80871C38.3906 9.80871 33.9258 10.881 28.8457 13.4122C26.4902 14.59 26.0156 15.0294 26.0156 15.9786C26.0156 16.5236 26.1211 16.8224 26.4375 17.1388C27.2461 17.9474 27.5273 17.8946 30.375 16.4708C33.1699 15.0821 35.3672 14.3087 38.3203 13.6759C39.8848 13.3419 40.7109 13.2892 43.8574 13.2892C47.0215 13.2716 47.8301 13.3419 49.5351 13.6759C55.8808 14.9591 61.1543 17.8243 65.4961 22.3595C72.457 29.6544 75.2519 39.5685 73.125 49.4298C72.4043 52.7872 70.4004 57.6564 69.7324 57.6564C69.1172 57.6564 66.2519 58.7111 65.0742 59.3614C62.7012 60.6974 60.5566 62.7013 59.0976 64.9864C58.4297 66.0411 57.375 68.4318 57.2168 69.2931C57.1113 69.8204 56.9883 69.9259 55.7578 70.4532C49.043 73.2833 41.4844 73.6173 34.5937 71.3497C32.3262 70.6114 28.7051 68.7833 26.7187 67.3771C24.5742 65.8653 21.164 62.4376 19.6523 60.2931C17.3848 57.0763 15.7148 53.3321 14.8711 49.5704C14.3437 47.1622 13.9922 43.6114 14.1504 42.0118C14.3965 39.4103 14.3437 38.6896 13.8691 38.215C13.623 37.9864 13.1484 37.7403 12.7969 37.6876C12.2871 37.5997 12.0762 37.67 11.6191 38.0743C11.1269 38.5138 11.0215 38.7599 10.8984 39.8146C10.6699 41.5021 10.6875 44.4903 10.916 46.547C11.3555 50.59 12.4277 54.1759 14.3262 57.9552C17.6308 64.4943 22.5 69.381 29.0039 72.6505C33.1348 74.7247 36.7558 75.7443 41.4492 76.1485C45.6504 76.5001 50.2207 75.9552 54.3164 74.6017C55.3359 74.2501 56.25 73.9513 56.3379 73.8985C56.4609 73.8634 56.6016 74.5138 56.7422 75.586C56.8476 76.5528 57.1465 77.9415 57.3926 78.6798C57.6387 79.4181 57.8144 80.0509 57.7793 80.086C57.6035 80.2618 54.2812 81.2462 52.5586 81.6153C49.0605 82.3888 47.8828 82.5118 43.9453 82.5118C39.6738 82.5118 37.8281 82.2833 33.9258 81.2814C18.7734 77.3439 7.24217 64.5294 4.83397 48.9552C4.23631 45.088 4.30663 39.6212 5.02733 35.8771C7.3828 23.4669 15.2578 13.0607 26.4551 7.55871C33.5742 4.06066 40.8691 2.81261 48.7793 3.7091ZM76.2539 61.1896C78.4336 61.7345 80.209 62.7892 82.0019 64.5997C83.8301 66.4103 84.8496 68.1681 85.4297 70.4181C85.9043 72.2638 85.9043 75.0411 85.4297 76.8868C84.3574 81.088 80.789 84.797 76.6406 86.0275C69.2402 88.2423 61.541 83.4786 60.2051 75.8497C59.8711 73.9337 59.8711 73.3712 60.2051 71.4552C61.0137 66.8673 64.1426 63.1232 68.5371 61.5236C71.0332 60.6095 73.5293 60.504 76.2539 61.1896Z" fill="#398291"/>
<path d="M18.5098 21.6738C17.4902 22.7988 15.5566 25.5762 15.1875 26.4551C15.0469 26.7891 14.9766 27.2637 15.0469 27.5098C15.1875 28.1074 16.084 28.8281 16.6816 28.8281C17.3848 28.8281 17.8418 28.4238 18.8437 26.9297C19.3359 26.1914 20.1094 25.1016 20.5664 24.5215C21.6914 23.0625 21.8496 22.7461 21.7266 22.043C21.5684 21.2871 20.8828 20.7422 20.0391 20.7422C19.459 20.7422 19.2656 20.8652 18.5098 21.6738Z" fill="#398291"/>
<path d="M42.9082 23.8354L42.3632 24.2924V33.2748V42.2572L36.0351 48.6029C29.25 55.4057 29.373 55.265 29.9707 56.4076C30.2695 57.0053 31.0781 57.3744 31.7636 57.2338C32.1152 57.1459 34.2246 55.1596 38.9355 50.4486L45.6152 43.769L45.6679 34.3295C45.7031 27.4389 45.6504 24.7494 45.5097 24.3803C45.0703 23.308 43.8398 23.0443 42.9082 23.8354Z" fill="#398291"/>
<path d="M72.0527 63.7212C71.2265 64.1782 71.1738 64.5474 71.2265 70.5591L71.2793 76.1489L71.7714 76.5708C72.4394 77.1509 73.5117 77.1509 74.0918 76.5708C74.6718 75.9731 74.7422 75.2876 74.6718 69.5571L74.6191 64.4771L74.039 63.9673C73.4062 63.4048 72.7734 63.3169 72.0527 63.7212Z" fill="#398291"/>
<path d="M71.7714 79.3652C71.2089 79.9277 71.1562 80.0684 71.2441 80.6484C71.3847 81.5273 72.0527 82.0898 72.9667 82.0898C74.5136 82.0898 75.1464 80.3145 73.9863 79.2246C73.248 78.5391 72.5449 78.5918 71.7714 79.3652Z" fill="#398291"/>
</svg>
