<svg width="124" height="124" viewBox="0 0 124 124" fill="none" xmlns="http://www.w3.org/2000/svg">
<g opacity="0.2">
<path d="M2.00043 28.1541V115.846C2.00043 117.898 2.92856 122 6.64107 122C10.3536 122 61.1812 122 86.131 122C87.4782 122 90.1727 121.077 90.1727 117.385C90.1727 113.693 90.1727 100.462 90.1727 94.3079" stroke="#398291" stroke-width="3" stroke-linecap="round" stroke-linejoin="round"/>
<path d="M36.0317 37.3848H77.7975" stroke="#398291" stroke-width="3" stroke-linecap="round" stroke-linejoin="round"/>
<path d="M34.4848 46.6155L53.0474 46.6155" stroke="#398291" stroke-width="3" stroke-linecap="round" stroke-linejoin="round"/>
<path d="M37.5786 62L46.8598 62" stroke="#398291" stroke-width="3" stroke-linecap="round" stroke-linejoin="round"/>
<path d="M37.5786 71.2307L46.8598 71.2307" stroke="#398291" stroke-width="3" stroke-linecap="round" stroke-linejoin="round"/>
<path d="M34.4848 95.8459L74.7037 95.8459" stroke="#398291" stroke-width="3" stroke-linecap="round" stroke-linejoin="round"/>
<mask id="path-7-inside-1_660_4647" fill="white">
<rect x="12.8286" y="34.3079" width="15.4688" height="15.3846" rx="1"/>
</mask>
<rect x="12.8286" y="34.3079" width="15.4688" height="15.3846" rx="1" stroke="#398291" stroke-width="6" mask="url(#path-7-inside-1_660_4647)"/>
<mask id="path-8-inside-2_660_4647" fill="white">
<rect x="12.8286" y="60.4612" width="15.4688" height="15.3846" rx="1"/>
</mask>
<rect x="12.8286" y="60.4612" width="15.4688" height="15.3846" rx="1" stroke="#398291" stroke-width="6" mask="url(#path-8-inside-2_660_4647)"/>
<mask id="path-9-inside-3_660_4647" fill="white">
<rect x="12.8286" y="86.6152" width="15.4688" height="15.3846" rx="1"/>
</mask>
<rect x="12.8286" y="86.6152" width="15.4688" height="15.3846" rx="1" stroke="#398291" stroke-width="6" mask="url(#path-9-inside-3_660_4647)"/>
<path d="M105.641 66.6155C105.641 74.1443 102.72 81.3827 97.4874 86.8228C92.2542 92.2628 85.1124 95.4849 77.5499 95.8177C69.9873 96.1506 62.5872 93.5685 56.8914 88.6094C51.1956 83.6504 47.6433 76.6968 46.9747 69.1975C46.306 61.6982 48.5726 54.2314 53.3021 48.3529C58.0316 42.4744 64.8593 38.6375 72.3628 37.6416C79.8662 36.6457 87.4667 38.5676 93.5807 43.0069C99.6946 47.4462 104.309 52.7877 105.641 60.199" stroke="#398291" stroke-width="3" stroke-linecap="round"/>
<path d="M54.5623 68.1617C54.5942 68.1543 53.0474 62.0005 56.832 55.6808C59.6986 50.8776 64.3349 47.3339 69.7748 45.788C75.2147 44.2421 81.0387 44.8132 86.0335 47.3824C91.0282 49.9516 94.8085 54.3206 96.5867 59.5793C98.365 64.838 98.004 70.5808 95.579 75.6111C93.1539 80.6415 88.852 84.5715 83.5693 86.5824C78.2866 88.5932 72.4307 88.5299 67.2215 86.4055C62.0123 84.2811 58.6047 82.204 56.3594 77.1231" stroke="#398291" stroke-width="3" stroke-linecap="round"/>
<path d="M68.5161 66.6154L74.7036 71.2308L83.9849 62" stroke="#398291" stroke-width="3" stroke-linecap="round" stroke-linejoin="round"/>
<path d="M2.00043 20.4615V5.07692C2.00043 4.05128 2.61918 2 5.09419 2C7.5692 2 47.3756 2 66.9695 2M66.9695 2L88.6258 23.5385M66.9695 2C66.9695 7.12821 66.9695 18 66.9695 20.4615C66.9695 22.9231 68.0007 23.5385 68.5163 23.5385H88.6258M88.6258 23.5385V38.9231" stroke="#398291" stroke-width="3" stroke-linecap="round" stroke-linejoin="round"/>
<path d="M101.588 97.9848L99.4536 100.462C104.094 106.616 114.613 117.385 119.563 111.231C125.751 103.539 118.016 100.462 119.563 100.462C120.801 100.462 112.86 93.2823 108.735 89.6925L107.409 91.231M101.588 97.9848L94.8129 91.231M101.588 97.9848L107.409 91.231M107.409 91.231L101 85.0771" stroke="#398291" stroke-width="3" stroke-linecap="round" stroke-linejoin="round"/>
</g>
</svg>
