<svg width="120" height="120" viewBox="0 0 120 120" xmlns="http://www.w3.org/2000/svg">
<path d="M28.625 0.625L28 1.225V18.775L28.625 19.375C29 19.775 29.525 20 30 20C30.475 20 31 19.775 31.375 19.375L32 18.775V4H93.125L113.125 24H96V11.225L95.375 10.625C95 10.225 94.475 10 94 10C93.525 10 93 10.225 92.625 10.625L92 11.225V26.775L92.625 27.375L93.225 28H116V116H61.225L60.625 116.625C60.225 117 60 117.525 60 118C60 118.475 60.225 119 60.625 119.375L61.225 120H118.775L119.375 119.375L120 118.775V25.2L94.875 0H29.225L28.625 0.625Z" />
<path d="M48.625 16.625C48.225 17 48 17.525 48 18C48 18.475 48.225 19 48.625 19.375L49.225 20H82.775L83.375 19.375C84.2 18.575 84.2 17.425 83.375 16.625L82.775 16H49.225L48.625 16.625Z" />
<path d="M26.85 24.25C23.25 24.9 20.175 26.575 17.375 29.375C14.05 32.7 12.375 36.325 12.075 40.85C11.775 45.65 13 49.2 16.675 54.125C22.025 61.325 24 65.45 24 69.425C24 70.525 24.125 70.875 24.625 71.375C25.425 72.2 26.575 72.2 27.375 71.375C27.9 70.875 28 70.525 28 69.325C27.975 65.2 25.925 60.05 22.3 55.05C21.375 53.8 19.975 51.85 19.15 50.75C16.55 47.175 15.625 43.825 16.2 39.95C17.075 33.975 21.95 29.075 27.95 28.2C38.575 26.65 46.975 37.25 42.95 47.175C42.6 48.025 41.65 49.625 40.85 50.75C40.025 51.85 38.625 53.8 37.675 55.075C35.8 57.65 33.25 62.575 32.6 64.875C32.325 65.925 32.15 67.8 32.075 71.175L31.95 76H28.575C24.35 76 23.5 76.25 21.875 77.875C19.975 79.75 19.425 82.2 20.625 83.375C21.85 84.625 24 83.75 24 82C24 81.525 24.225 81 24.625 80.625C25.225 80 25.275 80 30 80C34.725 80 34.775 80 35.375 80.625C35.775 81 36 81.525 36 82C36 83.025 36.975 84 38 84C39.675 84 40.375 82.425 39.7 80.2C39.35 79 37.45 76.8 36.6 76.6L36 76.45V72.275C36 65.05 37.025 62.575 43.6 53.75C46.975 49.225 48.225 45.525 47.925 40.85C47.625 36.35 45.95 32.7 42.625 29.375C39.15 25.875 35.525 24.3 30.75 24.125C29.3 24.075 27.55 24.125 26.85 24.25Z" />
<path d="M48.625 24.625C48.225 25 48 25.525 48 26C48 26.475 48.225 27 48.625 27.375L49.225 28H74.775L75.375 27.375C75.775 27 76 26.475 76 26C76 25.525 75.775 25 75.375 24.625L74.775 24H49.225L48.625 24.625Z" />
<path d="M75.825 44.35C70.7 45.325 66.675 47.475 63 51.225C59.775 54.475 57.7 58.175 56.575 62.65C55.975 65.025 55.975 70.975 56.575 73.35C57.7 77.825 59.775 81.525 63 84.775C67.425 89.275 72.625 91.6 78.875 91.925C85.825 92.275 91.975 89.85 97 84.75C100.275 81.45 102.325 77.825 103.375 73.475C104.175 70.125 104.1 64.35 103.225 62.4C102.8 61.5 101.7 61.1 100.75 61.5C99.55 62 99.4 62.525 99.75 65.05C100.875 72.85 97.45 80.425 90.8 84.775C83.075 89.85 72.65 88.75 66.025 82.225C62 78.25 60.125 73.725 60.125 68C60.125 63.65 61.025 60.575 63.25 57.175C68.925 48.45 80 45.575 89.425 50.35C91.05 51.15 91.6 51.175 92.4 50.375C92.9 49.875 93 49.525 92.95 48.825C92.9 48.075 92.7 47.775 91.875 47.2C90.675 46.375 87.6 45.15 85.45 44.625C83.2 44.075 78.05 43.925 75.825 44.35Z" />
<path d="M100.825 48.6C100.45 48.925 95.675 54.05 90.25 59.975C84.825 65.9 80.3 70.75 80.2 70.75C80.1 70.75 78.05 68.4 75.625 65.5C71 59.975 70.525 59.575 69.275 60.275C68.275 60.85 67.875 61.85 68.325 62.725C68.9 63.85 78.725 75.5 79.375 75.8C79.7 75.95 80.25 76 80.6 75.9C81.025 75.8 85.125 71.5 92.625 63.3C103.325 51.625 104 50.825 104 49.95C104 49.25 103.85 48.9 103.35 48.525C102.475 47.85 101.7 47.875 100.825 48.6Z" />
<path d="M11.125 88.3C7.275 89.025 3.275 92.15 1.5 95.85C0.2 98.55 0 99.95 0 105.8C0 110.75 0 110.775 0.625 111.375C1.125 111.9 1.475 112 2.625 112H4V115.375C4 118.65 4.025 118.8 4.625 119.375L5.225 120H54.775L55.375 119.375C55.975 118.8 56 118.65 56 115.375V112H57.375C58.525 112 58.875 111.9 59.375 111.375C60 110.775 60 110.75 60 105.8C60 99.95 59.8 98.55 58.5 95.85C56.675 92.05 52.7 89 48.65 88.275C47.725 88.1 42.875 88 36.2 88H25.225L24.625 88.625C23.875 89.35 23.825 90.475 24.475 91.275L24.95 91.875L48.375 92.125L50.05 92.925C52.375 94.025 53.825 95.425 54.95 97.7L55.875 99.6L55.975 103.8L56.05 108H3.95L4.05 103.8C4.125 99.725 4.15 99.6 4.925 97.95C6 95.65 7.45 94.175 9.65 93.1C11.3 92.275 11.725 92.175 14.25 92.025C16.775 91.875 17.1 91.825 17.525 91.275C18.2 90.475 18.125 89.35 17.375 88.625C16.825 88.05 16.6 88 14.575 88.025C13.375 88.05 11.825 88.15 11.125 88.3ZM52 116H8V112H52V116Z" />
</svg>
