<svg width="120" height="120" viewBox="0 0 120 120" xmlns="http://www.w3.org/2000/svg">
<g clip-path="url(#clip0_932_3987)">
<path d="M35.7422 4.10153C29.25 5.15622 22.5703 7.92185 16.1719 12.2109C13.0313 14.3203 11.3203 15.9375 9.96094 18.0468C7.875 21.3281 7.26563 23.8125 7.26563 29.1797V32.8125H4.125C-0.445309 32.8125 3.77186e-06 31.4531 3.77186e-06 45.5156V56.9765L0.585941 57.539C1.125 58.1015 1.26563 58.125 4.19532 58.125H7.24219L7.33594 77.2734C7.40625 96.2578 7.40625 96.4687 7.92188 98.4375C8.53125 100.734 10.0781 104.109 11.4375 106.102C14.9531 111.281 20.8594 115.055 26.9531 116.016C28.2188 116.203 32.7656 116.25 42.8906 116.203L57.0703 116.133L59.0859 115.5C61.9453 114.609 63.5391 113.859 65.7422 112.383C70.5234 109.219 74.2031 104.039 75.5625 98.625C76.3125 95.625 76.4062 93.1172 76.4062 75.6328V58.125H79.4531C82.1719 58.125 82.5469 58.0781 82.9688 57.6562C83.2266 57.3984 83.4844 56.9531 83.5547 56.6718C83.625 56.3672 83.6484 51.0937 83.625 44.9297L83.5547 33.7031L82.9922 33.2578C82.5234 32.8828 82.0547 32.8125 79.4297 32.8125H76.4062V29.9297C76.4062 22.7812 75.2344 19.5 71.25 15.4453C67.7344 11.8828 65.2969 10.664 64.3594 12C63.9609 12.5625 63.8906 13.289 64.125 13.9453C64.2188 14.1562 64.8984 14.7422 65.6484 15.2343C69 17.5312 71.3203 20.3437 72.2578 23.3203L72.7734 24.9609V95.5078L72.2344 97.5C70.2656 104.953 64.6172 110.531 57.3047 112.266C55.3828 112.734 54.7031 112.758 41.0625 112.687C26.8359 112.617 26.8359 112.617 25.1953 112.055C18.1641 109.687 13.4766 104.836 11.4375 97.8047L10.8984 95.9765V24.4922L11.4375 22.9218C12.5859 19.6406 14.4609 17.5078 18.6797 14.7422C28.8281 8.13278 38.9062 5.83591 48.8672 7.85153C50.625 8.2031 55.1484 9.65622 57.7734 10.7343C58.8281 11.1562 59.0391 11.1797 59.6953 10.8984C60.5156 10.5468 60.8438 9.77341 60.6094 8.7656C60.4922 8.29685 60.0703 7.99216 58.6875 7.33591C56.3906 6.28122 52.6172 5.06247 49.7578 4.42966C46.7109 3.77341 38.9062 3.58591 35.7422 4.10153ZM7.26563 54.6093H3.51563V36.3281H7.26563V54.6093ZM80.1562 54.6093H76.4062V36.3281H80.1562V54.6093Z" />
<path d="M15.0234 33.4218C14.5313 34.0547 14.5313 34.1953 14.5313 52.7812V71.5078L15.1172 72.0703L15.6797 72.6562H27.1875C38.3672 72.6562 38.6953 72.6328 39.1406 72.1875C39.8438 71.4843 39.7734 70.2422 39 69.6328C38.3906 69.1406 38.1328 69.1406 28.2188 69.1406H18.0469V36.3281H65.625V69.1406H44.9766L44.4141 69.7265C43.6641 70.4531 43.6641 71.3437 44.4141 72.0703L44.9766 72.6562H56.4844C67.5469 72.6562 67.9922 72.6328 68.4141 72.2109C68.6719 71.9531 68.9531 71.3906 69.0234 70.9687C69.0938 70.5468 69.1406 61.9922 69.0938 51.9609L69.0234 33.7031L68.4609 33.2578C67.9219 32.8359 67.1719 32.8125 41.7188 32.8125H15.4922L15.0234 33.4218Z" />
<path d="M109.055 35.8828C108.188 36.2109 107.812 37.0312 107.812 38.6015V40.0781H104.203L100.266 43.9921C95.9062 48.3281 94.9688 49.5468 94.0312 51.9375L93.3984 53.5546L93.2578 76.4062H89.8828C86.1328 76.4062 85.4531 76.5703 85.0781 77.6484C84.7734 78.5625 84.7734 85.0312 85.0781 85.9453C85.3359 86.625 86.1328 87.1875 86.8359 87.1875C87.1172 87.1875 87.1875 89.2968 87.2344 101.227C87.3047 114.656 87.3281 115.289 87.75 115.758C88.1953 116.227 88.3828 116.25 94.9688 116.25C101.414 116.25 101.742 116.227 102.188 115.781C102.633 115.336 102.656 115.008 102.656 109.266C102.656 103.5 102.633 103.195 102.188 102.703C101.484 101.953 100.266 102 99.6328 102.797C99.1641 103.383 99.1406 103.734 99.1406 108.07V112.734H90.9375V87.1875H99.1406V91.9922C99.1406 96.7968 99.1406 96.8203 99.7266 97.3828C100.43 98.0859 101.227 98.1328 102.047 97.4765L102.656 97.0078V87.1875H103.219C103.523 87.1875 104.039 86.9765 104.391 86.6953L105 86.2265V77.3671L104.391 76.8984C103.828 76.4531 103.453 76.4062 100.266 76.4062H96.7734L96.9141 54.0234L97.6875 52.4062C98.3203 51.0703 99.0234 50.2031 102 47.2031L105.562 43.5937H107.812V44.9296C107.812 45.6796 107.953 46.5468 108.117 46.875C108.68 47.9765 109.266 47.9765 114.281 46.7578C120.211 45.3046 120 45.4921 120 41.8593C120 38.1328 120.164 38.2734 114.609 36.914C112.219 36.3281 110.109 35.8125 109.922 35.7656C109.711 35.7421 109.336 35.7656 109.055 35.8828ZM113.297 40.2187C116.742 41.0859 116.484 40.9687 116.484 41.8125V42.6093L114.023 43.2187C112.688 43.5468 111.516 43.8281 111.445 43.8281C111.375 43.8281 111.328 42.9375 111.328 41.8359C111.328 40.5468 111.422 39.8437 111.586 39.8437C111.727 39.8437 112.5 40.0078 113.297 40.2187ZM101.484 83.6718H88.3594V81.9609C88.3594 81 88.4297 80.1562 88.5234 80.0859C88.5938 79.9922 91.5469 79.9218 95.0859 79.9218H101.484V83.6718Z" />
<path d="M22.3828 40.664L21.7969 41.2265V64.2422L22.3828 64.8047L22.9453 65.3906H41.7656C62.3906 65.3672 61.2188 65.4609 61.6406 63.9609C61.9688 62.8593 61.9453 42.5625 61.6406 41.4375C61.5 40.9453 61.1953 40.4531 60.9375 40.3125C60.6563 40.1718 53.9297 40.0781 41.7188 40.0781H22.9453L22.3828 40.664ZM58.125 61.875H25.3125V43.5937H58.125V61.875Z" />
<path d="M40.6875 84.2109L40.0781 84.8203V96.4453C40.0781 107.742 40.1016 108.07 40.5469 108.516C41.25 109.219 42.4922 109.148 43.125 108.352C43.5938 107.742 43.6172 107.602 43.5469 96.1875C43.4766 83.4843 43.5469 84.0703 42.0234 83.7656C41.4141 83.6484 41.1563 83.7422 40.6875 84.2109Z"/>
<path d="M33.2813 87.8906C32.8359 88.3359 32.8125 88.664 32.8125 96.2343C32.8125 101.133 32.9063 104.25 33.0469 104.531C33.6797 105.703 35.3906 105.68 35.9766 104.531C36.2578 103.969 36.3281 102.516 36.3281 96.2578C36.3281 88.9218 36.3047 88.6406 35.8359 88.0312C35.2266 87.2578 33.9844 87.1875 33.2813 87.8906Z"/>
<path d="M47.8594 87.9609C47.3438 88.5 47.3438 88.6172 47.3438 96.4218V104.32L47.9297 104.883C48.6563 105.633 49.5469 105.633 50.2734 104.883L50.8594 104.32V96.4922C50.8594 88.9218 50.8359 88.6406 50.3672 88.0312C49.7344 87.2343 48.5625 87.1875 47.8594 87.9609Z"/>
<path d="M26.1563 91.4297L25.5469 91.8984V96.3515C25.5469 100.477 25.5703 100.805 26.0156 101.25C26.6484 101.883 27.9141 101.859 28.5 101.227C28.8984 100.781 28.9453 100.266 29.0156 96.75C29.1094 92.414 28.9453 91.6406 27.9844 91.1953C27.1641 90.8203 26.8594 90.8672 26.1563 91.4297Z"/>
<path d="M55.6172 91.1718C54.7266 91.5468 54.6094 92.1328 54.6094 96.5156C54.6094 100.594 54.6328 100.711 55.1484 101.203C55.9219 101.93 57.0234 101.883 57.6328 101.109C58.0781 100.523 58.125 100.172 58.125 96.3281C58.125 92.6953 58.0781 92.1093 57.7266 91.6875C57.2344 91.1015 56.3203 90.8672 55.6172 91.1718Z"/>
</g>
<defs>
<clipPath id="clip0_932_3987">
<rect width="120" height="120" fill="white"/>
</clipPath>
</defs>
</svg>
