<svg width="120" height="120" viewBox="0 0 120 120" xmlns="http://www.w3.org/2000/svg">
<g clip-path="url(#clip0_932_3951)">
<path d="M3.51562 0.304688C2.39062 0.65625 0.5625 2.53125 0.257812 3.65625C0.09375 4.21875 0 7.57031 0 12.5625C0 20.2969 0.0234375 20.5781 0.492188 21.1875C1.14844 22.0312 2.36719 22.0312 3.02344 21.1875C3.49219 20.5781 3.51562 20.2969 3.51562 12.6094V4.66406L4.10156 4.10156L4.66406 3.51562H62.8125V12.1172C62.8125 17.4844 62.9062 21.0703 63.0703 21.6328C63.375 22.7812 64.7812 24.3281 65.9766 24.8672C66.8203 25.2656 67.7109 25.3125 75.7734 25.3125H84.6094V30.7266C84.6094 35.7891 84.5859 36.1406 84.2109 35.9766C83.1094 35.5547 80.2969 34.875 78.3984 34.5703C76.6406 34.2891 72.6562 34.2188 55.0312 34.2188H33.7734L33.3047 34.8281C32.6953 35.6016 32.6719 36.3516 33.2578 37.0547L33.7031 37.6172L58.9453 37.8516L57.3047 38.8359C56.3906 39.3516 54.8906 40.4531 53.9766 41.2266L52.2656 42.6562H43.3594C35.9766 42.6562 34.3125 42.7266 33.7734 43.0078C32.6719 43.5703 32.4609 44.8359 33.3516 45.6562C33.8906 46.1719 34.0078 46.1719 41.4609 46.1719H49.0312L48.6562 46.6875C46.5 49.7578 44.5312 53.8594 43.6875 57.1172L43.2656 58.8281H38.6016C33.9844 58.8281 33.9609 58.8281 33.3984 59.4141C32.6484 60.1406 32.6484 61.0312 33.3984 61.7578C33.9609 62.3438 34.0078 62.3438 38.3203 62.3438H42.6562V67.5H33.7734L33.3047 68.1094C32.6953 68.8828 32.6719 69.6328 33.2578 70.3359C33.7031 70.875 33.8203 70.8984 38.4609 71.0156L43.2188 71.1328L43.4062 72.0703C44.0156 75.0938 45.9141 79.4297 47.8828 82.3828L48.9844 84.0234L41.4375 84.0938C34.0781 84.1406 33.8672 84.1641 33.3516 84.6562C32.4609 85.4766 32.6719 86.7422 33.7734 87.3047C34.3125 87.5859 36 87.6562 43.4297 87.6562C52.2656 87.6562 52.4297 87.6562 52.875 88.1484C53.5312 88.875 56.4141 91.0078 57.8906 91.8281L59.1797 92.5781H33.9609L33.3984 93.1641C32.6953 93.8672 32.6484 94.6641 33.3047 95.4844L33.7734 96.0938H54.8438C68.6719 96.0938 76.5234 96 77.7188 95.8359C79.2656 95.625 82.0312 94.9688 84.0938 94.3359L84.6094 94.1719V115.336L84.0234 115.898L83.4609 116.484H4.66406L4.10156 115.898L3.51562 115.336V70.9453C3.51562 27.9141 3.49219 26.5312 3.07031 25.9922C2.46094 25.2422 1.05469 25.2422 0.445312 25.9922C0.0234375 26.5312 0 27.9141 0 70.9453C0 105.281 0.0703125 115.594 0.28125 116.344C0.65625 117.609 2.39062 119.344 3.65625 119.719C4.94531 120.094 83.0859 120.141 84.4453 119.742C84.9375 119.602 85.7578 119.109 86.2734 118.664C88.0781 117.023 87.9844 117.75 88.125 104.438L88.2422 92.4844L89.3906 91.8047L90.5391 91.1484L92.6484 93.2344C94.5 95.1094 94.7109 95.3906 94.4766 95.8125C93.7734 97.1016 93.9141 97.2891 100.031 103.406C103.219 106.617 106.359 109.594 106.992 110.039C111.188 112.922 117.094 111.305 119.25 106.688C119.789 105.562 119.883 105.023 119.883 103.242C119.883 99.7266 119.578 99.2812 112.219 91.9219C106.898 86.6484 105.938 85.7812 105.352 85.7812C104.953 85.7812 104.484 85.8984 104.297 86.0156C104.016 86.1797 103.453 85.7578 101.812 84.1172L99.6797 81.9844L100.57 80.4141C103.125 76.0781 105.258 67.5938 104.227 66C103.266 64.5469 101.039 65.3438 101.016 67.1719C101.016 67.5938 100.852 68.7891 100.664 69.8672C98.1094 83.6016 86.1562 93.1875 72.375 92.5078C65.3906 92.1797 59.4141 89.5781 54.4688 84.7266C50.0391 80.3672 47.4844 75.5156 46.5234 69.6094C45.3984 62.6484 46.9219 55.6641 50.8594 49.7812C52.4531 47.4141 55.8516 44.0156 58.2188 42.4219C69.4453 34.8984 84.2344 36.5391 93.5391 46.3359C97.0312 49.9922 99.3047 54.2344 100.453 59.2734C100.664 60.1172 100.992 61.0078 101.18 61.2188C101.719 61.8047 103.008 61.7578 103.617 61.1484C104.062 60.7031 104.109 60.4688 103.969 59.25C103.805 57.5625 102.516 53.6016 101.461 51.5156C98.8594 46.3359 94.7578 41.8125 89.9062 38.7891L88.125 37.6875V22.8516L76.6875 11.4375L65.2734 0L34.8047 0.0234375C13.1953 0.046875 4.10156 0.117188 3.51562 0.304688ZM74.2969 13.9453L82.1484 21.7969H67.4766L66.9141 21.2109L66.3281 20.6484V13.3594C66.3281 9.375 66.3516 6.09375 66.3984 6.09375C66.4219 6.09375 69.9844 9.63281 74.2969 13.9453ZM99.4922 86.9531L101.367 88.8281L97.2656 92.9297L93.4219 89.0859L95.4141 87.0938C96.4922 85.9922 97.4297 85.1016 97.5 85.0781C97.5703 85.0781 98.4609 85.9219 99.4922 86.9531ZM110.648 95.3203C116.203 100.945 116.484 101.344 116.484 103.383C116.461 105.703 114.047 108.047 111.68 108.047C109.969 108.047 109.453 107.648 103.875 102.117L98.4375 96.6797L101.766 93.3516C103.617 91.5 105.164 90 105.258 90C105.328 90 107.766 92.3906 110.648 95.3203Z" />
<path d="M14.6484 32.6953C13.5 33.0938 12.5391 34.1484 12.2109 35.3203C12.0703 35.8125 11.9531 38.0625 11.9531 40.3125C11.9766 45.6563 12.3047 46.6406 14.4141 47.6016C15.2109 47.9766 15.9844 48.0469 19.6875 48.0469C22.0781 48.0469 24.3984 47.9297 24.8906 47.8125C25.9453 47.5078 27.3516 46.0078 27.5391 44.9297C27.6328 44.5078 27.6562 42.0938 27.6094 39.5625L27.5391 34.9922L26.8594 34.125C25.6641 32.5547 24.8672 32.3438 19.9219 32.3672C16.8047 32.3672 15.3281 32.4609 14.6484 32.6953ZM24.0234 44.4141L19.9453 44.4844C16.8281 44.5313 15.8203 44.4609 15.6562 44.25C15.3516 43.7344 15.4219 36.4688 15.75 36.1406C15.9609 35.9297 17.1328 35.8594 20.0391 35.9063L24.0234 35.9766V44.4141Z" />
<path d="M71.25 42.3281C60 43.7109 51.6562 52.3594 50.7422 63.6328C50.4609 66.9609 51.3984 72.2578 52.4297 73.0078C53.3203 73.6875 54.5156 73.3828 54.9609 72.375C55.1953 71.7891 55.1719 71.3906 54.7734 69.8906C54.1172 67.2891 54.1406 62.8828 54.8203 60.3516C56.6719 53.4375 61.875 48.2344 68.7891 46.3828C71.6719 45.6094 76.0312 45.6563 78.8203 46.5C84.4922 48.2109 88.7344 51.7969 91.1484 56.9766C92.5078 59.8828 92.9062 61.6875 92.9062 65.1563C92.9062 68.625 92.5078 70.4297 91.1484 73.3359C88.7344 78.4922 84.4687 82.125 78.8203 83.8125C77.0391 84.3516 76.3359 84.4453 73.7109 84.4453C67.7578 84.4453 63.5625 82.6172 59.3672 78.1875C57.9141 76.6641 57.2812 76.1719 56.8359 76.1719C55.3828 76.1719 54.6094 77.2734 55.1719 78.5859C55.6641 79.7578 58.8047 82.8047 61.0078 84.2578C65.1328 86.9297 68.7187 87.9844 73.7109 87.9609C76.4766 87.9609 77.3672 87.8438 79.3359 87.3281C88.5469 84.9141 95.3203 77.0859 96.375 67.6406C97.8516 54.4688 87.8437 42.8438 74.5781 42.3281C73.1953 42.2813 71.6953 42.2813 71.25 42.3281Z" />
<path d="M78.6328 55.7813C78.1172 56.0391 76.3359 57.6094 74.6719 59.2734L71.6484 62.2969L70.5 61.3828C68.6016 59.8828 66.5859 59.6016 64.5703 60.5625C63.9375 60.8672 63.1641 61.3594 62.8828 61.6641C62.1328 62.5078 61.4062 64.2188 61.4062 65.25C61.4062 67.2422 61.8047 67.9219 65.0156 71.2031C68.4375 74.6719 69 75.1172 70.7344 75.4922C71.7188 75.7031 72.1875 75.6797 73.2891 75.3516C74.6016 74.9766 74.8359 74.7656 79.9219 69.5625C82.8281 66.5859 85.3828 63.8906 85.5938 63.5625C86.6953 61.8984 86.5547 59.1797 85.3125 57.4688C83.9062 55.5234 80.7422 54.7266 78.6328 55.7813ZM82.1953 59.3438C82.9219 60.1406 83.0156 60.75 82.5469 61.5703C82.0312 62.5547 72.9375 71.7188 72.2344 71.9766C71.3203 72.3281 70.3359 71.6719 67.5469 68.8125C64.6406 65.8828 64.3828 65.3203 65.5078 64.125C66.4453 63.1172 67.2188 63.2813 69.0703 64.9453C70.8984 66.5859 71.3672 66.8203 72.1875 66.5391C72.5156 66.4219 74.4141 64.6406 76.4062 62.5781C79.7812 59.0859 80.1094 58.8281 80.8828 58.8281C81.4453 58.8281 81.8672 58.9922 82.1953 59.3438Z" />
<path d="M14.0859 57.6797C12.2344 58.8047 11.9531 59.7891 11.9531 64.9688C11.9531 69.1641 12.1406 70.1719 13.0547 71.2734C14.1328 72.5391 14.7188 72.6562 19.9688 72.6562C24.4688 72.6562 24.7734 72.6094 25.6406 72.1172C26.2266 71.7891 26.7656 71.2031 27.1172 70.5703C27.6328 69.5859 27.6562 69.3047 27.6562 64.9453C27.6562 59.7656 27.4453 58.8984 25.9922 57.8672C25.2188 57.3281 25.0547 57.3047 20.0391 57.2344C15.1406 57.1875 14.8359 57.2109 14.0859 57.6797ZM24.0234 69.0234H15.5859L15.5156 65.1563C15.4922 63.0469 15.5156 61.1719 15.5859 61.0078C15.6562 60.75 16.5938 60.7031 19.8516 60.75L24.0234 60.8203V69.0234Z" />
<path d="M14.4141 82.7109C12.3047 83.6719 11.9766 84.6563 11.9531 90C11.9531 94.6172 12.1406 95.625 13.2188 96.7031C14.3438 97.8281 15.3984 98.0156 20.3672 97.9219C25.2422 97.8516 25.7109 97.7109 26.8828 96.1641L27.5391 95.3203L27.6094 90.75C27.6562 88.2188 27.6328 85.8047 27.5391 85.3828C27.3516 84.3047 25.9453 82.8047 24.8906 82.5C24.3984 82.3828 22.0781 82.2656 19.6875 82.2656C15.9844 82.2656 15.2109 82.3359 14.4141 82.7109ZM24.0234 94.3359L20.0625 94.4063C17.3438 94.4531 16.0078 94.3828 15.7969 94.1953C15.5391 93.9844 15.4688 93.0938 15.4688 90.2344C15.4688 88.1953 15.5391 86.3438 15.6094 86.1563C15.75 85.8281 16.2656 85.7813 19.8984 85.8281L24.0234 85.8984V94.3359Z"/>
</g>
<defs>
<clipPath id="clip0_932_3951">
<rect width="120" height="120" fill="white"/>
</clipPath>
</defs>
</svg>
