<svg width="24" height="24" viewBox="0 0 24 24" fill="none" xmlns="http://www.w3.org/2000/svg">
<path fill-rule="evenodd" clip-rule="evenodd" d="M6.5 1.00006H17.5049C20.5397 1.00006 23 3.46039 23 6.49517V17.5062C23 20.5397 20.5397 23.0001 17.5049 23.0001H6.49511C3.46033 23.0001 1 20.5397 1 17.5049V6.50006C1 3.46284 3.46278 1.00006 6.5 1.00006V1.00006Z" stroke="#272727" stroke-linecap="round" stroke-linejoin="round"/>
<path d="M11.7362 14.3295L10.3922 15.6371C10.1591 15.8636 9.76927 15.7633 9.67489 15.4522L8.7793 12.5038" stroke="#272727" stroke-width="0.8" stroke-linecap="round" stroke-linejoin="round"/>
<path d="M13.2391 10.4379C13.2391 10.4379 11.554 11.9583 10.6896 12.7387C10.4312 12.9717 10.4527 13.3817 10.7326 13.5881L14.2329 16.174C14.5773 16.4285 15.0693 16.2417 15.1585 15.8225L16.8774 7.72112C16.9607 7.32929 16.5761 7.00191 16.2025 7.14575L6.10422 11.0406C5.80677 11.1551 5.82109 11.5801 6.12505 11.6752L8.77865 12.5031" stroke="#272727" stroke-width="0.8" stroke-linecap="round" stroke-linejoin="round"/>
</svg>
