<svg width="90" height="90" viewBox="0 0 90 90"  xmlns="http://www.w3.org/2000/svg">
<g clip-path="url(#clip0_997_3878)">
<path d="M57.6 4.40995C53.5725 6.59245 47.4075 9.94495 43.875 11.8575L37.4625 15.3224L30.375 17.0099C26.4825 17.9324 21.1725 19.215 18.5625 19.8224C8.415 22.2524 8.28 22.2749 5.13 22.2749C1.98 22.2749 1.3275 22.4549 0.4725 23.535C0 24.1424 0 24.1649 0 45.5625V66.9825L0.495 67.6125C1.5075 68.895 0.405 68.85 26.55 68.85C39.78 68.85 50.625 68.895 50.625 68.9625C50.625 69.0075 50.2875 69.5925 49.86 70.2675C48.285 72.6975 47.6775 76.1175 48.24 79.0425C49.59 86.0175 55.9125 90.4275 62.46 88.9875C64.8 88.4925 66.6225 87.5025 68.31 85.8375C69.8175 84.3525 70.6725 83.025 71.325 81.18L71.73 79.9875L73.215 79.605C78.975 78.075 82.575 73.3275 82.575 67.32C82.575 65.4975 82.4625 64.8225 81.9225 63.2925C81.2925 61.4925 79.8525 59.175 78.66 58.0725C78.12 57.555 78.075 57.375 78.075 55.5525C78.075 54.4725 78.1425 53.5275 78.255 53.4825C78.345 53.415 80.595 52.8525 83.25 52.2225C85.905 51.5925 88.29 50.9174 88.5825 50.7374C89.28 50.2649 89.8425 49.1175 89.82 48.15C89.82 47.7225 88.5375 41.535 86.9625 34.4249C83.97 20.835 83.565 18.9675 82.6875 14.9624C80.955 6.97495 80.9775 6.99745 79.8075 6.29995C78.8175 5.69245 78.165 5.73745 74.3625 6.65995C72.54 7.08745 71.0325 7.42495 70.9875 7.37995C70.965 7.33495 70.245 5.96245 69.4125 4.31995C68.535 2.56495 67.68 1.19245 67.365 0.967453C67.0725 0.787453 66.3975 0.584946 65.8575 0.517448C64.98 0.427452 64.395 0.697449 57.6 4.40995ZM66.825 5.84995C67.6125 7.42495 67.8825 8.14495 67.68 8.18995C67.41 8.27995 64.575 8.95495 58.1625 10.4624C56.8125 10.7775 54.3825 11.3624 52.8075 11.7225C51.21 12.1049 49.8825 12.3749 49.815 12.3074C49.7475 12.24 65.385 3.62245 65.6325 3.59995C65.6775 3.59995 66.195 4.61245 66.825 5.84995ZM78.4125 9.49495C78.48 9.78745 79.74 15.5699 81.2475 22.3875C82.7325 29.1824 84.6 37.7325 85.41 41.3775C86.1975 45.0224 86.8275 48.0375 86.76 48.0825C86.67 48.195 78.57 50.1749 78.255 50.1749C78.1425 50.1749 78.075 49.5675 78.075 48.825C78.075 48.0825 78.165 47.475 78.3 47.475C78.435 47.475 78.7275 47.2724 78.975 47.025C79.3125 46.6875 79.425 46.2825 79.425 45.2475C79.425 43.6725 79.92 42.9075 81.36 42.2775C82.6875 41.715 82.7775 41.2425 82.035 38.0475C81.5625 35.8875 80.415 30.735 77.805 18.6749C77.445 17.0324 77.0175 16.6499 75.51 16.6499C74.0475 16.6499 73.26 16.1099 72.6525 14.6925C72.405 14.1075 72.0225 13.6349 71.7075 13.5225C71.19 13.3199 67.1175 14.2424 40.905 20.475L33.3 22.2749L27.63 22.2524C23.445 22.2299 22.185 22.1625 22.8375 22.005C25.245 21.42 44.4375 16.8975 58.3875 13.6124C63.9675 12.3074 70.5375 10.7325 73.0125 10.1475C75.4875 9.53995 77.6925 9.04495 77.895 9.02245C78.12 8.99995 78.345 9.20245 78.4125 9.49495ZM70.74 17.5724C71.2575 18.45 72.9675 19.5525 74.07 19.7325C74.8125 19.8449 74.9475 19.9575 75.15 20.6775C75.645 22.4324 77.0625 22.2749 61.2675 22.2524C53.4825 22.2524 47.4525 22.1625 47.8125 22.0499C48.195 21.96 51.975 21.0375 56.25 20.0474C60.525 19.035 65.2275 17.9324 66.7125 17.5724C70.1775 16.7175 70.245 16.7175 70.74 17.5724ZM75.15 40.455C75.15 48.735 75.105 55.5525 75.0375 55.62C74.97 55.6875 74.3625 55.575 73.6875 55.3725L72.45 55.0125V44.145C72.45 33.5924 72.4275 33.2775 72 32.8499C71.7525 32.6025 71.3025 32.4 70.9875 32.4C69.66 32.4 68.4 31.1624 68.4 29.8575C68.4 29.5649 68.1975 29.0475 67.9275 28.7099L67.4775 28.125H38.9475C12.06 28.125 10.395 28.1474 10.0575 28.5075C9.8775 28.7325 9.63 29.3175 9.5625 29.8125C9.4725 30.3074 9.2925 30.8925 9.18 31.1175C8.8875 31.68 7.65 32.4 6.9525 32.4C6.6375 32.4 6.165 32.6025 5.895 32.8499L5.4 33.3225V45.5625V57.8025L5.985 58.2525C6.3225 58.5225 6.795 58.725 7.065 58.725C7.6725 58.725 8.91 59.4675 9.18 60.0075C9.2925 60.2325 9.4725 60.8175 9.5625 61.3125C9.8775 63.1575 7.425 63 34.8075 63C57.87 63 59.175 63.0225 59.175 63.3825C59.175 64.08 58.86 64.3275 57.6225 64.5975C56.9475 64.7325 56.0025 65.0475 55.485 65.2725C54.6075 65.6775 53.4375 65.7 28.755 65.7H2.925V45.5625V25.4249H39.0375H75.15V40.455ZM27.8775 32.4674C20.4075 39.3974 20.1825 51.0525 27.3825 58.185L29.07 59.85H20.7225H12.375L12.0375 58.995C11.565 57.915 10.305 56.6325 9.2025 56.1375L8.325 55.7325V45.5625V35.3925L9.225 34.9874C10.2825 34.5149 11.61 33.1425 12.06 32.04L12.375 31.275H20.7675H29.1375L27.8775 32.4674ZM43.4025 32.0175C50.7375 34.6049 54.5625 43.02 51.84 50.58C50.76 53.595 48.87 55.9575 46.17 57.69C44.0325 59.0625 42.165 59.67 39.6 59.7825C35.595 60.0075 32.31 58.7025 29.3625 55.71C26.4825 52.785 25.2 49.7024 25.2 45.54C25.2 41.58 26.505 38.3175 29.2275 35.4825C30.9375 33.705 32.58 32.6474 34.65 31.9949C36.855 31.2975 36.8325 31.2975 39.375 31.365C41.22 31.41 42.0975 31.5675 43.4025 32.0175ZM66.015 32.3774C66.6225 33.5475 67.59 34.4925 68.7825 35.055L69.525 35.415L69.48 45.2024L69.4125 55.0125L68.2875 55.1925C66.42 55.5075 63.99 56.8125 62.3475 58.41L60.885 59.85H54.7875H48.7125L49.8825 58.815C54.45 54.8549 56.655 48.1049 55.395 41.985C54.63 38.3175 53.055 35.4375 50.3325 32.7825L48.78 31.275H57.1275H65.475L66.015 32.3774ZM78.8625 37.6199C79.245 39.5325 79.245 39.6225 78.8625 40.0499C78.6375 40.2975 78.3675 40.5 78.255 40.5C78.165 40.5 78.075 39.2174 78.0975 37.6199C78.0975 34.5375 78.2325 34.5375 78.8625 37.6199ZM73.215 58.5C75.5325 59.22 77.355 60.7725 78.525 63.045C80.4375 66.7125 79.74 71.2575 76.86 74.16C75.735 75.2625 73.7775 76.3875 72.675 76.545C72.135 76.6125 72.1125 76.545 71.955 75.15C71.7075 72.63 70.2 69.5025 68.4225 67.86C67.5225 67.005 67.545 66.3525 68.4675 65.34C69.435 64.2825 70.8975 64.0575 72.1125 64.7775C73.62 65.655 74.925 65.205 74.925 63.7875C74.925 63 74.4075 62.415 73.125 61.74C71.955 61.1325 69.2775 61.155 68.04 61.8075C66.9375 62.3925 65.5875 63.7425 65.2275 64.62C65.0025 65.16 64.8675 65.25 64.485 65.1375C64.215 65.0475 63.585 64.8675 63.0675 64.7325C62.5275 64.62 62.1 64.3725 62.1 64.2375C62.1 63.6975 63.72 61.2675 64.6425 60.4575C67.095 58.23 70.11 57.555 73.215 58.5ZM63.81 68.2875C65.4075 69.075 67.2525 70.8525 68.0175 72.36C69.6825 75.645 69.3 79.785 67.05 82.6875C63.3375 87.5025 56.07 87.1875 52.6725 82.125C51.5925 80.4825 51.3 79.6275 51.1425 77.49C50.805 73.1925 53.28 69.3 57.2175 67.905C59.04 67.2525 62.055 67.4325 63.81 68.2875Z" />
<path d="M14.175 42.12C11.1375 43.6725 11.34 47.97 14.5125 49.1625C16.335 49.8825 18.2925 49.0275 19.1475 47.16C19.6875 45.99 19.6875 45.135 19.1475 43.965C18.225 41.94 16.065 41.13 14.175 42.12ZM16.3125 45.5625C16.3125 46.125 16.2225 46.2375 15.75 46.2375C15.39 46.2375 15.165 46.1025 15.12 45.8325C14.985 45.1575 15.255 44.73 15.795 44.82C16.2 44.865 16.3125 45.0225 16.3125 45.5625Z" />
<path d="M37.8225 34.5599C37.5525 34.8974 37.35 35.4824 37.35 35.8649C37.35 36.4724 37.2375 36.6074 36.3375 36.9899C35.1 37.4849 33.84 38.9024 33.5025 40.1399C33.12 41.5574 33.39 43.3574 34.1325 44.4149C35.01 45.6749 35.7525 46.1249 38.3625 46.9799C40.77 47.7899 41.625 48.4424 41.625 49.4099C41.625 50.6699 40.545 51.5249 38.9475 51.5249C37.1025 51.5249 36.225 50.6249 36.225 48.7349C36.225 47.9249 36.1125 47.6549 35.64 47.2724C34.8975 46.6874 34.6275 46.6874 33.885 47.2724C33.3675 47.6774 33.3 47.9024 33.3 49.0049C33.3 49.7024 33.4125 50.6474 33.525 51.0974C33.84 52.2449 35.145 53.6624 36.3375 54.1349C37.2375 54.5174 37.35 54.6524 37.35 55.2599C37.35 56.2274 38.115 57.1499 38.9025 57.1499C39.8475 57.1499 40.2975 56.6774 40.4325 55.5299C40.545 54.6299 40.635 54.4949 41.3325 54.2474C45.3375 52.7849 45.675 46.9349 41.85 44.9999C41.4225 44.7974 40.23 44.3474 39.2175 44.0099C36.81 43.1999 36.3375 42.8399 36.3375 41.6699C36.3375 40.5449 36.8775 39.9149 38.07 39.5999C40.0275 39.0599 41.625 40.1624 41.625 42.0524C41.625 43.4249 42.0975 44.0999 43.065 44.0999C44.19 44.0999 44.55 43.5374 44.55 41.8274C44.55 40.9274 44.3925 40.0499 44.1225 39.4649C43.65 38.4074 42.075 36.9899 41.175 36.7874C40.635 36.6749 40.545 36.5174 40.4325 35.6174C40.2975 34.4474 39.87 33.9749 38.9025 33.9749C38.4975 33.9749 38.115 34.1774 37.8225 34.5599Z" />
<path d="M60.075 42.1425C58.185 43.1325 57.5325 45.5175 58.5675 47.475C59.1525 48.6 60.5925 49.5 61.7625 49.5C62.9325 49.5 64.3725 48.6 64.98 47.4525C65.4075 46.6425 65.4975 46.2375 65.4075 45.2025C65.2725 43.65 64.6425 42.705 63.3375 42.075C62.1225 41.49 61.2675 41.5125 60.075 42.1425ZM62.415 45.27C62.595 45.585 62.5725 45.7425 62.28 46.035C61.605 46.71 60.5925 45.8325 61.2 45.09C61.56 44.685 62.0775 44.7525 62.415 45.27Z" />
<path d="M57.87 70.9873C53.8875 72.7198 52.8075 78.1423 55.8 81.1573C56.655 82.0348 57.6 82.1248 58.275 81.4498C58.8825 80.8423 58.8375 80.0548 58.185 79.2673C57.375 78.2998 57.15 77.7373 57.15 76.7248C57.15 75.5998 57.645 74.6773 58.5 74.1598C59.3775 73.6648 60.93 73.7098 61.7625 74.2498C63.045 75.0823 64.35 74.5873 64.35 73.2373C64.35 72.3373 63.2475 71.2573 61.9425 70.8973C60.75 70.5598 58.7475 70.6048 57.87 70.9873Z" />
</g>
<defs>
<clipPath id="clip0_997_3878">
<rect width="90" height="90" fill="white"/>
</clipPath>
</defs>
</svg>
