<svg width="117" height="120" viewBox="0 0 117 120" xmlns="http://www.w3.org/2000/svg">
<path d="M102.738 1.03633C98.496 1.59883 94.7694 2.11446 94.4882 2.18477C93.8319 2.34883 93.1523 3.56758 93.3398 4.29415C93.4101 4.59883 94.0898 5.65352 94.8398 6.68477C95.5898 7.69258 96.2694 8.63008 96.3632 8.79415C96.4804 8.98165 94.6757 10.4816 90.9726 13.2707C87.9023 15.5676 85.2538 17.5363 85.0898 17.6301C84.9023 17.7473 83.6132 16.7395 81.3866 14.7941C77.7069 11.5598 77.0038 11.091 75.5038 10.8332C73.1366 10.4816 73.3944 10.2941 56.0273 23.2785L39.9726 35.302L36.7148 32.841C34.9101 31.5051 33.0116 30.1926 32.4726 29.9348C31.1601 29.3488 28.9804 29.3488 27.7382 29.9582C27.2226 30.1926 20.8007 34.927 13.4413 40.4348L0.0819409 50.466L0.0116284 51.4035C-0.0586841 52.2707 0.128816 52.5988 2.3085 55.5051C3.59757 57.2395 4.83975 58.8098 5.05069 58.9504C6.17569 59.7941 6.41007 59.6535 18.2694 50.7941C24.5038 46.1301 29.7304 42.2395 29.871 42.1223C30.0116 42.0051 31.4648 42.9426 33.7382 44.6066C35.7304 46.1066 37.7226 47.4191 38.1679 47.5363C39.2929 47.841 40.9335 47.8176 41.9413 47.4426C42.4101 47.2785 49.8398 41.8645 58.4882 35.3957C67.1366 28.927 74.2851 23.6301 74.3788 23.6301C74.4491 23.6301 76.0194 24.966 77.8476 26.5832C79.6757 28.2004 81.5976 29.7473 82.1132 30.0051C83.2382 30.591 85.4882 30.6613 86.7069 30.1223C87.1991 29.9348 89.871 28.0363 92.6835 25.927C95.5194 23.8176 99.0585 21.1691 100.559 20.0441L103.301 18.0285L104.754 19.9504C106.512 22.2941 106.957 22.6926 107.777 22.6926C108.129 22.6926 108.644 22.5051 108.926 22.2707C109.207 22.0598 111.012 18.2395 113.051 13.6691C116.871 5.04415 117.082 4.31758 116.426 2.60665C116.121 1.80977 115.137 0.731646 114.293 0.286333C113.309 -0.229292 111.176 -0.0886669 102.738 1.03633ZM112.934 4.10665C112.934 4.34102 111.668 7.34102 110.144 10.8098L107.379 17.0676L106.043 15.3098C103.957 12.5207 104.613 12.2629 94.1366 20.0676C89.3319 23.677 85.2069 26.677 84.9726 26.7473C84.246 27.0051 83.5898 26.5598 79.5351 22.9504C77.3554 21.0051 75.2929 19.341 74.9882 19.2707C74.6835 19.177 74.1679 19.2004 73.8632 19.3176C73.5585 19.4348 65.9413 25.0363 56.9413 31.7629C45.3866 40.4113 40.3944 44.0207 39.9726 44.0207C39.5741 44.0207 37.9569 42.966 35.121 40.8566C31.7226 38.3488 30.7148 37.6926 30.1288 37.6926C29.5194 37.6926 27.3163 39.2395 17.9648 46.2473L6.52725 54.7785L5.47257 53.3957L4.39444 51.9895L16.9335 42.6145C26.7304 35.2785 29.6132 33.2395 30.1288 33.2395C30.6444 33.2395 31.8398 34.0129 34.8866 36.2863C38.8944 39.2863 39.6444 39.7316 40.4648 39.5207C40.6757 39.4504 48.2226 33.8957 57.2226 27.1691C66.2226 20.4426 73.8398 14.8176 74.1444 14.677C74.5663 14.4895 74.871 14.4895 75.2694 14.677C75.5507 14.7941 77.5194 16.4582 79.6523 18.3566C81.7851 20.2551 83.7538 21.8957 84.0351 22.0363C84.3163 22.177 84.7851 22.2238 85.1132 22.1301C85.9804 21.9191 100.723 10.8332 101.004 10.177C101.379 9.35665 101.144 8.67696 99.8085 6.94258L98.6366 5.37227L99.996 5.20821C100.723 5.11446 103.441 4.7629 106.019 4.41133C111.902 3.61446 112.934 3.56758 112.934 4.10665Z" />
<path d="M87.6678 35.4895C86.0975 36.2629 84.6678 37.9036 84.2225 39.4036C83.6835 41.1848 83.6835 113.654 84.2225 115.435C84.6678 116.958 86.121 118.599 87.7147 119.372L88.9569 119.982L99.3866 119.911L109.816 119.841L110.941 119.138C111.574 118.74 112.441 117.966 112.863 117.427C114.41 115.388 114.34 116.677 114.34 88.3879V62.7473L113.754 62.1848C113.004 61.4114 111.808 61.3879 111.105 62.1379L110.59 62.677V88.2239C110.59 116.747 110.707 114.825 108.949 115.857C108.152 116.302 107.754 116.325 98.9882 116.325C88.8163 116.325 89.0741 116.372 88.0897 114.732C87.621 114.005 87.621 113.255 87.621 77.4661C87.621 37.4348 87.5272 40.177 89.0038 39.1223C89.66 38.6536 89.9413 38.6301 99.035 38.6301C107.988 38.6301 108.387 38.6536 109.137 39.0989C110.543 39.9661 110.59 40.3176 110.59 49.177V57.1692L111.199 57.7786C111.691 58.2708 111.949 58.3411 112.652 58.2473C114.293 57.9661 114.223 58.3411 114.223 48.6379V39.9192L113.566 38.5833C113.191 37.8333 112.488 36.8723 111.949 36.427C110.191 34.9036 109.98 34.8801 98.871 34.8801H88.8866L87.6678 35.4895Z" />
<path d="M51.2694 52.7629C49.4881 53.677 48.1756 55.3645 47.7772 57.2395C47.6131 58.0598 47.5428 67.2942 47.5897 86.677L47.66 114.919L48.3163 116.255C48.7147 117.052 49.3944 117.943 49.9803 118.435C51.8319 119.958 51.9022 119.958 62.9881 119.958C72.9725 119.958 72.9725 119.958 74.1444 119.396C74.8241 119.091 75.7616 118.365 76.3006 117.755C78.1288 115.669 78.0116 117.872 78.0116 85.9739C78.0116 53.5598 78.1756 56.0911 76.0428 53.9583C74.0506 51.9895 74.0975 51.9895 62.6366 51.9895H52.7459L51.2694 52.7629ZM72.785 56.2083C74.3553 57.1692 74.2616 55.1536 74.2616 86.0208C74.2616 113.325 74.2381 114.005 73.7928 114.732C72.8084 116.372 73.0663 116.325 62.8944 116.325C52.4881 116.325 52.5819 116.349 51.7381 114.497C51.3163 113.56 51.2928 112.529 51.2928 85.9973C51.2928 59.0911 51.2928 58.4348 51.7616 57.5208C52.6288 55.7161 52.3475 55.7629 62.7772 55.7395C71.5428 55.7395 72.0819 55.7629 72.785 56.2083Z" />
<path d="M15.6678 69.4973C14.2382 70.013 12.3397 71.9348 11.8475 73.4114C11.496 74.4426 11.4491 75.9895 11.4491 86.9348V99.3098L12.0585 99.7786C13.0663 100.575 14.4491 100.271 14.9413 99.1692C15.1288 98.7942 15.1991 94.9739 15.1991 86.888C15.1991 73.9505 15.1757 74.2317 16.6757 73.3176C17.3788 72.8723 17.9178 72.8489 26.5663 72.8489C35.2147 72.8489 35.7538 72.8723 36.4569 73.3176C36.8788 73.552 37.3944 74.0442 37.6288 74.4192C38.0272 75.0286 38.0507 76.1536 38.0507 94.5286C38.0507 113.185 38.0272 114.005 37.6053 114.708C36.6444 116.302 36.5975 116.325 27.621 116.396C17.8944 116.49 17.3319 116.443 16.16 115.388L15.3163 114.615L15.1991 109.529C15.0819 104.536 15.0819 104.443 14.5194 103.997C13.7694 103.388 12.5975 103.411 11.9647 104.091C11.4725 104.607 11.4491 104.818 11.4491 109.786C11.4491 114.685 11.4725 114.966 12.0116 116.091C12.6678 117.521 14.285 119.044 15.6913 119.583C16.6053 119.935 17.8007 119.958 26.9178 119.911C36.5038 119.841 37.16 119.818 38.0507 119.372C39.996 118.411 41.2616 116.654 41.7069 114.24C41.8475 113.443 41.9178 105.919 41.871 93.6614L41.8007 74.3723L41.2616 73.2005C40.5116 71.5598 39.035 70.1301 37.5116 69.5676C36.3397 69.1223 35.7069 69.0989 26.496 69.1223C18.2225 69.1223 16.5585 69.1926 15.6678 69.4973Z" />
</svg>
