<svg width="24" height="24" viewBox="0 0 24 24" fill="none" xmlns="http://www.w3.org/2000/svg">
<path fill-rule="evenodd" clip-rule="evenodd" d="M10.4798 13.5208C8.92456 11.9656 7.75214 10.2244 6.97318 8.45788C6.80835 8.08437 6.90538 7.64707 7.19384 7.35863L8.28252 6.27134C9.17447 5.37945 9.17447 4.11804 8.39551 3.33912L6.83493 1.77864C5.79676 0.740534 4.11389 0.740534 3.07572 1.77864L2.20903 2.64528C1.22403 3.63022 0.813284 5.05114 1.07914 6.46009C1.73581 9.93329 3.75366 13.7361 7.00907 16.9914C10.2645 20.2466 14.0676 22.2643 17.541 22.9209C18.95 23.1868 20.371 22.776 21.356 21.7911L22.2214 20.9258C23.2595 19.8877 23.2595 18.2049 22.2214 17.1668L20.6621 15.6077C19.8832 14.8287 18.6203 14.8287 17.8427 15.6077L16.6424 16.8093C16.3539 17.0977 15.9166 17.1947 15.5431 17.0299C13.7764 16.2497 12.0351 15.076 10.4798 13.5208Z"  stroke-linecap="round" stroke-linejoin="round"/>
</svg>
