<svg width="54" height="54" viewBox="0 0 54 54" fill="none" xmlns="http://www.w3.org/2000/svg">
<path d="M49 29.5V11.5C49 9.5 47.6 5.4 42 5H10C8.16667 5.33333 4.4 7.1 4 11.5V40M4 40H2V45.5C2.33333 46.6667 3.9 49 7.5 49H48.5C49.6667 48.8333 52 47.9 52 45.5V40M4 40H51.5M18 21.9999L18.5 22.4999V28.9999C18.5 29.3063 18.6731 29.5866 18.9472 29.7236L25.6056 33.0528C26.1686 33.3343 26.8314 33.3343 27.3944 33.0528L34.0528 29.7236C34.3269 29.5866 34.5 29.3063 34.5 28.9999V22.4999L35 21.9999M27 12.5L38 17.5C38.6666 18.1667 39.3 19.8 36.5 21L27 25L17.5 21C16.3333 20.5 14.5 19.1 16.5 17.5L27 12.5Z" stroke="#A3CBD3" stroke-width="4" stroke-linecap="round" stroke-linejoin="round"/>
</svg>
