<svg width="120" height="120" viewBox="0 0 120 120"  xmlns="http://www.w3.org/2000/svg">
<path d="M50.1562 0.539062C48.5859 1.57031 48.4219 2.20312 48.3047 6.86719C48.2578 9.72656 48.1406 11.0625 47.9531 11.1328C43.3125 12.4219 38.6953 14.25 35.5078 16.0547L33.6562 17.1094L30.8438 14.3203C29.2734 12.7969 27.7734 11.4141 27.4688 11.2734C26.8125 10.9219 24.9375 10.8984 24.1406 11.2031C23.8125 11.3438 20.7891 14.2266 17.4141 17.625C11.8828 23.1797 11.25 23.8828 11.0391 24.8203C10.9219 25.3828 10.8516 25.9688 10.8984 26.1094C10.9453 26.25 11.0391 26.6719 11.1328 27.0469C11.2266 27.4922 12.3047 28.7578 14.2031 30.7031L17.1094 33.6797L16.0547 35.5078C14.5781 38.1094 13.0781 41.625 12.0703 44.8828C11.6016 46.4297 11.1328 47.8594 11.0391 48.0469C10.875 48.3281 10.0547 48.4219 6.51562 48.5156C1.75781 48.6562 1.35938 48.75 0.46875 50.2266C0.0234375 50.9297 0 51.4688 0 60C0 68.5312 0.0234375 69.0703 0.46875 69.7734C1.35938 71.25 1.75781 71.3438 6.51562 71.4844C10.0547 71.5781 10.875 71.6719 11.0391 71.9531C11.1328 72.1406 11.6016 73.5703 12.0703 75.1172C13.0781 78.375 14.5781 81.8906 16.0547 84.4922L17.1094 86.3203L14.2031 89.2969C12.3047 91.2422 11.2266 92.5078 11.1328 92.9531C11.0391 93.3281 10.9453 93.75 10.8984 93.8906C10.8516 94.0312 10.9219 94.6172 11.0391 95.1797C11.25 96.1172 11.8828 96.8203 17.4141 102.375C20.7891 105.773 23.8125 108.656 24.1406 108.797C24.9375 109.102 26.8125 109.078 27.4688 108.727C27.7734 108.586 29.2734 107.203 30.8438 105.68L33.6562 102.891L35.5078 103.945C38.1094 105.422 41.625 106.922 44.8828 107.93C46.4297 108.398 47.8594 108.867 48.0469 108.961C48.3281 109.125 48.4219 109.945 48.5156 113.484C48.6562 118.242 48.75 118.641 50.2266 119.531C50.9297 119.977 51.4688 120 60.0234 120C69.0234 120 69.0703 120 69.8438 119.461C71.4141 118.43 71.5781 117.797 71.6953 113.133C71.7422 110.273 71.8594 108.938 72.0469 108.867C76.6875 107.578 81.3047 105.75 84.4922 103.945L86.3438 102.891L89.1562 105.68C90.7266 107.203 92.2266 108.586 92.5312 108.727C93.1172 109.031 94.8047 109.125 95.6484 108.867C95.9531 108.773 97.0781 107.836 98.1562 106.805C99.8672 105.094 100.078 104.812 100.078 104.016C100.078 103.359 99.9375 103.031 99.4688 102.68C98.3438 101.789 97.5938 102.047 95.5781 104.016L94.2188 105.328L91.2422 102.375C89.4141 100.594 87.9844 99.3516 87.5859 99.2578C86.2969 98.9297 85.0078 99.2812 82.6172 100.617C79.6641 102.281 76.6172 103.547 73.0078 104.625C69.6328 105.633 69.2578 105.82 68.6016 106.758C68.1328 107.414 68.0859 107.836 67.9688 111.914L67.8516 116.367H60H52.1484L52.0312 111.914C51.8672 105.961 52.0078 106.125 46.9922 104.625C43.4062 103.57 40.3828 102.305 37.4062 100.617C34.9922 99.2812 33.7031 98.9297 32.4141 99.2578C32.0156 99.3516 30.5859 100.594 28.7578 102.375L25.7812 105.328L20.2266 99.7734L14.6719 94.2188L17.625 91.2422C19.4062 89.4141 20.6484 87.9844 20.7422 87.5859C21.0703 86.2969 20.7188 85.0078 19.3828 82.5938C17.6953 79.6172 16.4297 76.5938 15.375 73.0078C14.3672 69.6328 14.1797 69.2578 13.2422 68.6016C12.5859 68.1328 12.1641 68.0859 8.08594 67.9688L3.63281 67.8516V60V52.1484L8.08594 52.0312C14.0391 51.8672 13.875 52.0078 15.375 46.9922C16.4531 43.3828 17.7188 40.3359 19.3828 37.3828C20.7188 34.9922 21.0703 33.7031 20.7422 32.4141C20.6484 32.0156 19.4062 30.5859 17.625 28.7578L14.6719 25.7812L20.2266 20.2266L25.7812 14.6719L28.7578 17.625C30.5859 19.4062 32.0156 20.6484 32.4141 20.7422C33.7031 21.0703 35.0156 20.7188 37.6172 19.2656C40.6641 17.5781 43.8984 16.2422 47.4375 15.2344C51.8906 13.9453 51.8672 13.9688 52.0312 8.08594L52.1484 3.63281H60H67.8516L67.9688 8.08594C68.1328 14.0391 67.9922 13.875 73.0078 15.375C76.6172 16.4531 79.6641 17.7188 82.6172 19.3828C85.0078 20.7188 86.2969 21.0703 87.5859 20.7422C87.9844 20.6484 89.4141 19.4062 91.2422 17.625L94.2188 14.6719L99.7734 20.2266L105.328 25.7812L102.375 28.7578C100.594 30.5859 99.3516 32.0156 99.2578 32.4141C98.9297 33.7031 99.2812 34.9922 100.617 37.3828C102.281 40.3359 103.547 43.3828 104.625 46.9922C105.633 50.3672 105.82 50.7422 106.758 51.3984C107.414 51.8672 107.836 51.9141 111.914 52.0312L116.367 52.1484V60V67.8516L111.914 67.9688C105.961 68.1328 106.125 67.9922 104.625 73.0078C103.547 76.6172 102.281 79.6641 100.617 82.6172C99.2812 85.0078 98.9297 86.2969 99.2578 87.5859C99.3516 87.9844 100.57 89.4141 102.352 91.2188L105.305 94.1953L103.758 95.8594C102.469 97.1953 102.188 97.6406 102.188 98.2734C102.188 99.3516 102.914 100.078 104.016 100.078C104.812 100.078 105.094 99.8672 106.805 98.1328C108.375 96.5859 108.773 96.0234 108.961 95.1797C109.078 94.6172 109.148 94.0312 109.102 93.8906C109.055 93.75 108.961 93.3281 108.867 92.9531C108.773 92.5078 107.695 91.2422 105.797 89.2969L102.891 86.3203L103.945 84.4922C105.422 81.8906 106.922 78.375 107.93 75.1172C108.398 73.5703 108.867 72.1406 108.961 71.9531C109.125 71.6719 109.945 71.5781 113.484 71.4844C118.242 71.3438 118.641 71.25 119.531 69.7734C119.977 69.0703 120 68.5312 120 60C120 51.4688 119.977 50.9297 119.531 50.2266C118.641 48.75 118.242 48.6562 113.484 48.5156C109.945 48.4219 109.125 48.3281 108.961 48.0469C108.867 47.8594 108.398 46.4297 107.93 44.8828C106.922 41.625 105.422 38.1094 103.945 35.5078L102.891 33.6797L105.797 30.7031C107.695 28.7578 108.773 27.4922 108.867 27.0469C108.961 26.6719 109.055 26.25 109.102 26.1094C109.148 25.9688 109.078 25.3828 108.961 24.8203C108.75 23.8828 108.117 23.1797 102.586 17.625C99.2109 14.2266 96.1875 11.3438 95.8594 11.2031C95.0625 10.8984 93.1875 10.9219 92.5312 11.2734C92.2266 11.4141 90.7031 12.8203 89.1562 14.3438L86.2969 17.1562L85.2891 16.5C83.2031 15.1875 79.0078 13.3359 75.7031 12.2812C73.8281 11.6953 72.1406 11.1094 71.9531 11.0156C71.6719 10.875 71.5781 10.0547 71.4844 6.51562C71.3438 1.75781 71.25 1.35938 69.7734 0.46875C69.0703 0.0234375 68.5312 0 59.9766 0C50.9766 0 50.9297 0 50.1562 0.539062Z" />
<path d="M55.5469 22.5C49.2188 23.3906 43.8516 25.4062 38.7891 28.7812C35.5547 30.9375 30.8438 35.6484 28.7578 38.7891C26.7422 41.8594 24.8438 45.7734 24.8438 46.9219C24.8438 48.375 26.1094 49.1484 27.5391 48.6094C27.75 48.5156 28.4531 47.3438 29.0859 45.9844C30.8906 42.1406 32.9766 39.1875 36.0703 36.0703C41.1094 31.0547 46.875 27.9609 53.8359 26.5547C56.9297 25.9453 63.5391 25.9922 66.6328 26.6719C73.6406 28.2188 78.9609 31.125 83.9062 36.0703C90.6094 42.7969 93.8672 50.625 93.8672 60C93.8672 69.375 90.5859 77.25 83.9062 83.9062C78.9609 88.875 73.6172 91.7812 66.6328 93.3281C63.3281 94.0547 56.6719 94.0547 53.3672 93.3281C46.4062 91.8047 41.0625 88.875 36.0703 83.9062C31.125 78.9844 28.1484 73.5 26.6953 66.6328C26.2031 64.2891 25.9922 59.0391 26.25 55.5C26.3438 54.1172 26.2969 53.8594 25.875 53.4141C25.3125 52.8516 23.8828 52.7344 23.3203 53.2031C22.6172 53.7891 22.4062 55.3594 22.4062 59.8828C22.4062 63.0469 22.5234 64.9453 22.8047 66.4453C25.7812 82.3594 37.6406 94.2188 53.5547 97.1953C56.4609 97.7344 63.5391 97.7344 66.4453 97.1953C74.4375 95.6953 80.9531 92.2969 86.625 86.625C92.2969 80.9531 95.6953 74.4375 97.1953 66.4453C97.7344 63.5391 97.7344 56.4609 97.1953 53.5547C94.2422 37.7109 82.2891 25.7109 66.5625 22.8281C64.1719 22.4062 57.6797 22.2188 55.5469 22.5Z" />
<path d="M72.2344 42.0468C71.6719 42.2343 70.8516 42.6328 70.4062 42.9374C69.9609 43.2187 66.2578 47.0859 62.1797 51.5156C54.8672 59.4374 54.7734 59.5312 54.2812 59.1327C54 58.8984 52.8281 57.7968 51.6562 56.6952C48.9844 54.1406 47.6953 53.5781 44.8828 53.7187C42.7031 53.8359 41.0625 54.5624 39.7266 56.039C38.1797 57.7499 37.8516 58.6874 37.8516 61.289C37.8516 64.7109 38.0156 64.9687 44.8828 71.5781C51.4922 77.9531 51.7969 78.164 54.9609 78.164C58.6875 78.164 58.1719 78.5859 70.3594 65.414C76.9688 58.289 81.1406 53.5781 81.5156 52.8515C82.0781 51.7968 82.1484 51.4218 82.1484 49.3359C82.1484 47.3437 82.0781 46.8515 81.6094 45.9843C80.1797 43.3124 77.9766 41.9296 75.0234 41.789C73.9219 41.7421 72.8438 41.8593 72.2344 42.0468ZM76.9688 46.2656C77.4375 46.6171 77.9766 47.2031 78.1641 47.5781C78.6562 48.539 78.6094 50.3437 78.0703 51.2109C77.8359 51.5859 73.0547 56.8827 67.4297 62.9531C60.1172 70.8749 57 74.0859 56.4609 74.2734C55.4062 74.6484 54.2344 74.6015 53.3672 74.1327C52.4062 73.664 42.2578 63.8437 41.8125 62.9999C41.625 62.6484 41.4844 61.8515 41.4844 61.2187C41.4844 58.5468 44.2266 56.6952 46.7578 57.6562C47.1094 57.7968 48.7969 59.2499 50.5312 60.8906C52.2656 62.5312 53.8828 63.9609 54.1406 64.0781C55.2188 64.5702 55.8516 63.9843 64.0781 55.0781C68.5312 50.2499 72.5156 46.1015 72.9375 45.8671C74.0625 45.2578 75.8906 45.4218 76.9688 46.2656Z" />
</svg>
