<svg width="90" height="90" viewBox="0 0 90 90" fill="none" xmlns="http://www.w3.org/2000/svg">
<g clip-path="url(#clip0_660_4578)">
<path d="M1.01947 0.457047C-0.070369 1.03712 -5.65661e-05 -1.1953 -5.65661e-05 32.5195C-5.65661e-05 66.4805 -0.0879472 64.002 1.12494 64.582C1.66987 64.8457 3.05854 64.8633 15.7499 64.8281L29.7773 64.7754L30.5331 63.5098C31.2011 62.4199 31.289 62.1563 31.1835 61.6113L31.0781 60.9961H17.4726H3.86713V32.5195V4.04298H44.9999H86.1327V32.5195V60.9961H72.5273H58.9218L58.8163 61.6113C58.7109 62.1563 58.7988 62.4199 59.4667 63.5098L60.2226 64.7754L74.2499 64.8281C86.9413 64.8633 88.33 64.8457 88.8749 64.582C90.0878 64.002 89.9999 66.4805 89.9999 32.5195C89.9999 -1.30077 90.0702 1.01955 88.9452 0.439468C88.4882 0.210953 83.4784 0.175797 44.9648 0.175797C6.85541 0.193375 1.44135 0.228531 1.01947 0.457047Z" fill="#A3CBD3"/>
<path d="M19.248 11.0567C18.58 11.3379 18.246 11.918 18.0175 13.2363C17.7539 14.7656 17.4199 15.4863 16.541 16.4004C15.6972 17.3145 14.7832 17.7539 13.2187 18.0176C12.2343 18.1934 11.7949 18.3692 11.4433 18.7031L10.9863 19.1602L10.9335 32.2559C10.8808 46.5996 10.8457 46.1074 11.9179 46.6348C12.1816 46.7754 12.8144 46.9336 13.3066 46.9863C14.5546 47.127 15.6445 47.6367 16.4707 48.4629C17.3496 49.3418 17.7363 50.1856 18.0175 51.8028C18.1406 52.5235 18.3867 53.2617 18.5625 53.4551C19.125 54.0879 19.9335 54.1582 25.541 54.1055L30.955 54.0528L31.3593 52.9102C31.5703 52.2774 31.9218 51.4336 32.1328 51.0293L32.5195 50.2735L27.1406 50.2383L21.7617 50.1856L21.3574 49.0606C20.4082 46.4766 18.3339 44.4551 15.7324 43.5586L14.8535 43.2598L14.8007 32.4492C14.7656 21.9199 14.7656 21.6211 15.0996 21.6211C15.8203 21.6211 18.246 20.2149 19.2304 19.2129C20.2324 18.211 21.621 15.8027 21.621 15.0996C21.621 14.7656 22.2187 14.7656 45 14.7656C67.7812 14.7656 68.3789 14.7656 68.3789 15.0996C68.3789 15.8203 69.7675 18.1934 70.7871 19.2129C71.8066 20.2324 74.1796 21.6211 74.9003 21.6211C75.2343 21.6211 75.2343 21.9199 75.1992 32.4492L75.1464 43.2598L74.2675 43.5586C71.666 44.4551 69.5918 46.4766 68.6425 49.0606L68.2382 50.1856L62.8593 50.2383L57.4804 50.2735L57.8671 51.0293C58.0781 51.4336 58.4296 52.2774 58.6406 52.9102L59.0449 54.0528L64.4589 54.1055C67.9394 54.1406 70.1015 54.0879 70.5234 53.9649C71.4199 53.7012 71.8242 53.1211 71.9472 51.8731C72.2285 49.2012 74.0742 47.2852 76.6582 46.9863C77.1855 46.9336 77.8183 46.7754 78.082 46.6348C79.1543 46.1074 79.1191 46.5996 79.0664 32.2559L79.0136 19.1602L78.5566 18.7031C78.205 18.3692 77.7656 18.1934 76.7812 18.0176C75.2168 17.7539 74.3027 17.3145 73.4589 16.4004C72.58 15.4863 72.246 14.7656 71.9824 13.2188C71.8066 12.2344 71.6308 11.7949 71.2968 11.4434L70.8398 10.9863L45.2109 10.9512C31.1308 10.9336 19.4414 10.9863 19.248 11.0567Z" fill="#A3CBD3"/>
<path d="M33.3633 32.625C32.8359 32.9063 32.3438 33.6973 32.3438 34.2773C32.3438 34.875 32.8359 35.6484 33.3984 35.9473C33.8379 36.1758 35.4375 36.2109 45 36.2109C54.5625 36.2109 56.1621 36.1758 56.6016 35.9473C57.1641 35.6484 57.6562 34.875 57.6562 34.2773C57.6562 33.6797 57.1641 32.9063 56.6016 32.6074C55.8457 32.2207 34.084 32.2207 33.3633 32.625Z" fill="#A3CBD3"/>
<path d="M34 28H56" stroke="#FFE695" stroke-width="3" stroke-linecap="round"/>
<circle cx="45" cy="59" r="13" stroke="#FFE695" stroke-width="3"/>
<path d="M32.5 67L21.6087 81.8122C21.0578 82.5614 21.7382 83.591 22.6433 83.378L27.3468 82.2713C27.9497 82.1295 28.5353 82.5642 28.5739 83.1824L28.813 87.0073C28.8729 87.9663 30.119 88.2971 30.6467 87.4941L40.5 72.5" stroke="#FFE695" stroke-width="3" stroke-linecap="round"/>
<path d="M57 67L67.8913 81.8122C68.4422 82.5614 67.7618 83.591 66.8567 83.378L62.1532 82.2713C61.5503 82.1295 60.9647 82.5642 60.9261 83.1824L60.687 87.0073C60.6271 87.9663 59.381 88.2971 58.8533 87.4941L49 72.5" stroke="#FFE695" stroke-width="3" stroke-linecap="round"/>
</g>
<defs>
<clipPath id="clip0_660_4578">
<rect width="90" height="90" fill="white"/>
</clipPath>
</defs>
</svg>
