<svg width="90" height="90" viewBox="0 0 90 90" fill="none" xmlns="http://www.w3.org/2000/svg">
<g clip-path="url(#clip0_660_4555)">
<path d="M32.1492 0.105531C31.9019 0.193472 31.1423 0.211061 30.4711 0.158296C26.7792 -0.0879383 23.37 2.2337 22.1865 5.78651C22.0981 6.06792 21.8332 6.1031 19.9078 6.1031C17.9293 6.1031 17.6644 6.13828 17.1168 6.50763C16.3219 7.03528 15.7566 7.8971 15.6153 8.82927L15.5093 9.60316L9.64475 9.65591C3.97448 9.70868 3.78018 9.72627 3.05594 10.1132C1.87242 10.7288 1.11286 11.5027 0.529931 12.6459L0 13.7188V49.8098V85.9007L0.547596 86.9912C0.918548 87.7475 1.37782 88.3103 1.97841 88.7676C3.63886 90.0867 1.7841 89.9988 29.8528 89.9988C57.9215 89.9988 56.0667 90.0867 57.7272 88.7676C58.5574 88.1344 59.7056 86.3229 59.7056 85.6721C59.7056 85.4786 62.108 85.4259 72.7419 85.3907L85.7606 85.3379L86.7498 84.8806C87.9686 84.3002 88.9931 83.3153 89.5761 82.1544L90 81.2926V42.6865V4.08046L89.5761 3.21864C88.9931 2.05782 87.9686 1.07288 86.7498 0.492466L85.7606 0.0351725L59.1757 7.14233e-07C44.5496 7.14233e-07 32.3965 0.0351784 32.1492 0.105531ZM85.3189 4.11563C85.5662 4.27393 85.8489 4.53775 85.9725 4.69604C86.2728 5.0654 86.3081 79.9207 86.0079 80.5539C85.9019 80.7826 85.6016 81.0992 85.3189 81.2575C84.8773 81.5213 83.6585 81.5565 72.265 81.5565H59.7056V47.6464V13.7188L59.1757 12.6459C58.5927 11.5027 57.8332 10.7288 56.6497 10.1132C55.9254 9.72627 55.7311 9.70868 50.0608 9.65591L44.1963 9.60316L44.0903 8.82927C43.949 7.8971 43.3837 7.03528 42.5888 6.50763C42.0412 6.13828 41.7763 6.1031 39.7978 6.1031C37.6958 6.1031 37.5898 6.08551 37.5015 5.73375C37.4485 5.52269 37.2188 5.01264 37.0069 4.59052L36.6183 3.81664H60.7478C83.1992 3.81664 84.9127 3.83422 85.3189 4.11563ZM31.16 4.20358C31.6016 4.34428 32.2022 4.74881 32.7144 5.24128C33.527 6.05034 33.7743 6.59557 34.0039 8.05539C34.1452 8.9348 34.6752 9.56798 35.4701 9.79662C35.8234 9.88456 37.0599 9.97251 38.208 9.97251H40.2748V12.171V14.3696H29.8528H19.4308V12.171V9.97251H21.5152C22.6457 9.97251 23.8822 9.88456 24.2355 9.79662C25.0304 9.56798 25.5604 8.9348 25.7017 8.05539C25.9313 6.59557 26.1786 6.05034 26.9912 5.24128C28.1747 4.06287 29.5348 3.7287 31.16 4.20358ZM15.5447 14.2288C15.5447 14.651 15.633 15.3017 15.739 15.6887C16.0039 16.6033 17.1874 17.7817 18.106 18.0455C19.0952 18.3093 40.6104 18.3093 41.5996 18.0455C42.5182 17.7817 43.7017 16.6033 43.9666 15.6887C44.0726 15.3017 44.1609 14.651 44.1609 14.2288V13.4901H49.5486H54.9539L55.3778 13.9299L55.8194 14.352V49.7042C55.8194 69.1392 55.7664 85.1796 55.7134 85.3379C55.3955 86.147 56.2257 86.1294 29.8528 86.1294C3.47988 86.1294 4.31011 86.147 3.99215 85.3379C3.93916 85.1796 3.88616 69.1392 3.88616 49.7042V14.352L4.32777 13.9299L4.75172 13.4901H10.157H15.5447V14.2288Z" fill="#A3CBD3"/>
<path d="M30.9611 33.2727C29.819 33.8045 29.6784 34.8 30.6272 35.5364L31.2246 36H39.4124C45.3687 36 47.7055 35.9591 48.0394 35.8364C48.9179 35.5227 49.3044 34.35 48.7246 33.7091C48.0921 33 48.0394 33 39.4826 33C31.9099 33 31.4882 33.0136 30.9611 33.2727Z" fill="#A3CBD3"/>
<path d="M11.9236 43.8784C10.3868 44.267 9.94515 46.1747 11.1463 47.1816L11.6939 47.6409H29.8176C46.7401 47.6409 47.9766 47.6055 48.3298 47.3229C49.1247 46.687 49.3544 45.4328 48.8245 44.6556C48.1709 43.7194 48.7008 43.7547 29.8176 43.7724C20.1728 43.79 12.1179 43.843 11.9236 43.8784Z" fill="#A3CBD3"/>
<path d="M30.9304 63.7861C29.6409 64.4927 29.7998 66.5947 31.1777 67.1777C32.0609 67.5486 47.7645 67.5486 48.6477 67.1777C50.0432 66.5947 50.2375 64.8283 49.0363 63.8568C48.7007 63.5741 47.9412 63.5388 40.0098 63.5565C33.1561 63.5565 31.266 63.5918 30.9304 63.7861Z" fill="#A3CBD3"/>
<path d="M11.5701 74.6496C10.6163 75.0559 10.1746 76.3277 10.6692 77.2816C11.2698 78.4475 10.1393 78.3945 30.0471 78.3415L48.0824 78.2885L48.5947 77.7056C49.3542 76.8753 49.3189 75.9038 48.5063 75.0912L47.9058 74.4907L29.9234 74.5083C20.0137 74.5083 11.7644 74.579 11.5701 74.6496Z" fill="#A3CBD3"/>
<path d="M14 32L17.5 35L24.5 27" stroke="#FFE695" stroke-width="3" stroke-linecap="round"/>
<path d="M14 64L17.5 67L24.5 59" stroke="#FFE695" stroke-width="3" stroke-linecap="round"/>
</g>
<defs>
<clipPath id="clip0_660_4555">
<rect width="90" height="90" fill="white"/>
</clipPath>
</defs>
</svg>
