<svg width="90" height="90" viewBox="0 0 90 90" xmlns="http://www.w3.org/2000/svg">
<g clip-path="url(#clip0_948_4128)">
<path d="M80 88.8298V90.3298H81.5V88.8298H80ZM10 88.8298H8.5V90.3298H10V88.8298ZM10 75.3298L8.51375 75.1272L8.5 75.228V75.3298H10ZM20 61.3298L19.4091 59.9511L19.3504 59.9763L19.2941 60.0063L20 61.3298ZM34 59.8298L35.0607 58.7691L34.7293 58.4378L34.2683 58.354L34 59.8298ZM80 75.3298H81.5V75.228L81.4862 75.1272L80 75.3298ZM70 61.3298L70.7059 60.0063L70.6496 59.9763L70.5909 59.9511L70 61.3298ZM56 59.8298L55.7317 58.354L55.2707 58.4378L54.9393 58.7691L56 59.8298ZM28.5 60.5C28.5 59.6716 27.8284 59 27 59C26.1716 59 25.5 59.6716 25.5 60.5H28.5ZM25.5 73.5C25.5 74.3284 26.1716 75 27 75C27.8284 75 28.5 74.3284 28.5 73.5H25.5ZM28.5 82.5C28.5 81.6716 27.8284 81 27 81C26.1716 81 25.5 81.6716 25.5 82.5H28.5ZM25.5 88.5C25.5 89.3284 26.1716 90 27 90C27.8284 90 28.5 89.3284 28.5 88.5H25.5ZM64.5 60.5C64.5 59.6716 63.8284 59 63 59C62.1716 59 61.5 59.6716 61.5 60.5H64.5ZM61.5 73.5C61.5 74.3284 62.1716 75 63 75C63.8284 75 64.5 74.3284 64.5 73.5H61.5ZM64.5 82.5C64.5 81.6716 63.8284 81 63 81C62.1716 81 61.5 81.6716 61.5 82.5H64.5ZM61.5 88.5C61.5 89.3284 62.1716 90 63 90C63.8284 90 64.5 89.3284 64.5 88.5H61.5ZM23 29.5C22.1716 29.5 21.5 30.1716 21.5 31C21.5 31.8284 22.1716 32.5 23 32.5V29.5ZM67.5 31V32.5C67.7961 32.5 68.0856 32.4123 68.3321 32.2481L67.5 31ZM69.5 26.5L68.0291 26.7942L69.5 26.5ZM65.5 22.5C64.6716 22.5 64 23.1716 64 24C64 24.8284 64.6716 25.5 65.5 25.5L65.5 22.5ZM67 25.5C67.8284 25.5 68.5 24.8284 68.5 24C68.5 23.1716 67.8284 22.5 67 22.5V25.5ZM22.5 24V22.5C22.2039 22.5 21.9144 22.5877 21.6679 22.7519L22.5 24ZM20.5 28.5L21.9709 28.2058L20.5 28.5ZM24.5 32.5C25.3284 32.5 26 31.8284 26 31C26 30.1716 25.3284 29.5 24.5 29.5L24.5 32.5ZM63.9768 31.2374C63.8318 30.4218 63.0531 29.8782 62.2374 30.0232C61.4218 30.1682 60.8782 30.9469 61.0232 31.7626L63.9768 31.2374ZM44.8611 54.5064C44.0362 54.5832 43.4297 55.3141 43.5064 56.1389C43.5832 56.9638 44.3141 57.5703 45.1389 57.4936L44.8611 54.5064ZM28.8379 31.7626C28.9829 30.9469 28.4393 30.1682 27.6236 30.0232C26.808 29.8782 26.0292 30.4218 25.8842 31.2374L28.8379 31.7626ZM44.7221 57.4936C45.547 57.5703 46.2779 56.9638 46.3546 56.1389C46.4314 55.3141 45.8249 54.5832 45 54.5064L44.7221 57.4936ZM24.2284 32.3112C24.9526 31.9089 25.2135 30.9957 24.8112 30.2715C24.4088 29.5474 23.4956 29.2864 22.7715 29.6888L24.2284 32.3112ZM26.3507 42.9926C27.175 43.075 27.9101 42.4736 27.9925 41.6493C28.075 40.8249 27.4735 40.0899 26.6492 40.0074L26.3507 42.9926ZM67.1935 30.1888C66.4693 29.7864 65.5561 30.0474 65.1538 30.7715C64.7515 31.4957 65.0124 32.4089 65.7366 32.8112L67.1935 30.1888ZM63.3157 40.5074C62.4914 40.5899 61.89 41.3249 61.9724 42.1493C62.0549 42.9736 62.7899 43.575 63.6143 43.4926L63.3157 40.5074ZM22.5011 22.9424C22.4693 23.7702 23.1145 24.4671 23.9424 24.4989C24.7702 24.5307 25.4671 23.8855 25.4989 23.0576L22.5011 22.9424ZM36.5 17.5C36.5 18.3284 37.1716 19 38 19C38.8284 19 39.5 18.3284 39.5 17.5H36.5ZM64.5011 23.0576C64.5329 23.8855 65.2298 24.5307 66.0577 24.4989C66.8855 24.4671 67.5307 23.7702 67.4989 22.9424L64.5011 23.0576ZM50.5 17.5C50.5 18.3284 51.1716 19 52 19C52.8284 19 53.5 18.3284 53.5 17.5H50.5ZM36 52.5C36 51.6716 35.3284 51 34.5 51C33.6716 51 33 51.6716 33 52.5H36ZM33 59.5178C33 60.3463 33.6716 61.0178 34.5 61.0178C35.3284 61.0178 36 60.3463 36 59.5178H33ZM57 52.5C57 51.6716 56.3284 51 55.5 51C54.6716 51 54 51.6716 54 52.5H57ZM54 59.5178C54 60.3463 54.6716 61.0178 55.5 61.0178C56.3284 61.0178 57 60.3463 57 59.5178H54ZM80 87.3298H45V90.3298H80V87.3298ZM45 87.3298H10V90.3298H45V87.3298ZM11.5 88.8298V75.3298H8.5V88.8298H11.5ZM11.4862 75.5325C11.9456 72.164 13.7685 66.3532 20.7059 62.6534L19.2941 60.0063C11.2315 64.3063 9.05441 71.1623 8.51375 75.1272L11.4862 75.5325ZM20.5909 62.7085C22.725 61.7939 28.5894 60.3707 33.7317 61.3056L34.2683 58.354C28.4106 57.289 21.9417 58.8657 19.4091 59.9511L20.5909 62.7085ZM32.9393 60.8905L43.9393 71.8904L46.0607 69.7691L35.0607 58.7691L32.9393 60.8905ZM43.5 70.8298V88.8298H46.5V70.8298H43.5ZM81.5 88.8298V75.3298H78.5V88.8298H81.5ZM81.4862 75.1272C80.9456 71.1623 78.7685 64.3063 70.7059 60.0063L69.2941 62.6534C76.2315 66.3532 78.0544 72.164 78.5138 75.5325L81.4862 75.1272ZM70.5909 59.9511C68.0583 58.8657 61.5894 57.289 55.7317 58.354L56.2683 61.3056C61.4106 60.3707 67.275 61.7939 69.4091 62.7085L70.5909 59.9511ZM54.9393 58.7691L43.9393 69.7691L46.0607 71.8904L57.0607 60.8905L54.9393 58.7691ZM19 62V87.5H22V62H19ZM67.75 60.4978V88.0023H70.75V60.4978H67.75ZM25.5 60.5V73.5H28.5V60.5H25.5ZM25.5 82.5V88.5H28.5V82.5H25.5ZM61.5 60.5V73.5H64.5V60.5H61.5ZM61.5 82.5V88.5H64.5V82.5H61.5ZM23 32.5H67.5V29.5H23V32.5ZM68.3321 32.2481C69.2226 31.6543 70.0469 30.8767 70.5645 29.834C71.094 28.7673 71.2395 27.5491 70.9709 26.2058L68.0291 26.7942C68.1829 27.5631 68.0785 28.095 67.8773 28.5002C67.6643 28.9294 67.2774 29.3457 66.6679 29.7519L68.3321 32.2481ZM70.9709 26.2058C70.6283 24.4931 69.6876 23.4427 68.4519 22.9279C67.3768 22.4799 66.1888 22.5 65.5 22.5L65.5 25.5C66.3112 25.5 66.8733 25.5201 67.2981 25.6971C67.5625 25.8073 67.8717 26.0069 68.0291 26.7942L70.9709 26.2058ZM67 22.5H22.5V25.5H67V22.5ZM21.6679 22.7519C20.7774 23.3457 19.9531 24.1233 19.4355 25.166C18.906 26.2327 18.7605 27.4509 19.0291 28.7942L21.9709 28.2058C21.8171 27.4369 21.9215 26.905 22.1227 26.4998C22.3357 26.0706 22.7226 25.6543 23.3321 25.2481L21.6679 22.7519ZM19.0291 28.7942C19.3717 30.5069 20.3124 31.5573 21.5481 32.0721C22.6232 32.5201 23.8112 32.5 24.5 32.5L24.5 29.5C23.6888 29.5 23.1267 29.4799 22.7019 29.3029C22.4375 29.1927 22.1283 28.9931 21.9709 28.2058L19.0291 28.7942ZM61.0232 31.7626C61.6517 35.2981 61.5669 40.6856 59.3475 45.3139C57.1812 49.8314 52.9303 53.7558 44.8611 54.5064L45.1389 57.4936C54.2697 56.6442 59.4355 52.0686 62.0525 46.6111C64.6164 41.2644 64.6816 35.2019 63.9768 31.2374L61.0232 31.7626ZM25.8842 31.2374C25.1795 35.2019 25.2446 41.2644 27.8086 46.6111C30.4256 52.0686 35.5914 56.6442 44.7221 57.4936L45 54.5064C36.9308 53.7558 32.6799 49.8314 30.5136 45.3139C28.2942 40.6856 28.2094 35.2981 28.8379 31.7626L25.8842 31.2374ZM22.7715 29.6888C20.0408 31.2058 18.4184 34.2026 18.8272 37.0973C19.0354 38.5709 19.7696 39.9649 21.0722 41.0332C22.3619 42.091 24.1333 42.7708 26.3507 42.9926L26.6492 40.0074C24.8667 39.8292 23.7006 39.309 22.9746 38.7136C22.2616 38.1288 21.9021 37.4166 21.7977 36.6777C21.5816 35.1474 22.4591 33.2942 24.2284 32.3112L22.7715 29.6888ZM65.7366 32.8112C67.5058 33.7942 68.3834 35.6474 68.1672 37.1777C68.0629 37.9166 67.7034 38.6288 66.9903 39.2136C66.2644 39.809 65.0983 40.3292 63.3157 40.5074L63.6143 43.4926C65.8317 43.2708 67.6031 42.591 68.8928 41.5332C70.1954 40.4649 70.9296 39.0709 71.1377 37.5973C71.5466 34.7026 69.9242 31.7058 67.1935 30.1888L65.7366 32.8112ZM25.4989 23.0576C25.5725 21.1426 26.3734 17.6587 28.3827 14.5675C30.3619 11.5226 33.4497 8.94014 38.1422 8.49324L37.8578 5.50676C32.0503 6.05986 28.2215 9.31076 25.8673 12.9325C23.5433 16.508 22.5941 20.5241 22.5011 22.9424L25.4989 23.0576ZM36.5 7V17.5H39.5V7H36.5ZM39.4709 7.29417C39.657 6.36363 39.8193 5.3816 40.2471 4.58363C40.4455 4.21333 40.6677 3.95529 40.9141 3.78813C41.146 3.6308 41.477 3.5 42 3.5V0.5C40.923 0.5 39.9957 0.78587 39.2297 1.30562C38.4781 1.81555 37.9628 2.495 37.6029 3.16637C36.914 4.45173 36.6764 5.96971 36.5291 6.70583L39.4709 7.29417ZM67.4989 22.9424C67.4059 20.5241 66.4567 16.508 64.1327 12.9325C61.7785 9.31076 57.9497 6.05986 52.1422 5.50676L51.8578 8.49324C56.5503 8.94014 59.6381 11.5226 61.6173 14.5675C63.6266 17.6587 64.4275 21.1426 64.5011 23.0576L67.4989 22.9424ZM50.5 7V17.5H53.5V7H50.5ZM53.4709 6.70583C53.3236 5.96971 53.086 4.45173 52.3971 3.16637C52.0372 2.495 51.5219 1.81555 50.7703 1.30562C50.0043 0.78587 49.077 0.5 48 0.5V3.5C48.523 3.5 48.854 3.6308 49.0859 3.78813C49.3323 3.95529 49.5545 4.21333 49.7529 4.58363C50.1807 5.3816 50.343 6.36363 50.5291 7.29417L53.4709 6.70583ZM33 52.5V59.5178H36V52.5H33ZM54 52.5V59.5178H57V52.5H54ZM42 3.5H48V0.5H42V3.5Z" />
</g>
<defs>
<clipPath id="clip0_948_4128">
<rect width="90" height="90" fill="white"/>
</clipPath>
</defs>
</svg>
