<svg width="90" height="90" viewBox="0 0 90 90" fill="none" xmlns="http://www.w3.org/2000/svg">
<g clip-path="url(#clip0_660_4566)">
<path d="M41.0449 0.105484C39.0586 0.298843 36.1055 0.773453 34.541 1.14259C19.7402 4.62306 8.45508 15.2051 5.57227 28.3184C5.32617 29.4258 5.08008 30.832 5.00977 31.4649C4.74609 34.4004 4.79883 34.2246 3.76172 34.9102C3.23438 35.2617 2.53125 35.877 2.17969 36.2813C1.30078 37.3008 0.386719 39.2695 0.175781 40.6055C-0.0527344 42.1172 -0.0527344 60.3633 0.175781 61.875C0.28125 62.5078 0.632812 63.5977 0.984375 64.3008C2.46094 67.3067 5.76562 69.2578 9.08789 69.0469L10.1953 68.9766V78.8731V88.7695L10.7051 89.332L11.2148 89.9121L44.8242 89.9649C75.0938 90 78.4688 89.9824 78.9434 89.7188C79.9805 89.1914 79.9805 89.1914 79.9805 78.627V68.9942L81.0176 69.0469C83.25 69.1875 85.7988 68.168 87.4512 66.5156C88.5938 65.3906 89.5781 63.457 89.8242 61.875C90.0527 60.3457 90.0527 42.1172 89.8066 40.6055C89.4551 38.3731 88.0312 36.1055 86.2559 34.9277C85.2891 34.2949 85.2715 34.2598 85.166 33.2578C84.7793 29.5488 84.3047 27.2285 83.4609 24.7852C79.0137 12.1289 66.832 2.7422 51.8555 0.439468C50.0977 0.158218 42.7148 -0.0527191 41.0449 0.105484ZM48.0762 4.04298C62.209 5.20314 73.6523 12.4277 78.7148 23.3789C79.9102 25.9453 80.8945 29.5137 81.1406 32.1856L81.2637 33.3633L80.3145 33.4863C79.1016 33.6621 77.748 34.1192 76.8516 34.6992C76.4473 34.9453 76.0957 35.1563 76.043 35.1563C76.0078 35.1563 75.9199 34.8574 75.8496 34.4883C75.6211 33.2051 74.3027 29.584 73.4238 27.7734C68.8184 18.2988 59.6074 11.9004 48.8848 10.7227C45.8789 10.3887 41.0801 10.582 38.3555 11.1445C27.0176 13.5352 18.457 21.0762 14.9414 31.8164C14.5723 32.9238 14.2207 34.1367 14.1504 34.4883C14.0801 34.8574 13.9922 35.1563 13.957 35.1563C13.9043 35.1563 13.5527 34.9453 13.1484 34.6992C12.252 34.1367 10.8984 33.6621 9.70312 33.4863C8.80664 33.3633 8.78906 33.3457 8.78906 32.7832C8.78906 31.9746 9.24609 29.4082 9.68555 27.8262C11.4258 21.4805 15.3984 15.75 21.0762 11.4434C28.2656 5.97658 38.2324 3.23439 48.0762 4.04298ZM50.959 14.9238C56.3906 16.1016 61.207 18.668 64.8633 22.3418C66.8848 24.3633 68.3613 26.4199 69.6973 29.0039C70.6289 30.832 71.9121 34.3301 72.1582 35.7188L72.2812 36.3867H67.7461L63.1934 36.3692L60.4688 32.291C58.0781 28.7051 57.6738 28.1953 57.0938 27.9668C56.5137 27.7559 56.373 27.7734 55.7754 28.0547C55.2305 28.3359 54.6328 29.0742 52.3828 32.3789L49.6758 36.3867H33.6973H17.7188L17.8418 35.7188C17.8945 35.3672 18.2637 34.1543 18.6328 33.0293C22.0254 22.8164 30.2695 16.1016 41.3965 14.5195C41.6953 14.4844 43.541 14.4668 45.5273 14.4844C48.4805 14.5195 49.4648 14.6074 50.959 14.9238ZM61.3301 39.9902C61.7695 40.2012 62.7539 40.2539 67.3242 40.2539H72.7734V50.7305C72.7734 62.209 72.7207 63.0527 71.7188 66.4453C69.1523 75.0586 62.4551 81.9492 53.9648 84.7266C50.7129 85.7988 48.9727 86.0449 44.9121 86.0449C41.959 86.0449 41.0801 85.9746 39.4102 85.6406C35.8242 84.9199 32.3438 83.4785 29.2852 81.4395C27.2637 80.1035 24.1699 77.168 22.7461 75.2871C21.6738 73.8633 19.8633 70.875 19.8633 70.5234C19.8633 70.3652 21.2344 70.3125 26.1035 70.3125H32.3438V68.3789V66.4453L25.2773 66.4102L18.2109 66.3574L18.0703 65.8301C17.9824 65.5313 17.7715 64.4063 17.5781 63.3164C17.2617 61.4707 17.2266 60.4863 17.2266 50.7832V40.2539L34.3477 40.2188C51.1875 40.166 51.4688 40.166 51.8555 39.8145C52.0664 39.6211 53.209 38.0567 54.3691 36.3516L56.4961 33.2227L58.6582 36.4746C60.1172 38.6719 60.9785 39.7969 61.3301 39.9902ZM10.9336 37.916C12.0586 38.5488 12.9023 39.6914 13.166 40.957C13.4297 42.1875 13.4297 60.293 13.166 61.5234C12.8848 62.8067 12.0586 63.9317 10.8984 64.582C10.0547 65.0567 9.75586 65.127 8.61328 65.127C7.4707 65.127 7.17188 65.0567 6.32812 64.582C5.15039 63.9317 4.32422 62.7891 4.04297 61.4531C3.91992 60.8203 3.86719 57.3926 3.90234 50.6777L3.95508 40.8516L4.48242 39.7969C5.04492 38.707 6.11719 37.8106 7.27734 37.4414C8.2793 37.1426 9.91406 37.3535 10.9336 37.916ZM83.7246 37.916C84.6738 38.4434 85.4473 39.3574 85.8164 40.3945C86.1504 41.3438 86.1504 61.1367 85.8164 62.0859C85.4473 63.1406 84.6738 64.0371 83.6543 64.5996C82.8457 65.0391 82.5117 65.1094 81.3867 65.1094C80.2617 65.1094 79.9277 65.0391 79.1191 64.5996C78.1172 64.0371 77.5371 63.4219 77.0449 62.2969C76.7637 61.6641 76.7285 60.7676 76.6758 51.8906C76.6406 45.5801 76.6934 41.8359 76.8164 41.168C77.0801 39.7617 77.7832 38.707 78.9082 38.0215C79.998 37.3711 80.4199 37.2656 81.8086 37.3711C82.4941 37.4238 83.127 37.5996 83.7246 37.916ZM14.7656 68.1504C15.873 71.5957 17.4727 74.6719 19.5996 77.502C21.4629 79.9805 24.7148 83.0215 27.2812 84.7266L29.4082 86.1328H21.7266H14.0625V76.6758C14.0625 68.4492 14.0977 66.9727 14.3438 66.9727C14.3613 66.9727 14.5547 67.5 14.7656 68.1504ZM76.1133 76.6582V86.1328H68.3613H60.5918L62.7539 84.709C68.4844 80.9121 72.9492 75.0586 75.1465 68.4317C75.4805 67.377 75.6914 67.0254 75.8672 67.0957C76.0781 67.166 76.1133 68.6602 76.1133 76.6582Z" fill="#A3CBD3"/>
<path d="M33 73V64C33 63.4477 33.4477 63 34 63H54C54.5523 63 55 63.4477 55 64V73C55 73.5523 54.5523 74 54 74H34C33.4477 74 33 73.5523 33 73Z" stroke="#FFE695" stroke-width="2" stroke-linecap="round"/>
</g>
<defs>
<clipPath id="clip0_660_4566">
<rect width="90" height="90" fill="white"/>
</clipPath>
</defs>
</svg>
