<svg width="42" height="42" viewBox="0 0 42 42" fill="none" xmlns="http://www.w3.org/2000/svg">
<path d="M3.04842 36.066V13.4638C3.04842 12.2399 4.07263 11.764 4.58473 11.424H7.65736M3.04842 36.066H1C1 37.3708 1.5121 40.1842 3.56052 41.0001H38.3837C39.4079 40.6602 41.3539 39.2664 40.9442 36.4107H38.8958M3.04842 36.066L38.8958 36.4107M38.8958 36.4107V12.9538C38.7251 12.4439 38.1788 11.424 37.3594 11.424H34.7989M34.7989 11.424H34.2868L26.0931 15.8173M34.7989 11.424C35.311 10.4041 35.8231 8.87433 33.7747 7.85446L26.0931 3.775M7.65736 11.424L20.9721 18.5631L26.0931 15.8173M7.65736 11.424C6.97456 10.7441 6.01863 9.07833 7.65736 7.8545L19.9479 1.22537C20.2893 1.05539 21.0745 0.817424 21.4842 1.22537L24.0447 2.75513M26.0931 15.8173L20.9721 9.89419M26.0931 15.8173V24.1723M26.0931 24.1723C25.0689 25.3622 23.635 27.7418 26.0931 27.7418C28.5512 27.7418 27.1174 25.3622 26.0931 24.1723Z"  stroke-width="0.6" stroke-linecap="round" stroke-linejoin="round"/>
<path d="M11.7546 13.9736H5.60938V33.3511H8.682" stroke-width="0.6" stroke-linecap="round" stroke-linejoin="round"/>
<path d="M11.7543 13.9736C11.7543 16.1833 12.0957 19.2429 13.8027 20.6028C15.5097 21.9626 18.9238 24.1723 25.069 22.6425C26.1997 22.361 30.7022 20.6028 29.678 13.9736H36.3353V33.3511H11.2422" stroke-width="0.6" stroke-linecap="round" stroke-linejoin="round"/>
</svg>
