<svg width="116" height="83" viewBox="0 0 116 83" xmlns="http://www.w3.org/2000/svg">
<path d="M55.5484 0.504601C53.6703 1.14182 42.5606 4.69964 31.0806 8.33711C26.1342 9.90361 18.2252 12.3994 13.4903 13.8862C8.75548 15.3996 3.78258 16.9661 2.46 17.3644L0 18.1344V21.3736V24.6128L1.13742 24.2676C5.18452 22.9932 10.369 21.3736 16.7968 19.2761C20.8703 17.9751 24.6265 16.7803 25.129 16.6475C26.0813 16.382 38.3548 12.5056 50.549 8.60262C54.411 7.35473 57.691 6.34579 57.8232 6.34579C57.9555 6.34579 61.209 7.35473 65.071 8.57607C75.5458 11.9215 103.743 20.8691 111.15 23.179C113.292 23.8694 115.223 24.48 115.461 24.5597C115.832 24.719 115.858 24.3473 115.805 21.4798L115.726 18.214L113.477 17.4706C112.234 17.0723 109.272 16.1431 106.865 15.3731C104.457 14.6297 100.728 13.4349 98.5323 12.7446C96.3632 12.0277 90.0942 10.0629 84.6452 8.33711C79.1961 6.6113 71.049 4.03587 66.5787 2.60212C62.1084 1.14182 58.1142 -0.0264168 57.7174 0.000133514C57.3206 0.000133514 56.3419 0.239092 55.5484 0.504601Z" />
<path d="M8.99353 39.8V52.0134H12.0355H15.0774V39.8V27.5866H12.0355H8.99353V39.8Z" />
<path d="M39.413 39.8V52.0134H42.4549H45.4968V39.8V27.5866H42.4549H39.413V39.8Z" />
<path d="M70.0968 39.8V52.0134H73.1387H76.1807V39.8V27.5866H73.1387H70.0968V39.8Z" />
<path d="M100.781 39.8664V52.0798H103.823H106.865V39.8664V27.653H103.823H100.781V39.8664Z" />
<path d="M0 64.3595V67.4129H19.389C40.4445 67.4129 39.889 67.3863 43.1955 68.9528C45.1529 69.8556 48.089 72.5106 49.3587 74.502C50.5226 76.2809 51.5806 79.5201 51.5806 81.1928V82.5469H57.7968H64.0129V81.5379C64.0129 80.0776 64.7006 77.6615 65.6794 75.6436C66.8168 73.3072 69.8852 70.2273 72.2129 69.0856C75.7045 67.3863 75.149 67.4129 96.3368 67.4129H115.594V64.3595V61.3062H96.1781C74.911 61.3062 74.5142 61.3327 70.9168 62.8727C64.7006 65.5278 60.0716 71.0238 58.3787 77.7677L57.7703 80.2104L57.2942 78.0067C56.6858 75.1126 56.051 73.5992 54.3052 70.9707C51.951 67.3332 48.3006 64.2799 44.4387 62.7134C41.0265 61.3327 40.3652 61.3062 19.4155 61.3062H0V64.3595Z" />
</svg>
