<svg width="54" height="54" viewBox="0 0 54 54" fill="none" xmlns="http://www.w3.org/2000/svg">
<g clip-path="url(#clip0_963_4189)">
<path d="M9.70861 25.5V38C9.54194 39.5 10.4086 42.9 15.2086 44.5L25.7086 48M25.7086 48V39.5M25.7086 48L40.2086 42L42.2086 40.5M50.2086 20.5L50.3105 42.5M50.3105 42.5L50.2086 48M50.3105 42.5H52.2086M50.3105 42.5H48.2086M42.7086 24.5V30M25.2086 6L3.20861 16C1.54194 17 -0.791393 19.6 3.20861 22C7.20861 24.4 19.5419 29.6667 25.2086 32L48.7086 22C50.542 20.6667 52.8086 17.3 47.2086 14.5L25.2086 6Z" stroke="#A3CBD3" stroke-width="4" stroke-linecap="round" stroke-linejoin="round"/>
</g>
<defs>
<clipPath id="clip0_963_4189">
<rect width="54" height="54" fill="white"/>
</clipPath>
</defs>
</svg>
