<svg width="24" height="24" viewBox="0 0 24 24" fill="none" xmlns="http://www.w3.org/2000/svg">
<path fill-rule="evenodd" clip-rule="evenodd" d="M6.49511 1.00006H17.5061C20.5397 1.00006 23 3.45917 23 6.49517V17.5062C23 20.5397 20.5409 23.0001 17.5049 23.0001H6.49511C3.46033 23.0001 1 20.5409 1 17.5049V6.49517C1 3.46039 3.45911 1.00006 6.49511 1.00006V1.00006Z" stroke="#272727" stroke-linecap="round" stroke-linejoin="round"/>
<path d="M18.0487 5.53821C17.8214 5.53943 17.6368 5.72399 17.6368 5.95132C17.6368 6.17866 17.8226 6.36321 18.05 6.36321C18.2773 6.36321 18.4618 6.17866 18.4618 5.95132C18.4631 5.72277 18.2773 5.53821 18.0487 5.53821" stroke="#272727" stroke-linecap="round" stroke-linejoin="round"/>
<path d="M15.1111 8.88883C16.8294 10.6071 16.8294 13.3931 15.1111 15.1114C13.3928 16.8297 10.6069 16.8297 8.88859 15.1114C7.17028 13.3931 7.17028 10.6071 8.88859 8.88883C10.6069 7.17052 13.3928 7.17052 15.1111 8.88883" stroke="#272727" stroke-linecap="round" stroke-linejoin="round"/>
</svg>
