<svg width="120" height="85" viewBox="0 0 120 85" xmlns="http://www.w3.org/2000/svg">
<path d="M46.5234 0.632812L45.8672 1.28906L45.9844 4.38281L46.1016 7.45312L44.0859 8.08594C24.6797 13.9688 9.91406 30.1172 6 49.6875C5.0625 54.3516 4.92188 56.1797 4.92188 63.3516V70.125L3.75 71.4375C2.36719 72.9844 0.867188 75.9375 0.351562 78.0469C0.164062 78.8906 0 80.3672 0 81.3516C0 82.9688 0.046875 83.2031 0.609375 83.7656L1.24219 84.375H60H118.758L119.391 83.7656C119.953 83.2031 120 82.9688 120 81.3516C120 80.3672 119.836 78.8906 119.648 78.0469C119.156 75.9375 117.633 72.9844 116.273 71.4609L115.125 70.1719L115.031 62.2031C114.938 54.7969 114.891 54.0469 114.305 51.0703C112.078 39.6562 107.016 29.9297 99.1406 22.0312C92.6719 15.5391 84.3047 10.5234 75.5625 7.96875L73.8984 7.47656L74.0156 4.38281L74.1094 1.28906L73.4766 0.632812L72.8203 0H60H47.1797L46.5234 0.632812ZM69 6.25781C68.9297 7.14844 68.4141 15.3281 67.8516 24.4453C66.8438 40.7578 66.7969 41.0625 66.2109 42.375C64.9688 45.0938 62.7422 46.6406 60 46.6406C57.2578 46.6406 55.0312 45.0938 53.7891 42.375C53.2031 41.0625 53.1562 40.7578 52.1484 24.4453C51.5859 15.3281 51.0703 7.14844 51 6.25781L50.8594 4.6875H60H69.1406L69 6.25781ZM46.5 13.875C46.5703 14.5547 47.0156 21.0234 47.4609 28.2422C48.3047 42.1875 48.4219 43.0781 49.7344 45.4922C51.7734 49.3594 55.5234 51.5625 60 51.5625C64.4766 51.5625 68.2266 49.3594 70.2656 45.4922C71.5781 43.0547 71.6719 42.2344 72.6328 27.1172C73.125 19.2891 73.5938 12.7969 73.6641 12.7266C74.2266 12.1875 86.0156 17.2734 86.0156 18.0469C86.0156 18.1641 85.0547 21.8203 83.8828 26.1797C81.9375 33.4219 81.75 34.2422 81.8438 35.7422C82.0312 38.5312 83.6484 40.9688 86.1328 42.1875C87.1172 42.6797 87.6562 42.7734 89.4141 42.7734C91.8047 42.7734 93 42.3516 94.5703 40.9922C96.1406 39.6094 96.6328 38.5078 97.875 33.8906C98.5078 31.5 99.0938 29.5312 99.1875 29.5312C99.4453 29.5312 101.93 33.0234 103.289 35.3438C105.797 39.6094 107.578 43.9688 108.773 48.8672C109.734 52.7578 110.109 55.9922 110.297 61.8516L110.461 66.8672L109.898 66.6797C106.406 65.5781 109.945 65.6484 60 65.6484C10.125 65.6484 13.5469 65.5781 10.1484 66.6797C9.60938 66.8438 9.60938 66.8438 9.60938 64.1953C9.60938 62.7188 9.67969 61.125 9.75 60.6328L9.91406 59.7656H16.1719H22.4297L23.0625 59.1562C23.9297 58.2656 23.9297 56.5781 23.0625 55.6875L22.4297 55.0781H16.2422H10.0312L10.1953 54.0703C11.5078 45.3984 14.6484 37.6641 19.5 31.1016C20.1328 30.2344 20.7422 29.5312 20.8359 29.5312C20.9062 29.5312 21.4922 31.5 22.125 33.8906C23.3672 38.5078 23.8594 39.6094 25.4297 40.9922C27 42.3516 28.1953 42.7734 30.5859 42.7734C32.3203 42.7734 32.8828 42.6562 33.7969 42.2109C36.3281 40.9688 37.9688 38.5312 38.1562 35.7422C38.25 34.2422 38.0625 33.4219 36.1172 26.1797C34.9453 21.8203 33.9844 18.1641 33.9844 18.0469C33.9844 17.7891 37.7812 15.7266 39.8438 14.8594C41.7422 14.0625 45.7266 12.6562 46.1016 12.6562C46.2656 12.6562 46.4297 13.1719 46.5 13.875ZM31.4766 27.9609C32.4609 31.7109 33.2812 35.1094 33.2812 35.4844C33.2812 36.4688 31.7109 37.9688 30.6797 37.9688C29.6953 37.9688 28.8984 37.5703 28.3125 36.7969C27.8438 36.1641 24.7969 25.125 24.9844 24.7969C25.2422 24.3984 29.1797 21.0938 29.4141 21.0938C29.5547 21.0938 30.4688 24.1875 31.4766 27.9609ZM92.5547 22.5938C95.4844 25.0547 95.3672 24.1172 93.6328 30.5859C92.7891 33.6797 91.9219 36.4688 91.6875 36.7969C91.1016 37.5703 90.3047 37.9688 89.3203 37.9688C88.2891 37.9688 86.7188 36.4688 86.7188 35.4844C86.7188 34.5469 90.3047 21.0938 90.5625 21.0938C90.6562 21.0938 91.5469 21.7734 92.5547 22.5938ZM104.766 70.5469C108.82 71.0625 112.289 73.5234 114.023 77.1328C114.469 78.0703 114.844 79.0312 114.844 79.2656C114.844 79.6641 112.406 79.6875 60 79.6875C6.44531 79.6875 5.15625 79.6875 5.15625 79.2422C5.15625 79.0078 5.57812 77.9531 6.09375 76.9219C7.80469 73.5234 11.3438 70.9688 14.9297 70.5703C17.4141 70.2656 102.398 70.2656 104.766 70.5469Z" />
<path d="M30.1406 55.6875C29.6484 56.1797 29.5312 56.5312 29.5312 57.4219C29.5312 58.3125 29.6484 58.6641 30.1406 59.1562C30.6328 59.6484 30.9844 59.7656 31.875 59.7656C32.7656 59.7656 33.1172 59.6484 33.6094 59.1562C34.4766 58.2656 34.4766 56.5781 33.6094 55.6875C33.1172 55.1953 32.7656 55.0781 31.875 55.0781C30.9844 55.0781 30.6328 55.1953 30.1406 55.6875Z"/>
</svg>
