<svg width="24" height="22" viewBox="0 0 24 22" fill="none" xmlns="http://www.w3.org/2000/svg">
<path fill-rule="evenodd" clip-rule="evenodd" d="M1 5.05714V5.05714C1 5.74285 1.36667 6.31428 1.97778 6.77142L9.31111 11.4571C11.0222 12.4857 13.1 12.4857 14.8111 11.4571L22.1444 6.88571C22.6333 6.31428 23 5.74285 23 5.05714V5.05714C23 3.91428 22.0222 3 20.8 3H3.2C1.97778 3 1 3.91428 1 5.05714Z"  stroke-linecap="round" stroke-linejoin="round"/>
<path d="M1 5.28571V16.7143C1 17.9714 2.1 19 3.44444 19H20.5556C21.9 19 23 17.9714 23 16.7143V5.28571"  stroke-linecap="round" stroke-linejoin="round"/>
<path d="M1.71851 18.328L9.16673 11.3634"  stroke-linecap="round" stroke-linejoin="round"/>
<path d="M14.8848 11.4113L22.2817 18.3278"  stroke-linecap="round" stroke-linejoin="round"/>
</svg>
