<svg width="54" height="54" viewBox="0 0 54 54"  xmlns="http://www.w3.org/2000/svg">
<path fill-rule="evenodd" clip-rule="evenodd" d="M15.9239 24.5902C17.8147 23.2285 19.0458 21.0081 19.0458 18.5C19.0458 14.3578 15.6879 11 11.5458 11C7.40362 11 4.04577 14.3578 4.04577 18.5C4.04577 20.9614 5.23144 23.1458 7.0628 24.5133C4.98187 25.4689 3.53292 27.0829 2.5881 28.9116C1.12881 31.736 0.868891 35.0404 1.05093 37.2247C1.11971 38.0502 1.84475 38.6637 2.67031 38.5949C3.49587 38.5261 4.10937 37.8011 4.04055 36.9755C3.88925 35.1598 4.12939 32.4642 5.25341 30.2886C6.32208 28.2202 8.17822 26.6001 11.5458 26.6001C13.2592 26.6001 16.1639 27.3959 18.8758 30.5401L19.4649 31.3256C17.621 33.1308 15.7053 36.6989 16.0487 42.1937C16.1004 43.0205 16.8125 43.6489 17.6393 43.5972C18.4662 43.5455 19.0945 42.8334 19.0428 42.0065C18.6751 36.123 21.3281 33.4478 22.2617 32.9184C22.301 32.897 22.3398 32.8735 22.3778 32.8482C24.407 31.4954 26.6062 31.4642 27.2992 31.5797C27.3199 31.5832 27.3408 31.5862 27.3617 31.5887C27.38 31.591 27.3984 31.593 27.4168 31.5945C27.4348 31.5961 27.4528 31.5974 27.4709 31.5983C30.8805 31.7687 32.7672 33.4526 33.8414 35.5076C34.9652 37.6571 35.2009 40.2515 35.0514 41.9702C34.9797 42.7955 35.5905 43.5227 36.4158 43.5945C37.2411 43.6663 37.9684 43.0554 38.0402 42.23C38.224 40.1154 37.9597 36.9098 36.5001 34.1177C35.9955 33.1524 35.3488 32.2416 34.5398 31.4482C36.7374 26.9471 40.8589 26.4775 41.8801 26.5909C41.8936 26.5924 41.9071 26.5938 41.9206 26.5948C41.9622 26.5983 42.004 26.6001 42.0458 26.6001C45.8819 26.6001 47.8791 28.2861 48.9607 30.3077C50.1084 32.453 50.2821 35.1159 50.0574 36.9141C49.9546 37.7361 50.5377 38.4858 51.3597 38.5885C52.1818 38.6913 52.9315 38.1082 53.0342 37.2862C53.3094 35.0843 53.1332 31.7472 51.6059 28.8925C50.5644 26.9459 48.921 25.2831 46.5214 24.3646C48.2428 22.9904 49.3458 20.874 49.3458 18.5C49.3458 14.3578 45.988 11 41.8458 11C37.7037 11 34.3458 14.3578 34.3458 18.5C34.3458 20.9862 35.5555 23.1899 37.4185 24.5544C35.5198 25.4221 33.5074 26.9871 32.0663 29.6952C31.7371 29.5332 31.392 29.3864 31.0303 29.2566C32.974 27.9014 34.2457 25.6492 34.2457 23.1001C34.2457 18.9579 30.8879 15.6001 26.7457 15.6001C22.6036 15.6001 19.2457 18.9579 19.2457 23.1001C19.2457 25.7101 20.579 28.0087 22.6016 29.3521C22.3861 29.44 22.1694 29.5364 21.9524 29.6422L21.2458 28.7001C21.2263 28.6741 21.2059 28.6486 21.1847 28.6239C19.4824 26.6379 17.6541 25.36 15.9239 24.5902ZM11.5458 23.1263C8.99072 23.1263 6.91943 21.0551 6.91943 18.5C6.91943 15.9449 8.99072 13.8737 11.5458 13.8737C14.1008 13.8737 16.1721 15.9449 16.1721 18.5C16.1721 21.0551 14.1008 23.1263 11.5458 23.1263ZM22.1194 23.1001C22.1194 25.6552 24.1907 27.7264 26.7457 27.7264C29.3008 27.7264 31.3721 25.6552 31.3721 23.1001C31.3721 20.545 29.3008 18.4738 26.7457 18.4738C24.1907 18.4738 22.1194 20.545 22.1194 23.1001ZM41.8458 23.1263C39.2908 23.1263 37.2195 21.0551 37.2195 18.5C37.2195 15.9449 39.2908 13.8737 41.8458 13.8737C44.4009 13.8737 46.4722 15.9449 46.4722 18.5C46.4722 21.0551 44.4009 23.1263 41.8458 23.1263Z" fill="black"/>
</svg>
