<svg width="120" height="120" viewBox="0 0 120 120" xmlns="http://www.w3.org/2000/svg">
<path d="M5.43438 0.372966C2.94844 1.24136 0.720484 3.68225 0.204535 6.12314C0.0169175 7.015 -0.0299869 22.0828 0.0169175 60.738L0.0872741 114.132L0.720484 115.447C1.54131 117.09 2.99535 118.545 4.66045 119.366L5.95033 120H88.7366L90.0734 119.343C91.762 118.521 93.1222 117.16 93.943 115.47L94.5997 114.132L94.7169 66.9576L106.537 55.1052C113.01 48.5805 118.544 42.8773 118.826 42.4314C120.843 39.0047 120.209 34.5924 117.325 31.8698C115.449 30.0861 114.3 29.6402 111.603 29.6402C107.897 29.6402 107.967 29.5932 100.885 36.6342L94.7169 42.7599L94.67 24.3359L94.5997 5.93538L93.943 4.59758C93.1222 2.90774 91.762 1.54647 90.0734 0.725018L88.7366 0.0678551L47.6953 0.0209149C8.78804 -0.0260252 6.58354 -0.0260252 5.43438 0.372966ZM27.4091 9.33854H19.3181C10.5235 9.33854 10.1952 9.38548 9.63232 10.6294C9.23364 11.5213 9.23364 108.547 9.63232 109.438C10.2186 110.753 10.0545 110.729 24.8294 110.729C39.6042 110.729 39.4401 110.753 40.0264 109.438C40.3782 108.664 40.3782 108.101 40.0264 107.326C39.4401 106.035 39.487 106.035 26.2365 106.035H14.0413V14.0326H27.3387L27.4795 15.1826C27.7609 17.6235 29.684 20.0878 32.0057 20.9797C33.0845 21.4022 33.9523 21.4256 47.3435 21.4256C60.7347 21.4256 61.6024 21.4022 62.6812 20.9797C65.003 20.0878 66.9261 17.6235 67.2075 15.1826L67.3482 14.0326H80.6456V56.842L79.1212 58.391C77.6203 59.8931 77.5734 59.987 73.9617 68.0842C71.5696 73.4823 70.3266 76.5099 70.3266 77.0497C70.3266 78.1059 71.124 79.0212 72.2028 79.1855C72.8829 79.3029 73.7038 78.9978 76.7525 77.66C78.7929 76.7446 80.5049 75.9936 80.5518 75.9936C80.5987 75.9936 80.6456 82.753 80.6456 91.0144V106.035H68.4505C55.2 106.035 55.2469 106.035 54.6606 107.326C54.3088 108.101 54.3088 108.664 54.6606 109.438C55.2469 110.753 55.0827 110.729 69.8576 110.729C84.6325 110.729 84.4683 110.753 85.0546 109.438C85.2657 108.993 85.3361 104.392 85.3361 91.343V73.8578L87.5875 72.8251C88.8304 72.2384 89.8858 71.769 89.9327 71.769C90.003 71.769 90.003 81.1101 89.9796 92.5165C89.9092 113.1 89.9092 113.288 89.4167 113.945C89.1588 114.297 88.5725 114.79 88.1269 115.001C87.3764 115.4 84.9374 115.423 47.3435 115.423C9.74958 115.423 7.31055 115.4 6.53663 115.001C6.09104 114.79 5.48128 114.25 5.19986 113.804L4.66045 113.006V60.0574C4.66045 7.64869 4.66045 7.10888 5.1295 6.33437C5.38747 5.91191 5.92687 5.37209 6.34901 5.11392C7.09948 4.66799 7.56853 4.64452 17.2777 4.64452H27.4091V9.33854ZM62.5874 9.66712C62.5874 12.4366 62.4936 14.9714 62.3529 15.2999C62.2356 15.6285 61.79 16.1214 61.3679 16.3796C60.6174 16.8255 60.1718 16.849 47.3435 16.849C34.5151 16.849 34.0695 16.8255 33.3191 16.3796C32.8969 16.1214 32.4513 15.6285 32.3341 15.2999C32.1933 14.9714 32.0995 12.4366 32.0995 9.66712V4.64452H62.5874V9.66712ZM88.4083 5.18433C90.1203 6.3109 90.0265 5.02004 90.0265 27.4105V47.4774L85.3361 52.1714V31.7055C85.3361 16.3326 85.2657 11.0753 85.0546 10.6294C84.4918 9.38548 84.1634 9.33854 75.3689 9.33854H67.2779V4.64452H87.6109L88.4083 5.18433ZM113.221 34.5689C114.182 35.0383 115.073 36.2118 115.261 37.1506C115.519 38.6057 115.167 39.5915 113.948 40.8823L112.799 42.0793L110.102 39.3802L107.381 36.7047L108.155 35.9067C108.554 35.4607 109.234 34.8975 109.609 34.6628C110.453 34.1229 112.283 34.076 113.221 34.5689ZM106.865 42.7365L109.492 45.3651L88.3848 66.4882L82.9908 61.0901L93.474 50.5989C99.2667 44.8018 104.027 40.0844 104.098 40.0844C104.168 40.0844 105.411 41.2813 106.865 42.7365ZM82.4045 67.3097L84.2572 69.1638L83.2019 69.6332C82.639 69.8914 81.1147 70.572 79.8248 71.1353C78.5349 71.722 77.4561 72.168 77.4092 72.121C77.3154 72.0271 80.2469 65.432 80.4111 65.432C80.4814 65.432 81.3726 66.277 82.4045 67.3097Z"/>
<path d="M21.804 28.4432C20.6549 29.0769 20.6314 29.3116 20.608 37.9251C20.608 46.656 20.6549 46.9846 21.8978 47.5478C22.8594 47.9938 38.244 47.9468 39.1118 47.5009C40.2609 46.8907 40.3078 46.5386 40.3078 37.972C40.3078 29.4055 40.2609 29.0534 39.1118 28.4432C38.1971 27.9738 22.6483 27.9738 21.804 28.4432ZM35.6174 43.1355H25.2984V32.8086H35.6174V43.1355Z"/>
<path d="M66.457 30.3912C66.1991 30.4616 63.8538 32.6209 61.2506 35.226L56.5133 39.9435L54.4495 37.9486C53.3238 36.8455 52.1043 35.8597 51.7525 35.7659C50.7675 35.5312 49.5011 36.1648 49.1258 37.0802C48.5161 38.5119 48.821 39.0282 52.1277 42.3375C55.2703 45.4825 55.7394 45.7876 57.0761 45.4355C58.0142 45.2008 69.0602 34.1464 69.2713 33.2076C69.67 31.6351 68.0518 30.0392 66.457 30.3912Z"/>
<path d="M21.804 54.2603C20.6549 54.894 20.6314 55.1287 20.608 63.7422C20.608 72.4731 20.6549 72.8017 21.8978 73.3649C22.8594 73.8109 38.244 73.7639 39.1118 73.318C40.2609 72.7078 40.3078 72.3557 40.3078 63.7891C40.3078 55.2226 40.2609 54.8705 39.1118 54.2603C38.1971 53.7909 22.6483 53.7909 21.804 54.2603ZM35.6174 68.9526H25.2984V58.6257H35.6174V68.9526Z"/>
<path d="M66.457 56.2083C66.1991 56.2787 63.8538 58.438 61.2506 61.0431L56.5133 65.7606L54.4495 63.7657C53.3238 62.6626 52.1043 61.6768 51.7525 61.5829C50.7675 61.3482 49.5011 61.9819 49.1258 62.8973C48.5161 64.3289 48.821 64.8453 52.1277 68.1546C55.2703 71.2996 55.7394 71.6047 57.0761 71.2526C58.0142 71.0179 69.0602 59.9635 69.2713 59.0247C69.67 57.4522 68.0518 55.8562 66.457 56.2083Z"/>
<path d="M21.804 80.0774C20.6549 80.7111 20.6314 80.9458 20.608 89.5593C20.608 98.2902 20.6549 98.6187 21.8978 99.182C22.8594 99.628 38.244 99.581 39.1118 99.1351C40.2609 98.5249 40.3078 98.1728 40.3078 89.6062C40.3078 81.0396 40.2609 80.6876 39.1118 80.0774C38.1971 79.608 22.6483 79.608 21.804 80.0774ZM35.6174 94.7696H25.2984V84.4428H35.6174V94.7696Z"/>
<path d="M53.0893 82.1193C52.1043 82.4009 51.5649 83.1989 51.5649 84.3959C51.5649 85.3347 51.6821 85.5224 53.5818 87.4939L55.6221 89.6062L53.5818 91.7185C51.6821 93.7135 51.5649 93.8778 51.5649 94.8401C51.5649 95.638 51.7056 96.0136 52.1746 96.483C53.4645 97.7973 54.6371 97.4218 57.1231 94.9574L59.0461 93.0329L61.1334 95.0513C63.3144 97.1401 63.9007 97.4452 65.1906 97.0228C66.1756 96.6942 66.9026 95.3799 66.6681 94.3707C66.5743 93.9951 65.6362 92.8216 64.5105 91.6481L62.4936 89.6062L64.5105 87.5409C65.6362 86.3908 66.5743 85.2173 66.6681 84.8418C66.9026 83.8326 66.1756 82.5183 65.1906 82.1897C63.9007 81.7672 63.3144 82.0723 61.1334 84.1612L59.0461 86.1796L57.1231 84.255C55.1062 82.2366 54.2619 81.8142 53.0893 82.1193Z" />
<path d="M46.1943 106.364C44.154 107.49 45.0217 110.729 47.3435 110.729C48.5395 110.729 49.6887 109.579 49.6887 108.406C49.6887 106.646 47.7422 105.495 46.1943 106.364Z"/>
</svg>
