<svg width="26" height="26" viewBox="0 0 26 26" fill="none" xmlns="http://www.w3.org/2000/svg">
<path fill-rule="evenodd" clip-rule="evenodd" d="M13.3611 3.25V3.25C18.9458 3.25 23.4722 7.77641 23.4722 13.3611V13.3611C23.4722 18.9458 18.9458 23.4722 13.3611 23.4722V23.4722C7.77641 23.4722 3.25 18.9458 3.25 13.3611V13.3611C3.25 7.77641 7.77641 3.25 13.3611 3.25Z" stroke="#A3CBD3" stroke-width="1.5" stroke-linecap="round" stroke-linejoin="round"/>
<path d="M13.5417 14.0832V8.6665" stroke="#A3CBD3" stroke-width="1.5" stroke-linecap="round" stroke-linejoin="round"/>
<path d="M13.5406 17.8748C13.3911 17.8748 13.2698 17.9962 13.2708 18.1457C13.2708 18.2952 13.3922 18.4165 13.5417 18.4165C13.6912 18.4165 13.8125 18.2952 13.8125 18.1457C13.8125 17.9962 13.6912 17.8748 13.5406 17.8748" stroke="#A3CBD3" stroke-width="1.5" stroke-linecap="round" stroke-linejoin="round"/>
</svg>
