<svg width="52" height="52" viewBox="0 0 52 52"  xmlns="http://www.w3.org/2000/svg">
<path d="M5.77778 52C4.18889 52 2.82822 51.4347 1.69578 50.3042C0.565259 49.1718 0 47.8111 0 46.2222V5.77778C0 4.18889 0.565259 2.82822 1.69578 1.69578C2.82822 0.565259 4.18889 0 5.77778 0H46.2222C47.8111 0 49.1718 0.565259 50.3042 1.69578C51.4347 2.82822 52 4.18889 52 5.77778V46.2222C52 47.8111 51.4347 49.1718 50.3042 50.3042C49.1718 51.4347 47.8111 52 46.2222 52H5.77778ZM21.9556 36.9056C22.3407 36.9056 22.7019 36.8459 23.0389 36.7264C23.3759 36.6051 23.6889 36.4 23.9778 36.1111L40.3722 19.7167C40.9019 19.187 41.1667 18.537 41.1667 17.7667C41.1667 16.9963 40.8778 16.3222 40.3 15.7444C39.7704 15.2148 39.0963 14.95 38.2778 14.95C37.4593 14.95 36.7852 15.2148 36.2556 15.7444L21.9556 30.0444L15.6722 23.7611C15.1426 23.2315 14.4926 22.9667 13.7222 22.9667C12.9519 22.9667 12.2778 23.2556 11.7 23.8333C11.1704 24.363 10.9056 25.037 10.9056 25.8556C10.9056 26.6741 11.1704 27.3481 11.7 27.8778L19.9333 36.1111C20.2222 36.4 20.5352 36.6051 20.8722 36.7264C21.2093 36.8459 21.5704 36.9056 21.9556 36.9056Z" />
</svg>
