<svg width="42" height="42" viewBox="0 0 42 42" fill="none" xmlns="http://www.w3.org/2000/svg">
<path d="M37.8 41.0001H7.12092C6.245 41.0001 5.36246 40.8957 4.575 40.5121C3.02505 39.757 0.999884 38.2459 1 35.8001C1.00006 34.6124 1.40702 33.5059 1.99381 32.5538C3.78236 29.6517 8.35337 29.4001 11.7623 29.4001L35.7449 29.4001M37.4 32.2001C37.4725 32.2001 37.5456 32.1865 37.6187 32.1614C38.9407 31.7091 38.7439 29.7315 37.3703 29.4754C37.1011 29.4252 36.8338 29.4001 36.6 29.4001H35.7449M37.4 32.2001C36.7893 32.2001 18.1627 32.2001 7.65403 32.2001C6.68668 32.2001 5.66957 32.2528 4.88011 32.8119C4.29965 33.2229 3.80002 33.8825 3.80002 35.0001C3.80002 35.7079 3.90156 36.207 4.07512 36.5786C4.82696 38.1885 7.14814 38.2001 8.92494 38.2001H30.6M37.4 32.2001C36.7334 32.8668 35.8 35.0001 37.4 38.2001M35.7449 29.4001C36.1633 29.1334 36.92 28.4401 36.6 27.8001C36.2 27.0001 36.2 27.0001 35 26.6001M35 26.6001H16.6M35 26.6001C34.6 25.5334 33.96 23.0001 34.6 21.4001C34.7165 21.1089 34.8524 20.7868 35 20.4482M35 20.4482C35.6635 18.9266 36.5638 17.0726 37 16.2001L35 20.4482ZM35 20.4482L10.0208 20.5898C8.81911 20.5966 7.55165 20.7784 6.73314 21.6582C6.20936 22.2212 5.80002 22.9548 5.80002 23.8001C5.80002 25.8397 7.80002 26.6001 8.20002 26.6001C8.52002 26.6001 12.3334 26.6001 14.2 26.6001"   stroke-width="0.6" stroke-linecap="round"/>
<path d="M37 41.0001V41.0001C37.5313 41.0001 38.105 40.9809 38.4939 40.6188C38.7811 40.3514 39 39.9501 39 39.4001C39 38.2001 37.4 38.2001 36.6 38.2001H33"   stroke-width="0.6" stroke-linecap="round"/>
<path d="M26.2 32.6001V35.8001L27.8 35.0001L29.8 35.8001V32.2001"   stroke-width="0.6" stroke-linecap="round" stroke-linejoin="round"/>
<path d="M11.8 21V24.2L13.4 23.4L15.4 24.2V20.6"   stroke-width="0.6" stroke-linecap="round" stroke-linejoin="round"/>
<path d="M11.8 3.80005L1.80005 7.80005L8.20005 10.6L9.00005 11V11.4M9.00005 17.8C6.86672 18.3334 3.40005 19 3.40005 23.8C3.40005 28.6663 6.50024 29 7.50024 29.5M9.00005 17.8H31M9.00005 17.8C9.00005 17.8 9.00005 15.8497 9.00005 14.6M35.8 17.8H31M31 17.8V14.6M9.00005 11.4V9.40005C15.8 7.00005 28.6 8.06672 31 9.40005V14.6M9.00005 11.4C9.00005 11.4 9.00005 13.3504 9.00005 14.6M31 14.6H27M9.00005 14.6H23.8"   stroke-width="0.6" stroke-linecap="round" stroke-linejoin="round"/>
<path d="M39.4 16.2C41 14.28 39.4 12.6 38.1997 12.6C35.8 12.6 35.9879 15.6943 36.9997 16.2C37.8 16.6 38.8665 16.4667 39.4 16.2ZM39.4 16.2L41 20.2C40.8667 20.8667 40.2 21.4 38.2 21.4C37 21.4 35.4 21.48 35.4 20.2"   stroke-width="0.6" stroke-linecap="round" stroke-linejoin="round"/>
<path d="M38.2 12.6001V8.20006M38.2 8.20006L31 11.0001M38.2 8.20006L20.2 1.00006L15 3.00006"   stroke-width="0.6" stroke-linecap="round" stroke-linejoin="round"/>
</svg>
