<svg width="24" height="24" viewBox="0 0 24 24" fill="none" xmlns="http://www.w3.org/2000/svg">
<path d="M14.2611 6.82511C15.5102 8.07422 15.5102 10.0994 14.2611 11.3473C13.012 12.5952 10.9868 12.5964 9.73887 11.3473C8.49098 10.0982 8.48975 8.073 9.73887 6.82511C10.988 5.57722 13.012 5.576 14.2611 6.82511"  stroke-linecap="round" stroke-linejoin="round"/>
<path d="M12 12.2836V17.6418" stroke-linecap="round" stroke-linejoin="round"/>
<path fill-rule="evenodd" clip-rule="evenodd" d="M23 5.88889V18.1111C23 20.811 20.811 23 18.1111 23H5.88889C3.189 23 1 20.811 1 18.1111V5.88889C1 3.189 3.189 1 5.88889 1H18.1111C20.811 1 23 3.189 23 5.88889Z" stroke-linecap="round" stroke-linejoin="round"/>
</svg>
