<svg width="90" height="90" viewBox="0 0 90 90" fill="none" xmlns="http://www.w3.org/2000/svg">
<path d="M42.9388 13.0421C42.3939 13.253 4.14391 30.5499 3.33531 30.9542C1.94664 31.6749 1.55992 33.2393 2.56188 34.1358C2.77281 34.3292 5.58531 35.6651 8.78453 37.1065L14.6205 39.7257L14.638 51.169C14.638 60.837 14.6732 62.7354 14.9017 63.4737C16.1322 67.4991 22.6712 70.3292 34.0619 71.753C37.6654 72.2101 49.1263 72.1925 52.8705 71.753C58.2142 71.1026 62.1693 70.1886 65.5267 68.8351C68.5326 67.6222 70.5541 66.128 71.5033 64.3878L72.0306 63.4561L72.1185 51.6085L72.2064 39.7608L76.513 37.8097C80.7669 35.8761 81.429 35.7901 81.4817 35.2276L81.5228 33.7276H78.4817H74.4817L58.7591 41.589C49.1791 45.9308 43.4486 48.4268 43.2201 48.3741C43.0091 48.339 36.0482 45.2101 27.7337 41.4483C19.4193 37.669 11.7728 34.2061 10.7357 33.7491C9.68102 33.2745 8.83727 32.8526 8.83727 32.7823C8.83727 32.712 9.68102 32.2901 10.7357 31.8155C12.9857 30.8136 37.6654 19.6515 40.8998 18.1749C42.1478 17.6124 43.2904 17.1378 43.4134 17.1378C43.5365 17.1378 50.4447 20.214 58.7767 23.9933L73.9291 30.8487H78.6048H83.2806L81.5228 30.0401C71.2572 25.3292 44.0462 13.0948 43.6771 13.0245C43.4134 12.9893 43.0795 12.9893 42.9388 13.0421ZM30.8978 47.1261C39.722 51.1163 43.0091 52.5401 43.4662 52.5226C43.8705 52.505 48.0716 50.6944 55.7709 47.1964C62.2044 44.2784 67.6361 41.8175 67.8646 41.7296L68.2513 41.5714V52.0655V62.5421L67.4955 63.2628C65.474 65.214 59.6556 67.0245 52.6068 67.8858C50.5502 68.1495 48.7396 68.2022 43.2904 68.2022C36.0834 68.2022 33.8861 68.0089 29.0521 67.0597C24.64 66.1808 20.6146 64.5987 19.2084 63.1925L18.5052 62.4893V52.0128C18.5052 43.6983 18.558 41.5538 18.7338 41.6241C18.8392 41.6593 24.3236 44.1378 30.8978 47.1261Z" fill="#A3CBD3"/>
<path d="M53.9817 32.2277H81.9817C82.534 32.2277 82.9817 32.6754 82.9817 33.2277V59.2277M82.9817 59.2277C81.6484 59.061 78.7817 60.0277 77.9817 65.2277C77.2972 69.6766 77.296 73.7108 77.4143 75.8271C77.4429 76.34 77.8729 76.7277 78.3867 76.7277H86.5329C87.0648 76.7277 87.5038 76.312 87.5283 75.7807C87.6856 72.3776 87.8453 66.682 87.4817 65.2277C86.9817 63.2277 86.4817 59.7277 82.9817 59.2277Z" stroke="#FFE695" stroke-width="3" stroke-linecap="round"/>
</svg>
