<svg width="146" height="113" viewBox="0 0 146 113" fill="none" xmlns="http://www.w3.org/2000/svg">
<path d="M70.5484 15.5046C68.6703 16.1418 57.5606 19.6996 46.0806 23.3371C41.1342 24.9036 33.2252 27.3994 28.4903 28.8862C23.7555 30.3996 18.7826 31.9661 17.46 32.3644L15 33.1344V36.3736V39.6128L16.1374 39.2676C20.1845 37.9932 25.369 36.3736 31.7968 34.2761C35.8703 32.9751 39.6265 31.7803 40.129 31.6475C41.0813 31.382 53.3548 27.5056 65.549 23.6026C69.411 22.3547 72.691 21.3458 72.8232 21.3458C72.9555 21.3458 76.209 22.3547 80.071 23.5761C90.5458 26.9215 118.743 35.8691 126.15 38.179C128.292 38.8694 130.223 39.48 130.461 39.5597C130.832 39.719 130.858 39.3473 130.805 36.4798L130.726 33.214L128.477 32.4706C127.234 32.0723 124.272 31.1431 121.865 30.3731C119.457 29.6297 115.728 28.4349 113.532 27.7446C111.363 27.0277 105.094 25.0629 99.6452 23.3371C94.1961 21.6113 86.049 19.0359 81.5787 17.6021C77.1084 16.1418 73.1142 14.9736 72.7174 15.0001C72.3206 15.0001 71.3419 15.2391 70.5484 15.5046Z" fill="#FAFAFA"/>
<path d="M23.9935 54.8V67.0134H27.0355H30.0774V54.8V42.5866H27.0355H23.9935V54.8Z" fill="#FAFAFA"/>
<path d="M54.413 54.8V67.0134H57.4549H60.4968V54.8V42.5866H57.4549H54.413V54.8Z" fill="#FAFAFA"/>
<path d="M85.0968 54.8V67.0134H88.1387H91.1807V54.8V42.5866H88.1387H85.0968V54.8Z" fill="#FAFAFA"/>
<path d="M115.781 54.8664V67.0798H118.823H121.865V54.8664V42.653H118.823H115.781V54.8664Z" fill="#FAFAFA"/>
<path d="M15 79.3595V82.4129H34.389C55.4445 82.4129 54.889 82.3863 58.1955 83.9528C60.1529 84.8556 63.089 87.5106 64.3587 89.502C65.5226 91.2809 66.5806 94.5201 66.5806 96.1928V97.5469H72.7968H79.0129V96.5379C79.0129 95.0776 79.7006 92.6615 80.6794 90.6436C81.8168 88.3072 84.8852 85.2273 87.2129 84.0856C90.7045 82.3863 90.149 82.4129 111.337 82.4129H130.594V79.3595V76.3062H111.178C89.911 76.3062 89.5142 76.3327 85.9168 77.8727C79.7006 80.5278 75.0716 86.0238 73.3787 92.7677L72.7703 95.2104L72.2942 93.0067C71.6858 90.1126 71.051 88.5992 69.3052 85.9707C66.951 82.3332 63.3006 79.2799 59.4387 77.7134C56.0265 76.3327 55.3652 76.3062 34.4155 76.3062H15V79.3595Z" fill="#FAFAFA"/>
</svg>
