<svg width="90" height="90" viewBox="0 0 90 90" xmlns="http://www.w3.org/2000/svg">
<g clip-path="url(#clip0_948_4130)">
<path d="M41.6758 0.369141C41.2715 0.580078 40.7969 0.966797 40.6387 1.24805C40.4629 1.5293 40.2695 1.75781 40.1816 1.75781C39.707 1.75781 37.1406 3.02344 35.8398 3.88477C31.7266 6.62695 28.9316 11.3027 28.4922 16.1191L28.3691 17.4902L27.6484 17.5781C26.752 17.7012 26.084 18.123 25.6445 18.8613C25.3457 19.3359 25.293 19.7578 25.293 21.4453C25.293 23.3086 25.3281 23.5195 25.7324 24.1172L26.1719 24.75L25.7676 25.6113C25.2051 26.8418 25.2227 29.2676 25.8027 30.4453C26.6816 32.2383 28.3691 33.5918 30.2852 34.0137L31.1641 34.207L31.5332 35.7187C32.2539 38.5664 33.7832 41.1152 35.8574 42.9258L36.8945 43.8223V45.4394C36.8945 46.582 36.8242 47.0918 36.6836 47.1621C36.5605 47.2148 32.4648 48.7969 27.5781 50.7129C22.6914 52.6113 18.2617 54.4219 17.7344 54.7031C16.2051 55.5644 13.9023 58.0078 13.041 59.6777C11.7227 62.2441 11.5469 63.0879 11.4414 67.0957C11.3711 70.3477 11.3359 70.6641 11.0371 70.752C10.8613 70.8047 10.5625 71.1211 10.3516 71.4375C10.0352 71.9648 10 72.2988 10 74.8125C10 77.2734 10.0352 77.6777 10.3516 78.1699C10.5273 78.4688 10.8438 78.8203 11.0371 78.9258C11.3887 79.1016 11.4062 79.2598 11.4062 83.1094C11.4062 87.5039 11.5117 87.9785 12.5664 88.9805C13.7266 90.0527 12.4434 90 34.75 90C55.1055 90 55.123 90 55.5977 89.6309C56.2305 89.1387 56.2305 88.2246 55.5977 87.7324C55.1934 87.416 54.877 87.3633 53.4883 87.3633C52.5742 87.3633 51.8359 87.3281 51.8359 87.2754C51.8359 87.2402 51.2031 81.123 50.4297 73.7227C49.6562 66.3047 49.0234 60.0293 49.0234 59.748C49.0234 59.4844 49.1992 58.9746 49.3926 58.623C49.7617 58.0254 49.7969 57.9902 50.5 58.0957C50.9922 58.1836 51.4492 58.1309 51.8535 57.9551C52.1875 57.8144 53.9453 56.4609 55.7734 54.9492C58.4277 52.7519 59.166 52.2246 59.4648 52.3125C61.1875 52.8574 70.7148 56.707 71.4707 57.1641C73.5625 58.4121 75.4609 61.1719 76.0059 63.7383C76.1641 64.5117 76.2695 65.9707 76.2695 67.7109V70.4883H68.3594V67.3418C68.3594 64.4414 68.3242 64.1777 67.9902 63.7383C67.5332 63.1582 66.6016 63.1055 66.0742 63.6328C65.7227 63.9844 65.7227 64.2129 65.7227 75.6738V87.3633H63.1035C60.8184 87.3633 60.4316 87.3984 60.0801 87.6973C59.5176 88.1543 59.5176 89.209 60.0801 89.666C60.4668 89.9824 60.9238 90 68.2539 90C75.4258 90 76.0586 89.9648 76.709 89.666C77.0957 89.4902 77.623 89.1211 77.8867 88.8398C78.8184 87.8379 78.9062 87.3633 78.9062 83.0742C78.9062 79.2598 78.9238 79.1016 79.2754 78.9258C79.4688 78.8203 79.7852 78.4688 79.9609 78.1699C80.2773 77.6777 80.3125 77.2734 80.3125 74.8125C80.3125 72.2988 80.2773 71.9648 79.9609 71.4375C79.75 71.1211 79.4512 70.8047 79.2754 70.752C78.9766 70.6641 78.9414 70.3652 78.8535 67.1836C78.7656 63.1934 78.625 62.4551 77.3945 59.959C76.709 58.5703 76.3047 58.0254 75.0566 56.7773C74.2305 55.9336 73.1582 55.0371 72.666 54.7559C72.1914 54.4746 67.6738 52.6465 62.6465 50.6953L53.5059 47.1621L53.4004 43.8398L54.4551 42.9258C56.5293 41.1152 58.0586 38.5664 58.7793 35.7187L59.1484 34.207L60.0273 34.0137C61.9434 33.5918 63.4902 32.3789 64.4395 30.5508C64.8789 29.7246 64.9316 29.4434 64.9316 27.9492C64.9141 26.6484 64.8438 26.1035 64.5449 25.4883L64.1934 24.6973L64.5977 24.082C64.9844 23.5371 65.0195 23.291 65.0195 21.4453C65.0195 19.7578 64.9668 19.3359 64.668 18.8613C64.2285 18.123 63.5605 17.7012 62.6641 17.5781L61.9434 17.4902L61.8203 16.1191C61.3105 10.582 57.8301 5.4668 52.7852 2.88281C51.9941 2.46094 51.0273 2.03906 50.6406 1.93359C50.2012 1.79297 49.8496 1.5293 49.6387 1.19531C49.0762 0.228516 48.2324 0 45.1562 0C42.7305 0 42.3438 0.0351562 41.6758 0.369141ZM47.4766 5.99414C47.5293 9.28125 47.5469 9.35156 47.9512 9.68555C48.4785 10.125 49.2871 10.1074 49.7266 9.66797C50.043 9.35156 50.0781 9.08789 50.0781 6.94336C50.0781 5.64258 50.1309 4.57031 50.2188 4.57031C50.2891 4.57031 50.8867 4.85156 51.5547 5.18555C54.4551 6.67969 56.8105 9.1582 58.1113 12.0938C58.6562 13.3418 59.2188 15.6797 59.2188 16.752V17.5781L54.7012 17.543L50.166 17.4902L50.1133 15.873C50.0605 14.3613 50.0254 14.2207 49.6035 13.8867C49.0938 13.4824 48.8652 13.4648 48.2676 13.7285C47.6348 14.0098 47.4414 14.6074 47.4414 16.1719V17.5781H42.8711V2.63672H47.4238L47.4766 5.99414ZM40.1992 11.0215L40.1465 17.4902L35.6289 17.543L31.0938 17.5781V16.752C31.0938 15.6797 31.6562 13.3418 32.2012 12.0938C33.1855 9.86133 34.873 7.78711 36.8066 6.41602C37.8086 5.69531 39.8125 4.58789 40.1113 4.57031C40.1816 4.57031 40.2168 7.4707 40.1992 11.0215ZM62.3828 22.6758H27.9297V20.2148H62.3828V22.6758ZM31.0938 31.5L30.6191 31.3945C29.793 31.2012 28.7734 30.3574 28.334 29.5488C27.7539 28.4414 27.7891 27.4043 28.457 26.2266L28.9844 25.3125H31.0938V31.5ZM56.5469 29.918C56.4414 34.998 56.3711 35.4375 55.2461 37.6172C53.8223 40.3945 51.5195 42.3281 48.4961 43.2773C46.5801 43.875 43.7148 43.8398 41.7285 43.1894C38.7051 42.2051 36.2441 40.0781 34.9258 37.3535C33.9414 35.3144 33.748 33.9082 33.7305 29.2148V25.3125H56.6172L56.5469 29.918ZM61.9258 26.2266C62.5059 27.4043 62.5234 28.4941 61.9785 29.5488C61.5391 30.3574 60.5195 31.2012 59.7109 31.3945L59.2188 31.5V25.3125H61.4688L61.9258 26.2266ZM41.6406 45.9141C42.6777 46.1953 43.4512 46.2832 45.2441 46.2832C47.459 46.2832 48.0742 46.1777 50.3945 45.4394C50.7637 45.3164 50.7812 45.3516 50.7812 46.459V47.6016L48.7598 49.2891L46.7207 50.9766H45.0859C43.8027 50.9766 43.3984 50.9238 43.2051 50.6953C43.082 50.5371 42.1855 49.7637 41.2012 48.9551L39.4434 47.4785L39.4961 46.4062C39.5664 45.3867 39.584 45.334 39.9355 45.4219C40.1465 45.4922 40.9199 45.7031 41.6406 45.9141ZM39.5488 50.9941C40.498 51.7852 41.2891 52.4707 41.2891 52.5234C41.2891 52.5762 40.8848 53.2441 40.375 54C39.8125 54.8613 39.3906 55.3535 39.25 55.3008C38.8984 55.1602 34.0645 51.0996 34.1523 51.0293C34.2227 50.959 37.5801 49.6055 37.7383 49.5879C37.7734 49.5703 38.582 50.2207 39.5488 50.9941ZM54.5605 50.3789C55.4219 50.7129 56.1602 51.0293 56.1953 51.0644C56.2832 51.1348 51.1855 55.3711 51.0098 55.3711C50.9219 55.3535 50.4473 54.7207 49.9199 53.9297L48.9531 52.5059L49.6387 51.9609C50.0254 51.6621 50.8164 51.0117 51.3965 50.5019C52.0293 49.957 52.5566 49.623 52.7148 49.6758C52.8555 49.7285 53.6816 50.0449 54.5605 50.3789ZM34.4688 54.8613C36.2266 56.3203 37.8613 57.6387 38.1074 57.8144C38.3887 57.9902 38.916 58.0957 39.584 58.0957C40.6035 58.0957 40.6211 58.0957 41.0254 58.7988L41.4121 59.5019L39.9531 73.3887C39.1445 81.0176 38.4941 87.293 38.4766 87.3105C38.4766 87.3457 35.3477 87.3633 31.5332 87.3633H24.5898V75.6738C24.5898 64.2129 24.5898 63.9844 24.2383 63.6328C23.7109 63.1055 22.7793 63.1582 22.3223 63.7383C21.9883 64.1777 21.9531 64.4414 21.9531 67.3418V70.4883H14.0078L14.0781 67.1836C14.1484 64.1777 14.1836 63.791 14.623 62.5781C15.4316 60.293 17.1719 58.1309 19.1055 57.0059C19.8613 56.5664 30.6191 52.2598 31.041 52.2246C31.1641 52.207 32.7109 53.4023 34.4688 54.8613ZM47.248 54.6855C48.0566 55.8281 48.0566 55.8457 47.3535 56.9355L46.9141 57.6562H43.4336L42.3086 55.8984L43.7852 53.6133H46.4922L47.248 54.6855ZM46.457 61.1191C46.5098 61.5937 46.5977 62.4375 46.668 63.0176L46.7734 64.0723L45.3496 62.666C44.2422 61.5762 43.9258 61.1543 43.9258 60.7852C43.9258 60.293 43.9258 60.293 45.1387 60.293H46.3516L46.457 61.1191ZM47.3359 69.5039C47.4062 70.1895 47.4941 71.1387 47.5645 71.6309L47.6523 72.5098L45.4199 70.3125L43.2051 68.1152L43.3281 66.5332C43.3809 65.6543 43.4863 64.8809 43.5215 64.793C43.5742 64.7227 44.4355 65.4609 45.4199 66.4453L47.2305 68.2383L47.3359 69.5039ZM45.543 74.127L48.1094 76.7285L48.2852 78.5742C48.3906 79.5762 48.4609 80.4199 48.4434 80.4551C48.4082 80.4727 47.0723 79.1719 45.4375 77.5371L42.502 74.584L42.625 73.0723C42.6953 72.2285 42.8008 71.543 42.8535 71.543C42.9062 71.543 44.1191 72.7031 45.543 74.127ZM21.9531 76.6406H12.6367V73.125H21.9531V76.6406ZM77.6758 76.6406H68.3594V73.125H77.6758V76.6406ZM48.9355 84.9902C48.9707 85.1836 49.0586 85.7988 49.1113 86.3613L49.2168 87.3633H48.5488C47.916 87.3633 47.7227 87.2051 44.8223 84.3047L41.7812 81.2637L41.9043 80.0508C42.1152 77.6953 41.7988 77.5898 45.5254 81.3164C47.3535 83.1445 48.9004 84.7969 48.9355 84.9902ZM21.9531 87.3633H18.3145C15.1855 87.3633 14.6406 87.3281 14.3594 87.0645C14.0781 86.8008 14.043 86.4492 14.043 83.0215V79.2773H21.9531V87.3633ZM76.2695 83.0039C76.2695 86.2207 76.2344 86.7656 75.9707 87.0469C75.707 87.3281 75.3555 87.3633 72.0156 87.3633H68.3594V79.2773H76.2695V83.0039ZM42.7832 86.1328L43.9961 87.3633H41.1309L41.2363 86.3438C41.3242 85.3418 41.4121 84.9023 41.5 84.9023C41.5352 84.9023 42.1152 85.4473 42.7832 86.1328Z" />
</g>
<defs>
<clipPath id="clip0_948_4130">
<rect width="90" height="90" fill="white"/>
</clipPath>
</defs>
</svg>
