<svg width="54" height="54" viewBox="0 0 54 54"  xmlns="http://www.w3.org/2000/svg">
<path fill-rule="evenodd" clip-rule="evenodd" d="M27 26C33.3513 26 38.5 20.8513 38.5 14.5C38.5 8.14874 33.3513 3 27 3C20.6487 3 15.5 8.14874 15.5 14.5C15.5 20.8513 20.6487 26 27 26ZM27 22.8397C22.3941 22.8397 18.6603 19.1059 18.6603 14.5C18.6603 9.8941 22.3941 6.16034 27 6.16034C31.6059 6.16034 35.3397 9.8941 35.3397 14.5C35.3397 19.1059 31.6059 22.8397 27 22.8397Z" fill="black"/>
<path d="M14 48H11.0614C11.2924 45.075 12.2028 41.3102 14.2599 38.1266C16.6378 34.4465 20.5607 31.5 27 31.5C35.1435 31.5 39.4119 35.3966 41.6145 39.5193C42.737 41.6204 43.3317 43.8058 43.5849 45.6072C43.7113 46.5065 43.7498 47.2907 43.7321 47.9006C43.7311 47.9344 43.7299 47.9676 43.7286 48H19.9264C19.9581 47.2316 20.1069 46.3853 20.4423 45.6418C20.9321 44.5561 21.8116 43.664 23.5659 43.5H32C32.4636 43.5 33.1661 43.6325 33.7004 43.9691C34.1541 44.2549 34.5 44.6785 34.5 45.5C34.5 46.3284 35.1716 47 36 47C36.8284 47 37.5 46.3284 37.5 45.5C37.5 43.5215 36.5125 42.1951 35.2996 41.4308C34.1672 40.7175 32.8698 40.5 32 40.5H23.5C23.4584 40.5 23.4169 40.5017 23.3754 40.5052C20.3689 40.7557 18.5959 42.4393 17.7077 44.4082C16.8661 46.2739 16.8212 48.3547 17.0151 49.7122C17.1206 50.4511 17.7535 51 18.5 51H45C45.6133 51 46.1649 50.6266 46.3927 50.0571C46.6179 49.4941 46.7089 48.7407 46.7308 47.988C46.7541 47.1898 46.7028 46.2357 46.5557 45.1896C46.2621 43.1005 45.5755 40.5671 44.2605 38.1057C41.5881 33.1034 36.3565 28.5 27 28.5C19.4393 28.5 14.6122 32.0535 11.7401 36.4984C8.92029 40.8624 8 46.0404 8 49.5C8 50.3284 8.67157 51 9.5 51H14C14.8284 51 15.5 50.3284 15.5 49.5C15.5 48.6716 14.8284 48 14 48Z" fill="black"/>
</svg>
