<svg width="90" height="90" viewBox="0 0 90 90" fill="none" xmlns="http://www.w3.org/2000/svg">
<g clip-path="url(#clip0_948_4129)">
<path d="M56 55.5L70.5 60C80.1 62.8 82.1667 80.1667 82 88.5H7C7 76.5 10 66 16 61L33 55.5M56 55.5V53M56 55.5L53.5 67L46 58H43L36 67L33 55.5M33 55.5V53M39 64L41.5 68L39 87.5M50 64L47.5 68L50 87.5M8 82.5L20.2963 84M20.2963 84L21 74.5M20.2963 84L20 88M80.5 83L68.2037 84.5M68.2037 84.5L67.5 75M68.2037 84.5L68.5 88.5M27.5 27V38.5C27.5 39.1667 28.1 41.3 30.5 44.5C32.9 47.7 37.1667 51.1667 39 52.5H50.5C52.3333 51.1667 56.1 47.7 58.5 44.5C60.9 41.3 62 39.1667 62 38.5V27M43.9999 20H23.9999C22.6666 20 20.4 20.1 20 22.5C19.6 24.9 22.3333 26 23.9999 26H43.9999M44.4999 20H64.4999C65.8333 20 68.0999 20.1 68.4999 22.5C68.8999 24.9 66.1666 26 64.4999 26M64.4999 26H44.4999M64.4999 26C65.9999 27.5 69.0001 30 67.5001 34C66.6812 36.1839 63.8334 36.8333 62.5001 37.5M24.5 26C23 27.5 20 30 21.5 34C22.3189 36.1839 25.1667 36.8333 26.5001 37.5M24 19.0001C25.4707 13.8527 30.575 4.24121 40 2.32666M40 2.32666C41.2561 2.07151 43.0888 1.95296 44.5 2L40 2.32666ZM40 2.32666V15M40 1H49M65.5 19.0001C64.0293 13.8527 58.925 4.24121 49.5 2.32666M49.5 2.32666C48.2439 2.07151 45.4112 1.95296 44 2L49.5 2.32666ZM49.5 2.32666V15M49.5 1H40.5" stroke="#A3CBD3" stroke-width="3" stroke-linecap="round" stroke-linejoin="round"/>
</g>
<defs>
<clipPath id="clip0_948_4129">
<rect width="90" height="90" fill="white"/>
</clipPath>
</defs>
</svg>
