<svg width="42" height="42" viewBox="0 0 42 42" fill="none" xmlns="http://www.w3.org/2000/svg">
<path d="M1 9.71802V38.9488C1 39.6325 1.30938 41.0001 2.54688 41.0001C3.78439 41.0001 20.7269 41.0001 29.0435 41.0001C29.4926 41.0001 30.3908 40.6924 30.3908 39.4616C30.3908 38.2308 30.3908 33.8206 30.3908 31.7693" stroke="#154734" stroke-width="0.6" stroke-linecap="round" stroke-linejoin="round"/>
<path d="M12.3438 12.7949H26.2657" stroke="#154734" stroke-width="0.6" stroke-linecap="round" stroke-linejoin="round"/>
<path d="M11.8281 15.8718L18.0157 15.8718" stroke="#154734" stroke-width="0.6" stroke-linecap="round" stroke-linejoin="round"/>
<path d="M12.8594 21.0001L15.9531 21.0001" stroke="#154734" stroke-width="0.6" stroke-linecap="round" stroke-linejoin="round"/>
<path d="M12.8594 24.077L15.9531 24.077" stroke="#154734" stroke-width="0.6" stroke-linecap="round" stroke-linejoin="round"/>
<path d="M11.8281 32.2821L25.2344 32.2821" stroke="#154734" stroke-width="0.6" stroke-linecap="round" stroke-linejoin="round"/>
<rect x="4.90938" y="12.0693" width="4.55627" height="4.52821" rx="0.7" stroke="#154734" stroke-width="0.6"/>
<rect x="4.90938" y="20.7872" width="4.55627" height="4.52821" rx="0.7" stroke="#154734" stroke-width="0.6"/>
<rect x="4.90938" y="29.5052" width="4.55627" height="4.52821" rx="0.7" stroke="#154734" stroke-width="0.6"/>
<path d="M35.547 22.5385C35.547 25.0481 34.5734 27.4609 32.829 29.2743C31.0846 31.0876 28.704 32.1616 26.1831 32.2726C23.6623 32.3835 21.1956 31.5228 19.297 29.8698C17.3984 28.2168 16.2143 25.8989 15.9914 23.3992C15.7685 20.8994 16.524 18.4105 18.1006 16.451C19.6771 14.4915 21.953 13.2125 24.4541 12.8805C26.9553 12.5486 29.4888 13.1892 31.5267 14.669C33.5647 16.1487 35.1029 17.9292 35.547 20.3997" stroke="#154734" stroke-width="0.6" stroke-linecap="round"/>
<path d="M18.5206 23.0539C18.5313 23.0514 18.0156 21.0002 19.2772 18.8936C20.2327 17.2925 21.7781 16.1113 23.5914 15.596C25.4047 15.0807 27.3461 15.2711 29.011 16.1275C30.6759 16.9839 31.936 18.4402 32.5288 20.1931C33.1215 21.946 33.0012 23.8603 32.1928 25.537C31.3845 27.2138 29.9505 28.5238 28.1896 29.1941C26.4287 29.8644 24.4767 29.8433 22.7404 29.1352C21.004 28.427 19.8681 27.7347 19.1197 26.041" stroke="#154734" stroke-width="0.6" stroke-linecap="round"/>
<path d="M23.1719 22.5385L25.2344 24.077L28.3281 21.0001" stroke="#154734" stroke-width="0.6" stroke-linecap="round" stroke-linejoin="round"/>
<path d="M1 7.15391V2.0257C1 1.68382 1.20625 1.00006 2.03125 1.00006C2.85626 1.00006 16.1251 1.00006 22.6563 1.00006M22.6563 1.00006L29.8751 8.17955M22.6563 1.00006C22.6563 2.70946 22.6563 6.33339 22.6563 7.15391C22.6563 7.97442 23.0001 8.17955 23.172 8.17955H29.8751M29.8751 8.17955V13.3078" stroke="#154734" stroke-width="0.6" stroke-linecap="round" stroke-linejoin="round"/>
<path d="M34.196 32.9949L33.4844 33.8206C35.0313 35.8719 38.5375 39.4616 40.1875 37.4103C42.25 34.8462 39.7404 33.5638 40.1875 33.8206C40.5 34 37.9532 31.4274 36.5781 30.2308L36.1362 30.7437M34.196 32.9949L31.9375 30.7437M34.196 32.9949L36.1362 30.7437M36.1362 30.7437L34 28.6924" stroke="#154734" stroke-width="0.6" stroke-linecap="round" stroke-linejoin="round"/>
</svg>
