<svg width="96" height="121" viewBox="0 0 96 121" xmlns="http://www.w3.org/2000/svg">
<path d="M44.1885 1.80468C38.7276 5.6953 31.5792 9.84374 25.4385 12.6797C20.7276 14.8828 16.6026 16.4766 8.56355 19.2187C4.76668 20.5312 1.43855 21.75 1.1573 21.9375C0.89949 22.1016 0.501052 22.6172 0.266677 23.0625C-0.0848852 23.8359 -0.0848852 25.2187 0.24324 42.4922C0.43074 52.7109 0.71199 62.2969 0.829177 63.7734C2.14168 78.5625 8.68074 92.2266 19.4854 102.68C24.6886 107.719 27.6182 109.711 38.7042 115.781C45.6417 119.555 46.6026 120.023 47.5635 120.023C48.5479 120.023 49.5323 119.555 56.6573 115.687C67.4854 109.805 70.8839 107.508 75.876 102.727C78.1964 100.477 81.4073 96.8437 82.5792 95.1094C83.3526 93.9609 83.3292 92.8828 82.5089 92.1797C81.2667 91.125 80.7042 91.4062 78.337 94.3359C74.5401 99.0469 69.9932 103.195 64.9307 106.547C62.4464 108.187 48.0792 116.109 47.587 116.109C47.0479 116.109 33.1026 108.375 30.3604 106.547C15.4073 96.6328 5.89168 80.3672 4.48543 62.3672C4.41511 61.4062 4.25105 54.5391 4.11043 47.1328C3.99324 39.7266 3.82918 31.6875 3.75886 29.2969L3.61824 24.9375L8.61043 23.25C11.3526 22.3125 14.9151 21.0703 16.5323 20.4844C26.8214 16.7812 37.5089 11.2266 46.1104 5.1328L47.7042 4.0078L49.626 5.36718C60.337 12.7969 70.2276 17.6016 85.7432 22.875L91.7901 24.9375L91.6729 29.4141C91.5792 31.875 91.4151 39.9609 91.2745 47.3672C91.1573 54.7734 90.9464 61.9453 90.8057 63.3047C90.126 70.4766 88.3214 76.8984 85.1807 83.4375C84.2901 85.2891 83.5635 87.0937 83.5635 87.4453C83.5635 88.6641 85.1807 89.4844 86.376 88.8516C87.8526 88.0547 91.8604 78.2344 93.2667 71.9297C94.6729 65.6484 94.7432 64.5 95.1651 42.1406C95.4932 25.1953 95.4932 23.8359 95.1417 23.0625C94.9073 22.6172 94.5089 22.1016 94.2276 21.9141C93.9464 21.7266 90.9464 20.625 87.5479 19.4766C79.087 16.5703 75.712 15.2812 71.212 13.2422C64.1573 10.0547 57.6651 6.32812 51.3135 1.85155C47.7979 -0.609385 47.587 -0.609385 44.1885 1.80468Z" />
<path d="M47.0011 9.09375C46.8136 9.16406 45.7589 9.84375 44.6573 10.5703C39.2198 14.2031 29.8448 19.1719 23.2355 21.8906C21.4308 22.6406 17.3761 24.1406 14.212 25.2422C11.048 26.3438 8.23547 27.4453 8.00109 27.6797C7.53234 28.125 7.53234 28.4062 7.83703 44.6016C7.97765 53.6719 8.21203 62.1328 8.35265 63.4219C9.96984 80.1562 19.298 95.2734 33.5245 104.227C37.2277 106.57 46.8605 111.656 47.587 111.68C48.4308 111.68 58.9308 106.055 62.8214 103.5C74.0245 96.1875 82.1808 84.8203 85.5792 71.7422C87.1261 65.8359 87.337 62.3672 87.6886 39.1641C87.8292 28.3594 87.8292 28.0312 87.3839 27.6328C87.1495 27.3984 84.6886 26.4375 81.923 25.4766C76.462 23.5781 73.7433 22.5703 70.7198 21.2578C68.3995 20.2734 67.7902 20.2266 67.0402 21C66.3839 21.6562 66.2902 22.6406 66.8058 23.3906C67.3214 24.1172 74.7745 27.1641 81.337 29.3203C82.6261 29.7422 83.7745 30.1641 83.8917 30.2812C84.1495 30.5156 83.6339 59.4141 83.3058 62.8359C82.4152 72.1641 78.7355 81.4453 72.8058 89.2031C70.1105 92.7422 64.9542 97.5 60.8292 100.266C59.1417 101.391 47.9386 107.602 47.587 107.602C47.1886 107.602 36.3839 101.555 34.2745 100.148C21.923 91.9688 13.4855 77.8125 12.1027 62.9531C11.7745 59.4141 11.2589 30.5156 11.5167 30.2812C11.6339 30.1875 13.5323 29.4844 15.712 28.7344C23.2355 26.1797 30.548 23.0391 36.8058 19.6641C40.3683 17.7188 44.9152 15.0469 46.6964 13.8047L47.7042 13.125L49.0402 14.0391C50.9386 15.3047 55.087 17.7656 58.2042 19.4531C61.2511 21.0938 62.1417 21.2578 62.9152 20.2734C63.923 18.9844 63.4777 17.8828 61.5323 16.8984C59.1886 15.7031 54.0792 12.7266 51.2667 10.875C48.6652 9.1875 47.7277 8.78906 47.0011 9.09375Z" />
<path d="M40.9542 31.7343C40.1573 32.1796 39.8995 32.6718 38.5636 36.3984C37.462 39.4921 37.3448 39.914 37.6027 40.5234C37.9073 41.2265 38.7042 41.7421 39.5245 41.7421C40.3683 41.7421 41.0245 40.7343 42.0558 37.9218L43.0636 35.1796H48.7823H54.4777L52.7198 40.2656C48.6652 51.914 48.4073 52.7578 48.548 53.3203C48.8527 54.5624 49.3683 54.7499 52.9777 54.8671L56.3058 54.9843L53.0714 63.9843C51.0792 69.4921 49.8136 73.3124 49.8136 73.8515C49.8136 75.3984 50.0714 75.4687 55.087 75.539L59.5167 75.6093L53.7511 80.5078C50.5636 83.1796 47.8917 85.3593 47.7745 85.3359C47.6808 85.3124 45.0089 83.1093 41.8917 80.4374L36.173 75.6093L40.4152 75.4921C43.7667 75.3984 44.7042 75.3046 44.962 75.0234C45.3839 74.5781 49.5792 62.5312 49.5792 61.7812C49.5792 61.4999 49.3683 60.9843 49.087 60.6328L48.6183 60.0234H41.3527C37.3683 60.0234 34.1105 59.9296 34.1105 59.8359C34.1105 59.7187 35.1183 56.9062 36.337 53.5546C37.5558 50.2265 38.5636 47.2031 38.5636 46.8749C38.5636 45.3984 36.3839 44.6484 35.3527 45.7734C34.9073 46.3124 29.6573 60.3984 29.6573 61.1015C29.6573 61.8984 30.4308 63.0468 31.1808 63.3984C31.837 63.7031 33.0089 63.7734 38.423 63.7734C42.1495 63.7734 44.8917 63.8671 44.8917 63.9843C44.8917 64.1015 44.3058 65.8828 43.5792 67.9453L42.2667 71.7187L36.9933 71.789L31.7198 71.8593L31.0402 72.6328C30.1495 73.6171 30.0792 75.164 30.8995 76.0546C31.1808 76.3593 34.6495 79.3828 38.6105 82.7109C43.1105 86.5312 46.1339 88.9218 46.673 89.0859C47.9386 89.5078 49.2511 89.2499 50.3761 88.3593C50.8917 87.914 54.4073 84.9609 58.1808 81.7734C63.7823 77.0156 65.0714 75.8203 65.2355 75.164C65.5402 74.0624 65.3527 73.289 64.5323 72.5156L63.8527 71.8593L59.0948 71.7421L54.3605 71.6249L57.6183 62.5546C61.1105 52.8749 61.1339 52.8046 60.0089 51.6796C59.4698 51.1406 59.3058 51.1171 56.2589 51.1171C54.5245 51.1171 53.0948 51.0468 53.0948 50.9296C53.0948 50.8359 54.3605 47.1328 55.9073 42.7031C57.4542 38.2734 58.7198 34.289 58.7198 33.8437C58.7198 33.2343 58.5323 32.8359 57.923 32.2265L57.1261 31.4296H49.298C43.4855 31.4531 41.3527 31.5234 40.9542 31.7343Z" />
</svg>
