<svg width="90" height="90" viewBox="0 0 90 90"  xmlns="http://www.w3.org/2000/svg">
<path d="M7.26326 0.234772C3.81664 1.07876 0.897565 4.06789 0.194173 7.51418C0.0534943 8.16475 0.000739926 17.3959 0.000739926 38.6363C0.000739926 72.0969 -0.0695993 69.9166 1.16134 72.2727C1.93507 73.7321 3.7463 75.508 5.11792 76.1762C7.22809 77.2136 6.71813 77.1784 24.6195 77.1784H41.0612L41.7119 78.2862C44.631 83.227 50.2405 87.3239 56.4479 89.0294C60.6683 90.1899 66.1196 90.313 70.674 89.3811C76.1605 88.2382 81.4711 85.1084 84.9001 80.9588C89.8415 74.9981 91.2483 67.7187 88.8743 60.3866C87.4675 56.0435 83.2296 49.6609 77.3211 42.9441C76.4243 41.9243 75.4747 40.8341 75.1933 40.5001L74.701 39.9022L75.4923 39.1989C76.6529 38.1615 77.198 36.9659 77.198 35.4361C77.1804 32.9921 75.8615 31.3393 73.259 30.4953C72.9776 30.4074 73.259 30.0557 74.9647 28.315C77.3563 25.9061 77.7959 25.1324 77.7959 23.3741C77.7783 19.6289 73.8041 17.1321 70.5334 18.8025C70.1113 19.0135 69.6893 19.1366 69.5838 19.1014C69.4607 19.0487 69.2321 18.6267 69.0738 18.1519C68.5111 16.5343 66.8933 15.1628 65.1876 14.8463L64.5369 14.7232V11.4352C64.5369 7.7955 64.3787 6.8636 63.4643 5.05254C62.7433 3.61073 60.9145 1.78208 59.4725 1.06118C57.2568 -0.0641403 58.5581 -0.0113907 32.1809 0.00618744C13.4531 0.0237732 7.98424 0.0589371 7.26326 0.234772ZM57.8899 3.45248C59.3143 4.12064 60.4573 5.24596 61.1431 6.63502C61.6355 7.61967 61.6355 7.67242 61.6882 11.4528L61.741 15.2859L60.7914 16.2002C60.1056 16.886 59.7539 17.3959 59.5429 18.064C59.367 18.5915 59.1208 19.0487 58.9977 19.0839C58.8746 19.1366 58.4526 19.0135 58.0482 18.8201C57.6437 18.6091 56.9755 18.3981 56.5359 18.3278L55.7445 18.2223V16.1299C55.7445 14.776 55.6566 13.8441 55.4984 13.4748C55.1994 12.7188 54.1619 11.8396 53.3354 11.611C52.4034 11.3473 12.1342 11.3473 11.2023 11.611C10.3054 11.8572 9.40861 12.6836 9.05691 13.5979C8.81072 14.2309 8.77555 15.0046 8.82831 18.6443L8.88106 22.9697L9.35585 23.673C9.63721 24.095 10.1296 24.5346 10.5868 24.7632L11.3605 25.1324H31.1786H50.9791L51.278 25.6951C51.4363 26.0116 52.4914 27.2072 53.5992 28.3326C55.3049 30.0557 55.5687 30.4074 55.2873 30.4953C54.5488 30.7415 53.2651 31.3569 53.0892 31.5679C52.9486 31.7437 52.7551 31.7085 52.1748 31.4448C51.5242 31.1634 50.9791 31.1107 47.4269 31.1107C43.1538 31.1107 42.6087 31.1986 41.7119 32.0426C40.8678 32.8338 40.7095 33.3438 40.7095 35.5065C40.7095 37.9329 41.0261 38.7242 42.257 39.4627C43.0307 39.9022 43.0307 39.9022 47.4094 39.9022C51.4714 39.9022 51.8231 39.8847 52.3683 39.5506C52.9134 39.2165 52.9661 39.2165 53.3882 39.4803C53.6168 39.6385 53.7926 39.8495 53.775 39.9374C53.7399 40.0253 52.9661 40.9572 52.0517 42.0122L50.3812 43.9288L47.0401 43.9464C45.1761 43.9464 43.3824 44.0343 42.9956 44.1398C41.9756 44.4211 41.0612 45.4585 40.8151 46.5838C40.5689 47.7443 40.5689 49.3795 40.8326 50.3994C41.0612 51.3664 42.1339 52.5269 42.9076 52.6852C43.2066 52.7379 43.4352 52.8082 43.4352 52.861C43.4352 52.8962 42.9956 53.6522 42.4504 54.549C40.8854 57.1513 39.2676 60.8789 39.1973 62.1273C39.1797 62.3383 39.1093 61.7756 39.039 60.8965C38.8631 58.9096 38.4587 58.0304 37.4036 57.3974C36.6299 56.9579 36.6299 56.9579 32.2864 56.9579C27.4858 56.9579 27.3979 56.9754 26.4131 58.1008C25.6921 58.9096 25.6394 59.1733 25.7097 61.6525C25.7625 63.657 25.7801 63.7801 26.2724 64.4131C27.2044 65.6263 27.6792 65.7494 32.2337 65.7494C37.0343 65.7494 37.5619 65.6087 38.5466 64.079C38.8983 63.5515 38.8983 63.5515 38.7928 64.0087C38.2477 66.4703 38.6873 71.5342 39.672 74.0662C39.7775 74.3475 38.7752 74.3651 24.0567 74.3651C6.68296 74.3651 7.47428 74.4179 5.69821 73.2398C4.48486 72.431 3.60562 71.2353 3.166 69.7935C2.81431 68.6682 2.81431 68.299 2.84948 38.2318L2.90223 7.81309L3.39461 6.7581C4.23868 4.94704 6.04991 3.41731 7.86114 2.99532C8.24801 2.9074 19.0099 2.85465 32.6205 2.85465L56.7117 2.88982L57.8899 3.45248ZM52.6496 14.3364C52.8782 14.4243 52.931 14.8112 52.931 16.7629V19.0839L52.2276 19.7696C51.8407 20.1388 51.3483 20.8773 51.1373 21.3872L50.7505 22.3191L31.2313 22.284L11.6946 22.2312L11.6419 18.4684C11.6067 15.8486 11.6595 14.6353 11.8001 14.4771C11.976 14.2661 15.2643 14.2309 32.1809 14.2309C43.2945 14.2309 52.4914 14.2837 52.6496 14.3364ZM65.7679 18.1871C66.0492 18.4684 66.4185 19.0663 66.5768 19.541C67.0692 21.0356 68.3528 21.9675 69.9003 21.9675C70.1992 21.9675 70.8499 21.7741 71.3598 21.5279C72.4325 21.0356 73.1359 20.9828 73.8393 21.3345C74.7537 21.8092 75.2637 23.0752 74.912 24.0071C74.8065 24.2885 73.3997 25.8358 71.7819 27.4534L68.8452 30.4074H64.2732H59.6835L56.659 27.3655C53.652 24.3412 53.5289 24.1478 53.6168 23.1104C53.7047 21.9851 54.6543 21.0883 55.7621 21.0883C56.0962 21.0883 56.659 21.2466 57.0107 21.44C59.0505 22.5301 61.2662 21.6861 61.9696 19.541C62.2509 18.7322 62.9016 17.9234 63.4819 17.6948C64.0797 17.4486 65.2579 17.7124 65.7679 18.1871ZM73.2238 33.4844C74.7713 34.2229 74.7713 36.6142 73.2238 37.3527C72.3798 37.7571 56.1666 37.7571 55.3225 37.3527C54.1267 36.79 53.775 35.1196 54.6367 34.0998C54.8829 33.7833 55.2698 33.4668 55.4632 33.3965C55.6742 33.3086 59.6132 33.2383 64.238 33.2383C71.4126 33.2207 72.749 33.2558 73.2238 33.4844ZM51.1373 35.5416L51.1901 37.0889H47.4094C43.1362 37.0889 43.4352 37.212 43.4352 35.5065C43.4352 33.8009 43.1362 33.9064 47.3742 33.9592L51.0846 34.0119L51.1373 35.5416ZM73.1007 42.399C79.6247 49.696 83.9506 55.6567 85.6387 59.6832C87.8368 64.9933 87.7137 70.4089 85.2694 75.3146C82.3503 81.1698 76.5649 85.337 69.3728 86.7964C67.1571 87.236 61.3893 87.236 59.2615 86.7964C51.7 85.2315 46.0905 81.117 43.1538 74.9805C41.7822 72.0969 41.4129 70.4793 41.4305 67.244C41.4305 64.2548 41.7295 62.6899 42.8021 60.0349C44.5254 55.7622 48.7458 49.8894 55.4456 42.399L57.2217 40.4297H64.2732H71.3247L73.1007 42.399ZM47.8314 46.8476C47.8314 46.9003 47.3038 47.6564 46.6532 48.518L45.4574 50.1004H44.6661C44.2265 50.1004 43.7693 50.0125 43.6462 49.8894C43.5231 49.7664 43.4352 49.1685 43.4352 48.43C43.4352 47.6916 43.5231 47.0937 43.6462 46.9706C43.8572 46.7597 47.8314 46.6542 47.8314 46.8476ZM36.1199 60.0525C36.2782 60.4569 36.243 62.4614 36.0847 62.7251C35.9616 62.8834 35.0824 62.9361 32.2513 62.9009L28.576 62.8482L28.5233 61.3009L28.4705 59.7712H32.2513C35.522 59.7712 36.032 59.8063 36.1199 60.0525Z" />
<path d="M12.486 31.3913C10.9737 32.0419 10.5516 32.9388 10.5516 35.4886C10.5516 37.5987 10.6923 38.1614 11.3957 38.9C12.3101 39.8848 12.4684 39.9023 17.1459 39.9023C22.0873 39.9023 22.439 39.8144 23.3358 38.4604C23.7578 37.8273 23.8282 37.546 23.8809 36.0513C23.9688 34.029 23.7402 33.0794 22.9841 32.2178C22.0521 31.1627 21.7531 31.1099 17.1987 31.1099C13.9455 31.1275 12.9783 31.1803 12.486 31.3913ZM21.0146 34.328C21.0673 34.539 21.1025 35.2424 21.0673 35.8578L21.0146 37.0009L17.1987 37.0536L13.3652 37.0888V35.6292C13.3652 34.8203 13.418 34.0994 13.4883 34.0466C13.5411 33.9763 15.2468 33.9235 17.2514 33.9235H20.9267L21.0146 34.328Z" />
<path d="M27.5034 31.4441C27.0989 31.6199 26.5538 32.0771 26.2724 32.4464C25.7801 33.0794 25.7625 33.2025 25.7097 35.2072C25.6394 37.6867 25.6921 37.9504 26.4131 38.7593C27.3979 39.8848 27.4858 39.9023 32.2864 39.9023C36.6299 39.9023 36.6299 39.9023 37.4036 39.4627C38.6345 38.7242 38.9511 37.9328 38.9511 35.5061C38.9511 33.3432 38.7928 32.8333 37.9487 32.0419C37.0519 31.1979 36.5068 31.1099 32.2337 31.1099C28.6991 31.1099 28.1364 31.1627 27.5034 31.4441ZM36.1199 34.2049C36.2606 34.5566 36.2606 36.4557 36.1199 36.8074C36.032 37.0536 35.522 37.0888 32.2513 37.0888H28.4881V35.6292C28.4881 34.8203 28.5409 34.0994 28.6112 34.0466C28.664 33.9763 30.3697 33.9235 32.3744 33.9235C35.522 33.9235 36.032 33.9587 36.1199 34.2049Z" />
<path d="M12.7497 44.1564C11.8529 44.4729 11.3078 44.9653 10.9033 45.7918C10.5692 46.4952 10.534 46.8117 10.5868 48.6581C10.6395 50.5749 10.6747 50.8035 11.1143 51.4541C11.9408 52.7026 12.3804 52.8257 16.8294 52.8785C19.3792 52.9136 20.997 52.8609 21.4894 52.7378C22.4389 52.474 23.4589 51.4541 23.7226 50.5397C23.9688 49.6429 23.9688 47.2162 23.7226 46.3193C23.4764 45.4225 22.4389 44.385 21.5421 44.1388C20.6277 43.8926 13.4707 43.9102 12.7497 44.1564ZM20.8915 46.97C21.1904 47.2689 21.1728 49.6429 20.8563 49.9066C20.698 50.0473 19.5374 50.1001 17.0404 50.0649L13.4531 50.0121L13.4003 48.6229C13.3652 47.8492 13.3828 47.1282 13.4355 46.9876C13.5586 46.671 20.5749 46.6534 20.8915 46.97Z" />
<path d="M27.9254 44.1212C27.1517 44.3498 26.3955 44.9829 26.0263 45.7039C25.7273 46.2666 25.6746 46.7414 25.6746 48.4295C25.6746 50.8386 25.9383 51.5596 27.1165 52.3333L27.8375 52.8257L31.8468 52.8785C34.5021 52.9136 36.0848 52.8609 36.5947 52.7378C37.6146 52.4564 38.5642 51.4541 38.8456 50.399C39.0918 49.3615 39.0918 47.4975 38.8456 46.46C38.5818 45.4401 37.6146 44.4026 36.6651 44.1388C35.8562 43.9102 28.664 43.8926 27.9254 44.1212ZM36.0144 46.97C36.3134 47.2689 36.2958 49.6429 35.9792 49.9066C35.821 50.0473 34.6604 50.1001 32.1633 50.0649L28.5761 50.0121L28.5233 48.6229C28.4881 47.8492 28.5057 47.1282 28.5585 46.9876C28.6816 46.671 35.6979 46.6534 36.0144 46.97Z" />
<path d="M12.2222 57.2912C10.833 58.1529 10.5516 58.8387 10.5516 61.3709C10.5516 63.9559 10.9737 64.8351 12.5387 65.4857C13.0487 65.6968 13.9807 65.7495 17.2339 65.7495C21.7531 65.7495 22.0697 65.6968 22.9841 64.6417C23.7402 63.78 23.9688 62.8304 23.8809 60.8082C23.8282 59.3135 23.7578 59.0321 23.3358 58.3991C22.439 57.045 22.0873 56.9571 17.1108 56.9571C13.1718 56.9571 12.697 56.9923 12.2222 57.2912ZM21.0673 61.0016C21.1025 61.6171 21.0673 62.3205 21.0146 62.5315L20.9267 62.9359L17.1811 62.9008L13.4531 62.848L13.4004 61.3006L13.3476 59.7707L17.1811 59.8059L21.0146 59.8586L21.0673 61.0016Z" />
<path d="M63.5522 50.3113C63.0423 50.5575 62.7785 51.1905 62.7785 52.1927C62.7785 53.0367 62.7785 53.0543 62.1279 53.1774C61.7586 53.2477 61.0025 53.529 60.4397 53.828C56.5535 55.9028 56.1315 61.1953 59.666 63.5514C60.7739 64.2899 61.9344 64.6943 64.3611 65.2042C67.122 65.802 68.5815 66.7164 68.8629 67.9999C68.9156 68.2637 68.986 68.5626 69.0211 68.6857C69.1794 69.178 68.7046 70.1627 68.0364 70.7253C66.7527 71.833 64.1677 72.2199 62.2686 71.6045C61.0376 71.2176 59.8946 70.1802 59.5077 69.1252C59.1385 68.1054 58.6813 67.6834 57.9603 67.6834C57.0986 67.6834 56.5535 68.3516 56.6766 69.2483C56.9755 71.5693 59.5781 74.0661 62.1279 74.4705L62.7785 74.5936V75.5431C62.7785 76.3695 62.8489 76.5805 63.3061 77.0376C63.7633 77.4772 63.9391 77.5476 64.4139 77.4596C65.258 77.3014 65.5921 76.7739 65.5921 75.6662C65.5921 74.787 65.6273 74.7167 66.0845 74.6112C68.687 74.0309 70.4631 72.8353 71.3247 71.077C72.5205 68.6329 71.4478 65.3273 69.0035 63.8855C67.8429 63.1997 66.6648 62.7953 64.4667 62.3382C63.3764 62.1096 62.1982 61.7755 61.8817 61.6173C60.387 60.8612 59.7891 59.7007 60.1408 58.3116C61.0025 55.0939 66.7879 54.795 68.3529 57.9072C68.7925 58.7864 69.3025 59.2435 69.8476 59.2435C70.5686 59.2435 70.9554 58.9974 71.2016 58.382C71.3951 57.9424 71.3775 57.749 71.0785 57.0984C70.2345 55.2346 68.687 53.8807 66.6999 53.2653L65.68 52.9488L65.5921 51.8586C65.5217 50.9971 65.4162 50.6982 65.0821 50.4344C64.6425 50.0652 64.1325 50.03 63.5522 50.3113Z" />
</svg>
