<svg width="24" height="24" viewBox="0 0 24 24" fill="none" xmlns="http://www.w3.org/2000/svg">
<path fill-rule="evenodd" clip-rule="evenodd" d="M19.795 4.19742C17.7271 2.13715 14.9769 1.00131 12.0471 1.00006C6.00782 1.00006 1.09423 5.88992 1.09297 11.9006C1.09046 13.8133 1.59425 15.6934 2.55411 17.3509L1 23.0001L6.80686 21.4839C8.41374 22.3546 10.2128 22.8112 12.0421 22.8112H12.0471C18.0839 22.8112 22.9975 17.9201 23 11.9094C23.0013 8.99722 21.863 6.25895 19.795 4.19742Z" stroke="#272727" stroke-linecap="round" stroke-linejoin="round"/>
<path d="M13.0549 13.5837L13.565 13.0795C14.0336 12.6167 14.7749 12.5579 15.3151 12.9357C15.8378 13.301 16.3101 13.6287 16.7499 13.9339C17.4484 14.4168 17.5326 15.4075 16.9308 16.0054L16.4798 16.4545" stroke="#272727" stroke-linecap="round" stroke-linejoin="round"/>
<path d="M6.83582 6.85242L7.28685 6.40334C7.88738 5.8054 8.88241 5.88921 9.36737 6.58347C9.67266 7.0213 10.0018 7.49164 10.3699 8.01203C10.7494 8.54992 10.6916 9.28797 10.2255 9.75456L9.71915 10.2624" stroke="#272727" stroke-linecap="round" stroke-linejoin="round"/>
<path d="M16.4796 16.4545C14.619 18.2984 11.4919 16.7322 9.02319 14.2729" stroke="#272727" stroke-linecap="round" stroke-linejoin="round"/>
<path d="M9.02565 14.2767C6.55691 11.8173 4.98396 8.70504 6.83582 6.85242" stroke="#272727" stroke-linecap="round" stroke-linejoin="round"/>
<path d="M9.71924 10.2625C10.12 10.8917 10.6339 11.5146 11.2143 12.0926L11.2168 12.0951C11.7972 12.673 12.4229 13.1846 13.0549 13.5837" stroke="#272727" stroke-linecap="round" stroke-linejoin="round"/>
</svg>
