<svg width="1024" height="415" viewBox="0 0 1024 415" fill="none" xmlns="http://www.w3.org/2000/svg">
<path opacity="0.1" d="M-173.907 385.381L-167.067 414.636L87.728 355.065C364.422 290.375 357.063 291.828 404.023 296.678C431.768 299.313 476.299 315.731 497.445 330.91C516.725 344.378 537.885 372.163 541.632 388.189L544.665 401.163L626.352 382.065L708.04 362.967L705.78 353.3C702.508 339.309 706.134 314.046 714.475 291.705C724.188 265.825 757.611 226.888 785.643 208.798C827.721 181.789 820.481 183.75 1098.91 118.654L1351.97 59.4898L1345.13 30.235L1338.29 0.980155L1083.15 60.6317C803.673 125.972 798.518 127.445 754.693 153.253C678.954 197.79 630.434 264.671 623.294 334.487L620.771 359.76L609.578 340.108C595.1 314.249 583.367 301.699 554.537 281.879C515.452 254.26 460.643 236.22 406.383 233.077C358.449 230.332 349.7 232.109 74.3963 296.475L-180.746 356.126L-173.907 385.381Z" fill="#FFE695"/>
</svg>
