<svg width="140" height="30" viewBox="0 0 140 30" fill="none" xmlns="http://www.w3.org/2000/svg">
<path d="M95.6352 14.7639V9.79255H92.6458V19.6028H95.4201L98.659 14.6724V19.6028H101.648V9.79255H98.8741L95.6352 14.7639ZM78.3914 13.7586C78.3914 14.1152 78.2134 14.8041 77.2963 14.8041H76.2377V12.2073H77.4301C77.7475 12.2073 78.3914 12.4667 78.3914 13.2331V13.7586ZM77.7503 9.79255H73.0829V19.6028H76.2377V17.1945H77.7503C79.7905 17.1945 81.4621 16.0698 81.4621 14.0666V12.9186C81.4621 10.9173 79.7905 9.79255 77.7503 9.79255ZM122.448 14.9833C122.448 16.4768 122.056 16.6933 121.492 16.9518C121.246 17.0667 120.579 17.0414 120.579 17.0414V19.6028H121.816C124.472 19.6028 125.453 18.0551 125.493 14.5959C125.502 13.8118 125.487 13.0408 125.493 12.351H127.262V19.6028H130.419V9.79255H122.448V14.9833ZM68.8425 16.3022C68.8425 16.9518 68.3123 17.4839 67.6627 17.4839H67.3929C66.7433 17.4839 66.2112 16.9518 66.2112 16.3022V13.1211C66.2112 12.4705 66.7433 11.9412 67.3929 11.9412H67.6627C68.3123 11.9412 68.8425 12.4705 68.8425 13.1211V16.3022ZM68.3002 9.63289H66.7554C64.7131 9.63289 63.0413 11.0881 63.0413 13.3442V16.0819C63.0413 18.3501 64.7131 19.796 66.7554 19.796H68.3002C70.3387 19.796 72.0131 18.3371 72.0131 16.0819V13.3442C72.0131 10.9677 70.3387 9.63289 68.3002 9.63289ZM112.042 9.79255H108.626L106.96 13.4982H106.185V9.79255H103.027V19.6028H106.185V16.1145H106.958L108.661 19.6028H112.283L109.607 14.6538L112.042 9.79255ZM115.951 15.8775H119.507V13.5439H115.951V12.351H119.83V9.79255H112.798V19.6028H120.122V17.0414H115.951V15.8775ZM135.964 17.1861H134.776V15.0449H135.835C136.727 15.0449 136.93 15.6992 136.93 16.1239C136.93 17.0051 136.204 17.1861 135.964 17.1861ZM136.287 12.6534H134.776V9.79255H131.62V19.6028H136.287C138.328 19.6028 140 18.4742 140 16.474V15.7823C140 13.7792 138.328 12.6534 136.287 12.6534ZM88.1087 13.4217H85.417V9.79255H82.2608V19.6028H85.417V16.1145H88.1087V19.6028H91.2649V9.79255H88.1087V13.4217ZM58.8148 13.4217H56.1237V9.79255H52.9678V19.6028H56.1237V16.1145H58.8148V19.6028H61.9725V9.79255H58.8148V13.4217ZM37.6009 22.8828C36.1822 24.3035 34.46 25.3078 32.5838 25.838V3.589C34.46 4.11825 36.1822 5.12261 37.6009 6.54048C39.7814 8.72281 40.9818 11.6267 40.9818 14.7117C40.9818 17.8003 39.7814 20.7024 37.6009 22.8828ZM14.7144 15.6973V3.80743L29.4242 13.7325V25.6196L14.7144 15.6973ZM11.5594 25.838C9.68229 25.3106 7.95923 24.3035 6.54136 22.8828C4.35902 20.7024 3.15584 17.8003 3.15584 14.7135C3.15584 11.6267 4.35902 8.72281 6.54136 6.54048C7.95923 5.12261 9.68229 4.11825 11.5594 3.589V25.838ZM29.4242 0V9.92413L14.7144 0.000933422C6.58802 0.000933422 -6.10352e-05 6.58808 -6.10352e-05 14.7135C-6.10352e-05 22.8408 6.58802 29.4252 14.7144 29.4252V19.501L29.4242 29.4252C37.5524 29.4252 44.1405 22.8408 44.1405 14.7117C44.1405 6.58808 37.5524 0 29.4242 0Z" fill="black"/>
</svg>
