<svg width="141" height="18" viewBox="0 0 141 18" fill="none" xmlns="http://www.w3.org/2000/svg">
<path fill-rule="evenodd" clip-rule="evenodd" d="M3.38924 2.71452H16.4181V17.3229H19.0612V2.71452V0.0674661H16.4181H3.38924H0.742188V2.71452V17.3229H3.38924V2.71452ZM139.524 0.115089C139.381 0.658786 139.091 1.14692 138.706 1.53188C138.135 2.11129 137.345 2.46846 136.472 2.46846C135.599 2.46846 134.809 2.11129 134.238 1.53188C133.853 1.14692 133.567 0.658786 133.42 0.115089H134.94C135.019 0.269864 135.123 0.408765 135.246 0.531791C135.559 0.849279 135.992 1.04374 136.472 1.04374C136.952 1.04374 137.389 0.849279 137.702 0.531791C137.821 0.408765 137.924 0.269864 138.004 0.115089H139.524ZM86.1503 4.46467C87.3369 4.46467 88.4282 4.82184 89.2299 5.39332C90.1347 6.0402 90.6943 6.96091 90.6943 8.00068C90.6943 9.04442 90.1347 9.96513 89.2299 10.612C89.1942 10.6358 89.1584 10.6636 89.1188 10.6874C89.2616 10.7708 89.3966 10.8581 89.5236 10.9533C90.4522 11.6359 91.0237 12.6003 91.0237 13.6877C91.0237 14.779 90.4522 15.7434 89.5236 16.426C88.6901 17.0372 87.5551 17.4181 86.3169 17.4181C85.0787 17.4181 83.9437 17.0372 83.1063 16.426C82.2412 15.7871 81.6816 14.9021 81.6142 13.894L83.5945 13.4456C83.6858 14.0766 83.7572 14.3822 84.3088 14.787C84.8089 15.1561 85.5153 15.3823 86.3169 15.3823C87.1146 15.3823 87.825 15.1561 88.325 14.787C88.7338 14.4854 88.9878 14.0964 88.9878 13.6877C88.9878 13.2829 88.7933 12.513 88.3806 12.2114C87.8806 11.8423 87.2297 11.5764 86.432 11.5764C85.924 11.5565 85.7494 11.5645 85.2732 11.5724L85.2811 10.0445C85.8328 10.0326 85.8209 10.0524 86.1383 10.0366C86.8963 10.0366 87.567 9.8302 88.0433 9.49287C88.4123 9.22301 88.6584 8.34992 88.6584 8.00068C88.6584 7.65541 88.4282 7.31411 88.0552 7.04822C87.5829 6.71089 86.9083 6.50055 86.1503 6.50055C85.3923 6.50055 84.7216 6.71089 84.2453 7.04822C83.6699 7.46095 83.7254 7.64748 83.6183 8.23086L81.6261 7.69907C81.7213 6.78232 82.2571 5.9767 83.0706 5.39332C83.8723 4.82184 84.9636 4.46467 86.1503 4.46467ZM97.3615 0.00793718C99.1275 0.0714346 100.405 1.06358 101.247 2.66293C101.449 3.04788 101.628 3.46855 101.779 3.92097L99.8459 4.54007C99.7308 4.20274 99.5998 3.88922 99.449 3.60745C98.949 2.65499 98.2346 2.06764 97.2901 2.03192C97.2623 2.03192 97.2901 2.03589 97.2028 2.03589C96.3376 2.03589 95.6709 2.60736 95.1986 3.52808C94.6152 4.6631 94.3057 6.27037 94.2382 8.07608C94.2343 8.26261 94.2303 8.5166 94.2303 8.83012C94.2303 9.12776 94.2303 9.35 94.2382 9.49684C94.2978 11.3264 94.5994 12.9575 95.1867 14.1083C95.663 15.0449 96.3337 15.6243 97.2187 15.6243C97.3139 15.6243 97.2504 15.6283 97.2941 15.6283C98.2425 15.5966 98.9529 15.0132 99.453 14.0647C99.6554 13.6837 99.822 13.2432 99.9609 12.759L101.906 13.3464C101.731 13.9536 101.513 14.5131 101.251 15.0132C100.409 16.6086 99.1315 17.5967 97.3576 17.6563C97.2425 17.6602 97.2385 17.6602 97.2187 17.6602C95.4645 17.6602 94.2025 16.6522 93.3731 15.0211C92.6508 13.6004 92.2778 11.6756 92.2103 9.56034C92.1984 9.25079 92.1944 9.00473 92.1944 8.83012C92.1944 8.61184 92.1984 8.33404 92.2143 8.00465C92.2897 5.91717 92.6706 4.01225 93.3929 2.60736C94.2224 0.996117 95.4725 0 97.2028 0L97.3615 0.00793718ZM125.951 4.40514C127.436 4.45673 128.578 5.2187 129.36 6.44896C130.106 7.62366 130.499 9.23888 130.499 11.0287C130.499 12.8146 130.09 14.4377 129.34 15.6164C128.547 16.8665 127.388 17.6364 125.927 17.6563H125.892L125.888 17.6602C124.411 17.6602 123.245 16.8546 122.455 15.5608C121.756 14.4139 121.364 12.8582 121.344 11.1597C121.344 10.8858 121.34 11.2192 121.34 11.0287C121.34 10.9652 121.344 10.8303 121.352 10.6279C121.403 9.00473 121.784 7.52048 122.459 6.42118C123.225 5.17504 124.356 4.40117 125.82 4.40117C125.848 4.40117 125.84 4.40117 125.951 4.40514ZM127.642 7.53636C127.221 6.86963 126.63 6.4569 125.888 6.43309C125.844 6.43309 125.916 6.43706 125.82 6.43706C125.142 6.43706 124.59 6.83788 124.193 7.48873C123.697 8.29039 123.419 9.42144 123.38 10.6914C123.376 10.735 123.376 10.8462 123.376 11.0287C123.376 11.2986 123.372 10.9493 123.372 11.1438C123.388 12.4733 123.673 13.6639 124.189 14.5012C124.61 15.1957 125.189 15.6243 125.888 15.6243V15.6283H125.912C126.61 15.6204 127.193 15.2037 127.622 14.529C128.166 13.6718 128.463 12.4336 128.463 11.0287C128.463 9.61987 128.182 8.38563 127.642 7.53636ZM45.9524 4.40514C47.4366 4.45673 48.5796 5.2187 49.3614 6.44896C50.1075 7.62366 50.5004 9.23888 50.5004 11.0287C50.5004 12.8146 50.0916 14.4377 49.3416 15.6164C48.5478 16.8665 47.389 17.6364 45.9286 17.6563H45.8929L45.8889 17.6602C44.4126 17.6602 43.2458 16.8546 42.4561 15.5608C41.7576 14.4139 41.3647 12.8582 41.3448 11.1597C41.3448 10.8858 41.3409 11.2192 41.3409 11.0287C41.3409 10.9652 41.3448 10.8303 41.3528 10.6279C41.4044 9.00473 41.7854 7.52048 42.46 6.42118C43.226 5.17504 44.357 4.40117 45.8214 4.40117C45.8492 4.40117 45.8413 4.40117 45.9524 4.40514ZM47.643 7.53636C47.2223 6.86963 46.631 6.4569 45.8889 6.43309C45.8452 6.43309 45.9167 6.43706 45.8214 6.43706C45.1428 6.43706 44.5912 6.83788 44.1943 7.48873C43.6982 8.29039 43.4204 9.42144 43.3807 10.6914C43.3768 10.735 43.3768 10.8462 43.3768 11.0287C43.3768 11.2986 43.3728 10.9493 43.3728 11.1438C43.3887 12.4733 43.6744 13.6639 44.1903 14.5012C44.611 15.1957 45.1904 15.6243 45.8889 15.6243V15.6283H45.9127C46.6112 15.6204 47.1946 15.2037 47.6232 14.529C48.1669 13.6718 48.4645 12.4336 48.4645 11.0287C48.4645 9.61987 48.1827 8.38563 47.643 7.53636ZM111.783 17.3229V4.4607H116.256C117.312 4.4607 118.272 4.89327 118.971 5.58778C119.665 6.28228 120.098 7.24268 120.098 8.30229C120.098 9.35794 119.665 10.3183 118.971 11.0168C118.272 11.7113 117.312 12.1439 116.256 12.1439H114.089V17.3229H111.783ZM114.089 6.49658V10.108H116.256C116.748 10.108 117.201 9.9056 117.53 9.57621C117.855 9.25079 118.062 8.79837 118.062 8.30229C118.062 7.80622 117.855 7.3538 117.53 7.02838C117.201 6.69898 116.748 6.49658 116.256 6.49658H114.089ZM71.4982 17.3229L75.1334 4.47657H77.4392L81.0784 17.3229H78.7766L77.8321 13.9933H74.7445L73.8 17.3229H71.4982ZM77.2209 11.8304L76.2883 8.54041L75.3557 11.8304H77.2209ZM31.8599 17.3229V4.4607H36.3285C37.3882 4.4607 38.3486 4.89327 39.0431 5.58778C39.7415 6.28228 40.1741 7.24268 40.1741 8.30229C40.1741 9.35794 39.7415 10.3183 39.0431 11.0168C38.3486 11.7113 37.3882 12.1439 36.3285 12.1439H34.1657V17.3229H31.8599ZM34.1657 6.49658V10.108H36.3285C36.8246 10.108 37.277 9.9056 37.6064 9.57621C37.9319 9.25079 38.1382 8.79837 38.1382 8.30229C38.1382 7.80622 37.9319 7.3538 37.6064 7.02838C37.277 6.69898 36.8246 6.49658 36.3285 6.49658H34.1657ZM55.8818 17.3229V13.7829C54.7388 13.7274 53.707 13.2353 52.949 12.4733C52.1355 11.6637 51.6314 10.5445 51.6314 9.31032V8.94521C51.6314 7.71097 52.1355 6.59183 52.949 5.77827C53.7586 4.96868 54.8777 4.46467 56.112 4.46467H57.8145C57.9336 4.46467 58.0487 4.46863 58.1637 4.47657H58.1836V4.48054C59.271 4.56785 60.2512 5.05202 60.9775 5.77827C61.791 6.59183 62.295 7.71097 62.295 8.94521V9.31032C62.295 10.5445 61.791 11.6637 60.9775 12.4733C60.2512 13.2035 59.271 13.6837 58.1836 13.775V17.3229H55.8818ZM55.8818 11.7431V6.51246C55.3024 6.56802 54.7785 6.82598 54.3856 7.21887C53.9451 7.66335 53.6673 8.27451 53.6673 8.94521V9.31032C53.6673 9.98101 53.9451 10.5922 54.3856 11.0367C54.7785 11.4295 55.3024 11.6875 55.8818 11.7431ZM58.1836 6.52833V11.7272C58.7074 11.6438 59.1797 11.3978 59.5408 11.0367C59.9853 10.5922 60.2592 9.98101 60.2592 9.31032V8.94521C60.2592 8.27451 59.9853 7.66335 59.5408 7.21887C59.1797 6.85773 58.7074 6.60771 58.1836 6.52833ZM132.218 17.3229V4.47657H134.519V12.5487L138.413 4.47657H140.742V17.3229H138.436V9.1992L134.519 17.3229H132.218ZM105.45 17.3229V6.46087H102.675V4.30195H110.525V6.46087H107.751V17.3229H105.45ZM66.224 2.18669H73.1452V0.0674661H66.224H63.9222V2.18669V17.3229H66.224V2.18669ZM23.5537 2.18669H28.1731V17.3229H30.4749V2.18669V0.0674661H28.1731H23.5537H21.2519V2.18669V17.3229H23.5537V2.18669ZM12.5051 10.5287C12.6638 10.5565 13.5012 11.5208 13.5012 12.7471C13.5012 13.9734 12.7631 14.9656 12.5051 14.9656C12.2471 14.9656 11.505 13.9734 11.505 12.7471C11.505 11.5208 12.3463 10.5009 12.5051 10.5287ZM12.5051 12.5765C12.5646 12.5884 12.8781 12.9654 12.8781 13.4416C12.8781 13.9218 12.6003 14.3107 12.5051 14.3107C12.4059 14.3107 12.1281 13.9218 12.1281 13.4416C12.1281 12.9654 12.4456 12.5646 12.5051 12.5765ZM8.80637 17.3229H10.5764V17.2832H14.5926V15.5291H10.5764V9.87782H14.5926V8.12371H8.82224H8.80637V17.3229ZM7.36974 6.52436H14.5608V4.27417H7.36974V4.26624H5.11954V17.3229H7.36974V6.52436Z" fill="black"/>
</svg>
